<?xml version="1.0" standalone="no"?>
<!DOCTYPE svg PUBLIC "-//W3C//DTD SVG 1.1//EN" "http://www.w3.org/Graphics/SVG/1.1/DTD/svg11.dtd" >
<svg xmlns="http://www.w3.org/2000/svg" xmlns:xlink="http://www.w3.org/1999/xlink" version="1.1">
<metadata>
Created by FontForge 20170731 at Thu Feb  6 06:37:47 2014
 By Aleksey,,,
more details www.noearaujo.com
</metadata>
<defs>
<font id="California" horiz-adv-x="403" >
  <font-face 
    font-family="California"
    font-weight="400"
    font-stretch="normal"
    units-per-em="1000"
    panose-1="2 0 0 0 0 0 0 0 0 0"
    ascent="750"
    descent="-250"
    x-height="419"
    cap-height="728"
    bbox="-1.125 -173 567 733"
    underline-thickness="50"
    underline-position="-150"
    unicode-range="U+000D-2212"
  />
<missing-glyph horiz-adv-x="500" 
 />
    <glyph glyph-name=".notdef" horiz-adv-x="500" 
 />
    <glyph glyph-name=".null" horiz-adv-x="0" 
 />
    <glyph glyph-name="nonmarkingreturn" unicode="&#xd;" horiz-adv-x="500" 
 />
    <glyph glyph-name="NULL" horiz-adv-x="0" 
 />
    <glyph glyph-name="NULL" horiz-adv-x="0" 
 />
    <glyph glyph-name="space" unicode=" " horiz-adv-x="220" 
 />
    <glyph glyph-name="exclam" unicode="!" horiz-adv-x="212" 
d="M88 -7v9q-23 1 -39.5 15t-17.5 34q-1 19 8 28q10 12 43 12q31 0 42 -11q6 -8 5 -18q2 -30 -16 -48q-11 -12 -25 -12v-9zM89 442q3 29 6.5 58.5t6.5 58.5q1 9 1 18v17q-1 11 -0.5 21.5t2.5 20.5q4 22 11 42t16 37q7 10 14 10t10 -11q8 -26 13 -50.5t2 -47.5
q-12 -97 -26.5 -191t-29.5 -186q-2 -9 -6 -17.5t-9 -17.5l-3.5 -7t-3.5 -6l-8 -2q-2 3 -3.5 6t-3.5 6q-5 8 -9 16t-3 15q5 53 11 106t12 104z" />
    <glyph glyph-name="quotedbl" unicode="&#x22;" horiz-adv-x="215" 
d="M96 629q14 -15 22.5 -28.5t8.5 -18.5q0 -4 -3 -8.5t-5 -6.5q-6 -3 -13.5 -5.5t-12.5 -3.5q-15 20 -28.5 40.5t-24.5 40.5q2 3 4.5 7t4.5 6l3 3q8 0 19.5 -7t24.5 -19zM153 659q5 -8 9.5 -15t9.5 -15l3 -5l-40 -20q-3 1 -9 5q-14 7 -22 16q-14 13 -29.5 29t-29.5 35
q-4 5 -5 13t1 10q4 5 11.5 9.5t12.5 4.5q17 -7 33 -18t31 -22q6 -5 12 -12t12 -15z" />
    <glyph glyph-name="numbersign" unicode="#" horiz-adv-x="607" 
d="M330 58q-7 -3 -10 -11q-13 25 -12.5 51t3.5 54q4 33 8 65.5t9 67.5l8 71h-10h-25q-16 1 -28 0.5t-23 -2.5q-10 -2 -19.5 -12.5t-11.5 -21.5l-3 -19q-8 -54 -15 -109t-12 -111q-2 -29 -15.5 -45.5t-28.5 -30.5q-5 -3 -7 -3t-3 1q-2 3 -4 8.5t0 14.5l8 56q7 49 13.5 98
t13.5 99q2 8 3.5 16t4.5 18q2 5 3.5 11t3.5 13l2 12h-11h-31q-18 -1 -34.5 -1t-29.5 2q-2 1 -8 1q-12 1 -19 3.5t-10 12.5q2 10 8 13.5t27 10.5t54 1q6 -2 11 -2h9q43 0 46 53q0 7 6 19l6 15l3 11l-125 19l-2 8q-3 8 -5.5 15.5t-4.5 15.5l-2.5 10t-0.5 8q2 4 7.5 7.5
t10.5 3.5q6 0 12 -3q5 -2 9 -3t9 -1q10 -1 18 -1h15q24 0 37.5 5t21.5 18.5t12.5 37t9.5 60.5l1 3q2 17 7 26t8 9q2 0 7.5 -7t10.5 -21q2 -3 1 -9t-3 -12q-2 -8 -2 -12q-3 -17 -6 -34.5t-6 -36.5l-4 -25h113l1 8q1 8 2 15.5t2 15.5q2 20 5.5 39.5t8.5 39.5q2 9 10.5 18.5
t17.5 11.5h2q3 0 6 -6.5t4 -28.5q0 -15 -2 -31t-5 -33l-2 -16t-3 -17l-1 -11l11 1q5 0 9.5 0.5t9.5 0.5q10 1 18 2t17 0q8 0 15.5 -0.5t18.5 -1.5q4 -1 8.5 -1t9.5 -1q-1 -6 -3.5 -12.5t-7.5 -12.5q-8 -11 -19.5 -17t-16.5 -7q-28 -3 -44 -14.5t-23.5 -28t-8.5 -37t0 -41.5
v-10l168 11q-11 -15 -22.5 -23.5t-24.5 -12.5t-27 -5t-28 -1h-24l-3 -1q-10 0 -19.5 -1.5t-17 -6.5t-12 -15.5t-5.5 -28.5q-2 -23 -4.5 -47t-5.5 -47q-2 -17 -4.5 -34.5t-4.5 -35.5q0 -5 -0.5 -9.5t-0.5 -9.5q-2 -27 -6.5 -44t-27.5 -25zM329 399q22 25 16 92l-1 9h-9h-20
q-14 1 -27 0.5t-24 -2.5q-10 -2 -18.5 -14.5t-9.5 -23.5v-13.5t1.5 -20t5 -19t9.5 -11.5q27 -11 43 -11q22 0 34 14z" />
    <glyph glyph-name="dollar" unicode="$" horiz-adv-x="278" 
d="M86 68l-6 20t-9 18q-57 88 -3 172q5 7 22 18q2 0 4 2l-3 -18q-4 -19 -6.5 -34.5t-2.5 -31.5q0 -11 3.5 -21.5t7.5 -20.5q4 -8 7 -17l3 -9l10 4q7 3 18 6q14 4 25 8.5t13 14.5q8 30 13.5 62.5t-1.5 61.5q-7 28 -24 57t-40 52q-25 24 -35.5 45.5t-9.5 43.5t13 47t32 58
q8 12 13.5 25t10.5 27l9 21q2 5 3.5 9t3.5 9q4 9 7.5 18t8.5 17q2 0 4 -0.5t4 -0.5q6 -32 9 -63l1 -8q0 -4 -1 -6t-1 -4t-1 -4l-2 -8l8 -3q16 -5 25 -14t13 -21t4.5 -26.5t0.5 -29.5v-6q0 -5 -3 -10l-6 -10l-2 -2h-1q-11 9 -18 18q-2 3 -4.5 6.5t-4.5 7.5q-5 8 -9.5 15
t-12.5 10q-10 3 -26 -5t-21 -20q-5 -15 -6.5 -33.5t6.5 -31.5q7 -13 16 -25t18 -23q11 -14 21.5 -28t17.5 -30q15 -34 22 -70.5t11 -67.5q3 -22 -2 -40.5t-14.5 -33t-20.5 -25t-20 -17.5q-18 -12 -23 -27t-7 -29q-1 -10 -5 -23q-4 -8 -9 -16.5t-10 -16.5q-1 -1 -1.5 -2
t-1.5 -2l-4 4q-6 7 -11.5 13.5t-9.5 14.5q-4 7 -6 14t-4 15z" />
    <glyph glyph-name="percent" unicode="%" horiz-adv-x="432" 
d="M103 31q-2 -5 -10 -8.5t-18 -8.5q-3 -1 -11 -5q0 5 1 8q0 20 5 30q64 138 119.5 288.5t106.5 321.5q5 20 13 30.5t25 10.5q7 0 18 -3q-2 -5 -2.5 -10.5t-1.5 -10.5q-3 -16 -6 -31t-8 -29q-41 -107 -81.5 -211t-78.5 -203l-1 -3q-17 -42 -33.5 -83.5t-36.5 -82.5zM332 22
q-9 -10 -22 -5t-21 20q-7 13 -8 37t2.5 49.5t10.5 48t17 31.5q6 6 18 6h3q5 -5 9 -8.5t9 -7.5q19 -16 32 -32t7 -45l-1 -2l1 -3q8 -24 -4.5 -39t-29.5 -29l-12 -10t-11 -11zM93 526q-18 0 -34 10.5t-18 30.5q-2 49 8 83t34 59l2 2q5 5 10.5 10t12.5 5q19 -4 30 -16.5
t20 -29.5q7 -12 7 -33t-5 -42.5t-13 -40.5t-18 -26q-15 -12 -36 -12z" />
    <glyph glyph-name="ampersand" unicode="&#x26;" horiz-adv-x="509" 
d="M64 66q-17 30 -21 67t1 74.5t19 72t33 59.5q35 45 21 92q-28 97 40 213q7 11 17.5 25.5t25 27t33 21t41.5 8.5q10 0 15 -1q11 -2 24 -15.5t19 -28.5q26 -73 -20 -105q-8 -6 -20 -12.5t-23 -1.5q-6 7 9 35q9 17 16 38t-3 46l-5 10l-9 -6q-8 -5 -14.5 -9t-12.5 -8
q-13 -8 -24 -15t-21 -15q-19 -17 -30 -37t-17 -40t-7 -39t0 -35q2 -28 14.5 -43.5t32.5 -15.5h8t7 2q5 -1 15 -12t11 -16q-1 -11 -8.5 -26.5t-12.5 -20.5q-10 2 -15 2q-20 0 -33.5 -8.5t-23.5 -20.5t-16 -25t-9 -22q-23 -56 -27 -133q0 -9 2.5 -20.5t7.5 -22t11.5 -19
t13.5 -9.5q4 -1 12 -1q20 0 39.5 9.5t27.5 15.5q8 5 13.5 15t10.5 24q6 12 12 27l11 20l-22 -7q-5 -2 -9 -3.5t-8 -3.5t-7 -2t-5 -1q-7 1 -11 2.5t-6 2.5q-3 1 -4 2q-2 6 -1.5 15t3.5 14q22 38 67 38q19 0 38 -8q21 -9 35.5 -13.5t26.5 -4.5q22 0 37.5 16t37.5 45
q6 8 16.5 18.5t24.5 6.5q1 -4 0 -13t-4.5 -20t-8 -22t-8.5 -17q-58 -78 -122 -74q-28 3 -39.5 -8.5t-19.5 -25.5q-4 -6 -5 -9q-15 -24 -33.5 -49t-40.5 -45q-19 -16 -40 -16q-22 0 -44.5 16.5t-38.5 44.5z" />
    <glyph glyph-name="quotesingle" unicode="'" horiz-adv-x="140" 
d="M47 521q-2 2 -4.5 7.5t-2.5 9.5q1 39 2.5 77.5t5.5 76.5q2 11 8 21.5t8 11.5q4 1 11 1q8 0 15 -4.5t8 -22.5q2 -23 1.5 -48.5t-2.5 -57.5q-1 -11 -3.5 -20.5t-4.5 -19.5q-2 -4 -4 -14q-2 -1 -2.5 -2t-2.5 -2q-6 -8 -10 -9q-4 -2 -8.5 -3.5t-9.5 -1.5h-5z" />
    <glyph glyph-name="parenleft" unicode="(" horiz-adv-x="336" 
d="M286 720q9 -8 9 -16q1 -8 -4 -17t-11 -14q-31 -32 -54 -67t-40 -72.5t-30.5 -76.5t-25.5 -78l-6 -20q-9 -27 -16 -57t-10 -61t0.5 -63t16.5 -65q7 -19 16 -32q1 -3 5 -9q5 -7 8.5 -12.5t2.5 -10.5q-2 -8 -15 -15q-6 -4 -8 -11.5t-4 -15.5v-3q-17 7 -32.5 20t-26.5 29.5
t-17 37t-3 42.5q6 56 14 113t21.5 114t34.5 113t53 109q20 34 40 65.5t36 57.5q15 21 30 21q8 0 16 -6z" />
    <glyph glyph-name="parenright" unicode=")" horiz-adv-x="294" 
d="M43 3q0 2 -0.5 3t-0.5 3q-1 5 -1.5 11.5t1.5 8.5q27 29 46.5 61t34 66.5t25.5 70t21 71.5l3 10q18 66 30.5 136.5t2.5 147.5l-12 25q-12 25 -25 50q-13 23 -12 35t15 20q7 4 14 4q8 0 13.5 -7.5t12.5 -18.5q1 -5 4 -7q18 -30 27 -62.5t11 -66t-0.5 -67t-7.5 -66.5
q-6 -44 -16 -86.5t-21.5 -81.5t-23 -74.5t-21.5 -63.5q-34 -94 -102 -119q-8 -3 -18 -3z" />
    <glyph glyph-name="asterisk" unicode="*" horiz-adv-x="359" 
d="M254 628l65 -37l-43 -51l7 -6q29 -26 26 -43q-2 -14 -20 -26l-74 78l-30 -67l-54 29l-4 1q-13 1 -27.5 8t-27 18.5t-21 26t-10.5 31.5q-1 16 3 18q1 1 3 2t7 1q6 0 10 -1q5 0 10 -0.5t10 0.5l11 3l-4 10q-2 5 -4.5 9.5t-4.5 9.5q-5 10 -8.5 19t-5.5 18t3 25q0 2 0.5 2.5
t0.5 1.5q2 0 3 -1q8 -2 15 -4.5t14 -5.5q8 -5 12 -11q1 -1 2 -1l1 -1l6 -6l48 41l31 -37l4 -1h7.5t8.5 -1q10 0 19.5 -1t15.5 -4q2 -3 0.5 -12t-2.5 -14q-2 -9 -3 -15v-6z" />
    <glyph glyph-name="plus" unicode="+" horiz-adv-x="365" 
d="M165 259q-3 6 -5.5 11.5t-4.5 10.5l17 25l-22 -3q-5 -1 -9.5 -1.5t-9.5 -2.5q-11 -2 -20.5 -3.5t-19.5 -1.5h-2q-9 1 -17.5 3t-17.5 5q-4 2 -12 4l-2 7q11 6 25 10t29 8q19 5 37 11t32 17q9 8 7.5 20.5t-4.5 26.5q-2 6 -3 11.5t-2 10.5q2 5 2 15v6t1 4q16 22 27 24
q3 -1 9.5 -8t8.5 -13q5 -20 7 -51q1 -6 1.5 -12.5t1.5 -13.5l1 -8h8h22q14 1 27.5 1t23.5 -2q5 -2 10 -6.5t10 -9.5q1 -2 2 -2.5t2 -2.5q-1 -1 -2 -1.5t-2 -2.5q-5 -5 -10.5 -10t-11.5 -7q-11 -4 -22.5 -6t-23.5 -4q-6 -1 -11.5 -1.5t-11.5 -1.5l-7 -1l-1 -7q-1 -7 -1 -13.5
v-13.5q-1 -28 -6 -42t-30 -15q-4 2 -10 14.5t-10 21.5z" />
    <glyph glyph-name="comma" unicode="," horiz-adv-x="289" 
d="M215 101q39 -16 33 -57q-3 -21 -7.5 -43.5t-14 -43.5t-24.5 -39.5t-38 -32.5q-17 -11 -35.5 -19t-37.5 -8q-17 0 -35 8q-6 3 -11 8t-5 7t4.5 7t8.5 6q7 3 14.5 4t15.5 3q11 2 22 4.5t22 7.5t19 13l16 16q3 4 7 8l8 8l9 9l-11 6q-32 19 -43 42.5t2 49.5q19 43 53 43
q14 0 28 -7z" />
    <glyph glyph-name="hyphen" unicode="-" horiz-adv-x="293" 
d="M72 211q-10 4 -19.5 15t-12.5 22q0 2 3 6.5t7 8.5t8 7t7 3q42 5 82.5 5.5t79.5 -1.5q11 0 26 -29q-3 -5 -10.5 -11.5t-12.5 -8.5q-16 -6 -32 -10l-32 -8q-5 -2 -9 -2.5t-9 -2.5l-1 5h-7q-6 0 -11.5 -0.5t-11.5 -0.5q-13 -1 -25 -1t-20 3z" />
    <glyph glyph-name="period" unicode="." horiz-adv-x="194" 
d="M103 108q51 -2 50 -51q0 -9 -6.5 -19.5t-16.5 -18.5t-23 -12t-26 -2q-11 2 -24.5 14t-15.5 21q-3 23 15 46q19 22 47 22z" />
    <glyph glyph-name="slash" unicode="/" horiz-adv-x="277" 
d="M48 13q-3 8 -5.5 15.5t-1.5 12.5q15 69 31 137.5t32 135.5q8 30 14.5 60t13.5 59l21 90q11 45 21.5 91t21.5 92q2 6 9.5 12t14.5 8q2 0 6 -4l6 -6q4 -4 5 -6l-10 -57q-5 -30 -10.5 -58.5t-10.5 -57.5q-7 -35 -13.5 -68.5t-13.5 -68.5l-24 -120t-23 -121
q-2 -11 -2.5 -22.5t-1.5 -22.5q-1 -14 -1.5 -26.5t-4.5 -24.5q-2 -8 -9.5 -14.5t-16.5 -13.5q-3 -2 -6.5 -5t-6.5 -5h-3q-8 0 -11 -2q-5 -2 -7.5 -5.5t-4.5 -6.5t-6 -7z" />
    <glyph glyph-name="zero" unicode="0" horiz-adv-x="320" 
d="M51 123q-2 5 -3 8.5t-2 5.5q-13 119 2 228t59 221q3 6 5.5 12.5t4.5 12.5l16 40t19 37q8 14 22.5 26t22.5 12q18 -4 36 -17.5t25 -28.5q11 -25 16.5 -55t4.5 -60q-2 -114 -11.5 -233t-41.5 -237q-10 -35 -25 -53q-78 -87 -128 23q-8 15 -13 30.5t-9 27.5zM196 647
q-13 -31 -17.5 -62t-4.5 -61.5t3.5 -61t8.5 -60.5q6 -38 10 -75.5t1 -75.5l-4 -47l22 42q11 21 18.5 57t12 77.5t4.5 85t-4.5 81.5t-13 66t-22.5 38l-10 7zM78 187q0 -12 0.5 -29.5t7 -35.5t21.5 -34.5t42 -26.5l13 -5l-18 454l-14 -8q-6 -5 -12 -7q-9 -5 -10 -11
q-2 -20 -4.5 -40.5t-5.5 -40.5q-7 -54 -12.5 -108t-7.5 -108z" />
    <glyph glyph-name="one" unicode="1" horiz-adv-x="296" 
d="M64 2q-29 8 -19 40q24 94 48 185.5t48 185.5l16 62q2 5 2.5 11t1.5 11l2 15l-22 14l-5 -3q-5 -4 -9 -7t-9 -7q-11 -8 -21.5 -15.5t-20.5 -16.5q-16 -14 -24 -14q-5 0 -11 7q-2 2 -1 12t6 17q23 35 50 73t58 80q16 20 30.5 36.5t30.5 30.5q5 5 15.5 7t15.5 0q3 -2 6.5 -10
t2.5 -14q-5 -39 -11 -72.5t-13 -64.5q-11 -42 -21 -84.5t-21 -84.5q-10 -42 -20 -83.5t-20 -83.5q-4 -14 -6.5 -29t-4.5 -29q-3 -23 -7 -45.5t-12 -43.5q-14 -37 -28 -58t-27 -22z" />
    <glyph glyph-name="two" unicode="2" horiz-adv-x="387" 
d="M127 4q-5 -1 -10.5 -1h-11.5q-21 0 -36.5 3.5t-22.5 10.5q-7 6 -5.5 26t9.5 39q32 72 66 144.5t68 143.5l39 81q5 8 8.5 16.5t8.5 17.5q8 14 15 29t13 30q5 11 7 21t4 21q2 5 2.5 9t1.5 8l2 9l-27 8l-105 -160q-19 6 -23 15q-5 10 3 27q4 10 8 19.5t8 19.5q9 22 19 44.5
t24 42.5l9 13q17 26 38 49.5t56 33.5q7 2 15.5 0t16 -7.5t13 -13.5t6.5 -17q6 -99 -51 -205q-26 -48 -49 -95.5t-46 -95.5l-30 -63l-22 -46t-22 -48l-28 -61l196 -1q0 -7 -5.5 -19t-18.5 -19l-18 -4l-18 -4q-25 -6 -52 -12t-55 -9z" />
    <glyph glyph-name="three" unicode="3" horiz-adv-x="362" 
d="M322 724q-4 -8 -7 -14.5t-7 -13.5l-21 -42t-23 -38q-8 -11 -13.5 -22t-6.5 -21.5t3.5 -22t17.5 -24.5q18 -18 25.5 -38t8 -41t-4.5 -43.5t-12 -45.5q-15 -50 -32 -99.5t-34 -97.5l-13 -38q-11 -30 -26 -58.5t-46 -47.5q-19 -13 -40 -13q-20 0 -33 13.5t-15 38.5
q-5 42 3 85t29 94q2 5 9.5 12.5t14.5 9.5q-2 -17 -4 -33.5t-4 -32.5q-5 -34 -8 -66.5t6 -66.5l2 -6l29 -8l3 5q3 4 6 7t6 7q7 8 13 16t11 18q9 21 15.5 43t12.5 47l5 19q15 56 29.5 112.5t26.5 113.5q2 11 0 21.5t-5 22.5q-2 5 -3.5 10.5t-2.5 11.5l-3 15l-12 -10
q-11 -8 -20.5 -17.5l-19.5 -19.5q-9 -9 -20.5 -20t-17.5 -14q-8 41 7 70t37 57q14 20 27 40.5t18 45.5l3 13l-14 -3q-6 -1 -12 -2.5t-12 -3.5q-11 -4 -21.5 -6.5t-20.5 -1.5q-14 2 -17 8t-2 22q0 6 0.5 12t-1.5 12q2 1 2.5 1.5t2.5 1.5q13 8 24 11q29 5 59 8t59 6l16 2
q5 1 18 -1h5v0z" />
    <glyph glyph-name="four" unicode="4" horiz-adv-x="355" 
d="M214 256q-6 -27 -12.5 -55t-11.5 -57q-1 -8 -0.5 -15t1.5 -15q2 -8 2.5 -15t-1.5 -13q-2 -5 -3 -9t-2 -9q-4 -13 -10 -34t-13 -28q-26 29 -31 59t9 65q8 20 11.5 41t6.5 42l2 18t3 19q5 27 10 54.5t10 58.5l9 48l-13 -2l-18 -2t-17 -2q-20 -2 -39 -4.5t-38 -7.5
q-14 -3 -21 -1.5t-8 15.5q0 17 7 35q17 45 35 91t38 98q9 22 19 33q2 3 4.5 5.5t4.5 5.5q8 11 15.5 18.5t16.5 7.5q8 0 19 -6q11 -8 12 -14q1 -5 -3.5 -12.5t-10.5 -15.5q-2 -3 -4.5 -6.5t-4.5 -7.5q-17 -26 -31 -53.5t-29 -56.5q-6 -12 -12.5 -24.5t-13.5 -25.5l-8 -16
l130 17l1 7q2 13 4 25t4 25q6 35 12 70.5t13 70.5q2 11 8.5 21.5t14.5 16.5q11 8 21 8q4 0 8 -2t4 -13q2 -26 -2.5 -50.5t-9.5 -44.5q-13 -56 -26.5 -111t-27.5 -110q-8 -34 -16.5 -67t-16.5 -67l-1 -3v0z" />
    <glyph glyph-name="five" unicode="5" horiz-adv-x="340" 
d="M203 691q19 0 37.5 6t38.5 14q5 2 10 3.5t11 3.5q-6 -28 -19.5 -46.5t-42.5 -26.5q-72 -21 -72 -115v-9h9h8t8 -1q9 0 18 -0.5t18 0.5q36 3 51 -14q14 -14 12 -47q-9 -115 -45 -218t-99 -194q-16 -23 -59 -43q-4 1 -13 7.5t-14 14.5q-18 27 -18.5 56.5t2.5 61.5l2 22
t1 22q0 21 6.5 42.5t14.5 41.5q2 6 10.5 11.5t14.5 6.5q2 -1 7 -7t10 -15q11 -18 7 -35t-11 -36q-4 -10 -7 -19.5t-5 -20.5q-3 -24 -9 -50q-1 -5 -2 -11t-2 -11l-1 -8l34 -11l3 6q4 6 8 11.5t8 11.5q9 13 17.5 26t13.5 28q21 57 39 115t35 117q5 16 -0.5 35t-15.5 31
q-4 7 -19 7q-9 0 -20 -2t-20 -4q-8 -2 -14 -5.5t-13 -6.5q-8 -5 -14.5 -8t-13.5 -3q-3 0 -7.5 1.5t-10.5 7.5q-13 13 -10.5 25t12.5 29q2 6 5 11.5t5 11.5l4 12q10 29 19.5 58t17.5 59q6 26 18 38.5t42 12.5z" />
    <glyph glyph-name="six" unicode="6" horiz-adv-x="343" 
d="M290 722q5 0 13 -2l-18 -48q-41 -38 -68 -82.5t-46.5 -93.5t-33 -101.5t-25.5 -107.5q-4 -16 -7 -31.5t-7 -31.5l-3 -13l12 1q57 5 85 -8t39 -52q5 -18 4 -36.5t-6.5 -35.5t-15.5 -31.5t-23 -23.5q-32 -21 -63 -21q-32 0 -54.5 23.5t-28.5 65.5q-10 64 2.5 127t32.5 134
q23 78 50.5 155t76.5 145q14 18 32.5 32.5t37.5 28.5l10 6h1q1 0 1 0.5t2 0.5zM79 89l9 -6q7 -4 12.5 -8t10.5 -8q10 -8 17.5 -12.5t15.5 -4.5q3 0 5 1q13 4 25.5 20t11.5 30q-2 11 -8.5 20.5t-14.5 18.5q-3 4 -6 7t-6 7l-6 9z" />
    <glyph glyph-name="seven" unicode="7" horiz-adv-x="316" 
d="M243 570q-10 -38 -20 -74.5t-20 -74.5q-17 -60 -33 -119.5t-32 -119.5v-2q-1 -2 -2 -3t-1 -3l-5 -15q0 -2 -2 -6q-6 -20 -9 -37q-2 -2 -4.5 -5.5t-3.5 -7.5q0 -17 -4.5 -34t-12.5 -31t-19.5 -23.5t-24.5 -11.5q-14 24 -9.5 47.5t12.5 48.5q2 5 3 9.5t2 9.5q21 72 42 143
t44 146l18 58t17 58l5 14l-15 -2q-5 -1 -9 -1.5t-8 -1.5q-8 -2 -13.5 -3t-10.5 0q-6 2 -12 5t-12 8q-2 1 -2.5 1.5t-2.5 1.5l2 4l2 4l7.5 15t8.5 11q18 12 50 13q24 2 34 14q9 10 10 24.5t0 31.5l-1 9h-9q-8 -1 -16 -1.5t-16 -1.5q-20 -2 -38.5 -3.5t-37.5 -3.5
q-4 -1 -11 -1q-3 0 -7 0.5t-6 3.5q-2 2 -2.5 5.5t0.5 6.5q1 7 8 15t13 10q37 8 76 14t83 11q13 1 22 -7q6 -8 4 -21q-5 -27 -12 -54.5t-15 -53.5l-5 -20v0z" />
    <glyph glyph-name="eight" unicode="8" horiz-adv-x="322" 
d="M93 27q-13 17 -23 37t-18 38q-3 7 -6 13.5t-6 11.5q10 91 26 166t51 143q6 11 7 24.5t0 26.5v6q0 13 -1 26l-2 26q-2 25 -3 49.5t2 48.5q5 34 30.5 54t76.5 29q14 2 23.5 -3.5t14.5 -12.5q10 -13 12 -32.5t-5 -40.5q-4 -11 -9 -22.5t-10 -22.5t-10 -22.5t-10 -23.5
q-5 -14 -9 -34t0 -39q8 -34 16.5 -67.5t17.5 -65.5q5 -17 9 -34t9 -34q8 -31 4 -68t-17 -73t-33.5 -66.5t-46.5 -48.5q-22 -16 -44 -16q-27 0 -46 27zM202 673q-30 -17 -36.5 -37t7.5 -57l3 -11l10 6q29 18 36 39t-6 56l-4 10zM137 353q-19 -55 -34.5 -112t-9.5 -118
q1 -13 9 -23.5t18 -21.5q4 -5 7.5 -9t6.5 -8l6 -8l8 6q8 7 17 11q11 7 20.5 14.5t15.5 18.5q20 37 23.5 72.5t-4.5 69t-24 65.5t-35 63l-10 17z" />
    <glyph glyph-name="nine" unicode="9" horiz-adv-x="291" 
d="M98 20q-5 -3 -9 -6.5t-9 -7.5q-10 8 -10 21t5 33v3q20 98 39.5 194.5t39.5 194.5q1 5 1 9v8v6v9l-8 1q-60 7 -84.5 30t-21.5 70q2 26 14.5 51.5t32 45.5t44 32t48.5 12q29 0 46 -1.5t22 -7.5t2 -23.5t-9 -43.5l-3 -14q-15 -69 -25.5 -138.5t-19.5 -138.5l-15 -108
q-2 -11 -3 -23t-3 -24q-2 -16 -3.5 -32t-5.5 -33q-5 -23 -10 -44t-16 -38q-7 -11 -17 -19.5t-22 -17.5zM137 548q13 6 22.5 17.5t14 27.5t3.5 33.5t-8 35.5l-6 14l-18 -20q-12 -14 -22 -26l-20 -24l-2 -2q-2 -2 -4.5 -5.5t-3.5 -8.5v-5v-17t5 -16q3 -5 9 -6t8 -1q13 0 22 3z
" />
    <glyph glyph-name="colon" unicode=":" horiz-adv-x="199" 
d="M98 108l-18 8t-17 10.5t-14 16t-9 23.5q4 12 13.5 21t20 15t21 9.5t17.5 3.5q4 0 10.5 -4.5t13.5 -12t13 -16.5t9 -18q3 -10 -10 -30q-8 -12 -19.5 -21t-18.5 -9q-2 0 -3 1zM108 311q-12 -1 -21 6q-11 11 -11 40q1 23 15 41.5t33 19.5q10 0 18 -8q15 -15 13 -45
q2 -26 -13.5 -39t-33.5 -15z" />
    <glyph glyph-name="semicolon" unicode=";" horiz-adv-x="242" 
d="M143 317q8 -2 15 -7t13 -10q2 -3 5 -5q-2 -38 -14 -60t-20 -22q-2 0 -3 1q-20 10 -37.5 26t-28.5 33q0 1 1 4t6 8q11 11 28.5 22t31.5 11q2 0 3 -1zM117 125q13 0 28 -6.5t23 -14.5q43 -50 30 -94q-6 -23 -25.5 -41t-47.5 -26q-5 -2 -9 -4t-9 -4q-7 -3 -13.5 -5.5
t-11.5 -2.5h-3q-13 0 -23 3t-12 6q-4 9 -3 13q2 6 11.5 10.5t16.5 6.5q11 4 22.5 7t22.5 7q5 1 10.5 2t10.5 3l8 2l-4 29l-4 3q-2 1 -4 1.5t-4 2.5q-3 2 -6.5 3.5t-5.5 3.5q-4 4 -8 7.5t-9 7.5q-9 8 -18.5 16.5t-9.5 14.5q0 12 13 28t25 20q2 1 9 1z" />
    <glyph glyph-name="less" unicode="&#x3c;" horiz-adv-x="216" 
d="M210 440q6 -8 6 -13q-1 -8 -8.5 -15t-15.5 -15q-4 -3 -7.5 -6t-6.5 -6q-15 -16 -31 -30.5t-34 -31.5q-18 -15 -37 -34l-11 -10l14 -5q8 -3 15.5 -5.5t14.5 -4.5q23 -6 35 -14q31 -19 40 -39q6 -14 1 -22q-3 -4 -11 -4q-7 0 -14 3q-32 11 -71 27.5t-77 37.5q-11 6 -12 13
q-2 12 16 30q23 22 44.5 44t44.5 44l28 27q1 1 1.5 2t1.5 2l1 2q0 1 1 1q8 2 15 6.5t15 9.5q7 5 14.5 9.5t13.5 4.5q2 0 5.5 -1.5t8.5 -6.5z" />
    <glyph glyph-name="equal" unicode="=" horiz-adv-x="304" 
d="M227 329q7 -1 14.5 -5.5t15.5 -9.5q2 -1 3.5 -2t3.5 -2q-2 -2 -2.5 -3.5t-2.5 -3.5q-5 -8 -9.5 -14t-9.5 -8q-15 -6 -31.5 -9t-35.5 -6q-8 -2 -16 -2.5t-16 -2.5q-8 2 -11 3q-11 3 -22 7t-22 9q-3 2 -6 10.5t-1 13.5q2 7 9.5 13.5t12.5 7.5q24 2 45.5 3.5t41.5 1.5h19.5
t19.5 -1zM58 154q-3 0 -9.5 5t-8.5 10q0 3 4 9.5t6 7.5q71 28 162 28q11 0 23 -0.5t24 -1.5l3 -6q-3 -3 -5.5 -6t-5.5 -6q-7 -9 -14 -16.5t-14 -9.5q-39 -8 -79 -10t-79 -4h-7v-9v9z" />
    <glyph glyph-name="greater" unicode="&#x3e;" horiz-adv-x="287" 
d="M45 174q-2 5 -3.5 12.5t-1.5 9.5q17 20 34.5 38t35.5 36l12 12t13 12l19 19l18 17l-16 14l-21 18l-21 15q-12 9 -23 17.5t-20 19.5q-5 5 -7 15.5t-1 13.5q7 6 17 10.5t18 4.5h4q5 -2 9.5 -4t9.5 -4q27 -11 50 -24.5t33 -44.5q3 -9 12.5 -13.5t20.5 -8.5q4 -2 10 -4
q-21 -60 -62.5 -100.5t-88.5 -72.5q-7 -5 -18 -6.5t-23 -1.5h-10z" />
    <glyph glyph-name="question" unicode="?" horiz-adv-x="343" 
d="M298 666q12 -91 -11 -156.5t-84 -113.5q-47 -38 -60.5 -87.5t-14.5 -100.5h-3h-2q-9 -1 -17.5 -2t-16.5 -3h-3q0 2 -0.5 4t-0.5 4q-2 9 -3 18t0 17q9 66 45 117t84 102q62 65 51 146q-2 11 -6.5 21t-10.5 21q-2 5 -5 9.5t-5 9.5l-4 9l-9 -5q-38 -23 -51.5 -53t-18.5 -60
q-3 -23 -7 -45.5t-11 -44.5q-1 -4 -5 -7.5t-9 -6.5q-2 -2 -3 -2q-3 3 -4 5q-5 5 -9 10.5t-4 8.5q5 42 12.5 85t19.5 85q10 34 38 49.5t62 24.5q23 6 42.5 -12t23.5 -47zM95 3q-27 0 -44 20q-12 13 -10 32q2 10 2 15q2 20 6.5 31t24.5 12h3q26 0 42.5 -15t17.5 -38
q0 -26 -11 -41t-30 -16l-1 -9v9z" />
    <glyph glyph-name="at" unicode="@" 
d="M357 501q-5 -17 -7.5 -34.5t-5.5 -35.5q-2 -18 -4.5 -36t-7.5 -36q-9 -38 -36 -72q-5 -7 -11.5 -13.5t-11.5 -6.5t-11.5 6.5t-13.5 14.5l-6 4l-6 -2q-2 0 -6 -2q-5 -3 -10.5 -6.5t-10.5 -8.5q-6 -4 -13 -9t-11 -7q-8 11 -19 29.5t-13 39.5q-9 99 50 145q10 10 24 10
t26.5 -11.5t14.5 -34.5q1 -16 1 -32v-32q0 -8 0.5 -14.5t0.5 -14.5v-7l25 -7l3 9q2 6 4.5 12.5t4.5 12.5l10 30t7 31q5 36 6.5 73t3.5 72q1 35 -14.5 65t-40.5 38q-42 14 -68 3t-46 -53q-55 -109 -73.5 -208.5t-3.5 -199.5q15 -94 77 -147q18 -15 41 -15q29 0 52 23t30 58
l7 37q21 -49 12.5 -83t-46.5 -66q-23 -20 -51 -18t-58 23q-65 47 -91.5 118t-17.5 174q15 171 82 316q11 23 25.5 39t30.5 26t32.5 15.5t30.5 7.5q2 1 7 1q12 0 24 -4.5t19 -12.5q16 -18 31 -39.5t24.5 -46.5t12.5 -54.5t-5 -63.5zM210 306q12 10 18.5 22t8.5 24.5t2 25.5
t-1 25q-1 4 -1 7.5t-1 7.5l-1 29l-16 -24q-15 -24 -24 -40t-12 -28.5t0.5 -23t13.5 -23.5l5 -8z" />
    <glyph glyph-name="A" unicode="A" 
d="M136 44q-5 -13 -25 -24t-40 -16q-17 -5 -25 6q-4 5 -5 13.5t2 18.5q4 14 9.5 27.5t10.5 27.5q6 15 11.5 30t10.5 30q14 54 28 108.5t28 108.5q10 40 20 79.5t20 79.5q11 41 23 83.5t27 84.5q3 10 13 19t14 10q16 -5 32 -14.5t18 -19.5q24 -89 30 -178q4 -68 7 -136
t5 -135l6 -138q0 -6 1 -11.5t3 -10.5q1 -5 2 -9.5t1 -9.5v-4q0 -6 -0.5 -18t-3.5 -15q-5 -3 -12.5 -4t-15.5 -2q-4 0 -6 -1q-1 2 -1 6q-3 15 -3 31l-3 60l-2 54t-3 54q-2 29 -5.5 57.5t-7.5 56.5l-6 48l-1 9h-88l-2 -8q-4 -15 -7.5 -30t-7.5 -31q-10 -37 -19 -75.5
t-17 -76.5q-3 -15 -4 -30l-2 -30q-1 -20 -2.5 -39t-7.5 -36zM225 445l14 4q38 9 54 47q10 26 5 57t-25 59l-12 18z" />
    <glyph glyph-name="B" unicode="B" horiz-adv-x="363" 
d="M215 721q15 3 27 6q5 2 15 2q20 0 29 -15.5t12 -28.5l8 -30t9 -30l7 -24q-1 -6 -1.5 -11.5t-1.5 -11.5q-1 -13 -2.5 -24t-6.5 -20q-17 -29 -18 -55.5t14 -54.5q20 -38 16.5 -77t-12.5 -80q-1 -6 -2 -11.5t-2 -11.5q-5 -24 -12 -49.5t-17 -50t-25 -46.5t-36 -40
q-26 -21 -58.5 -34.5t-60.5 -22.5q-6 -2 -15.5 3.5t-19.5 16.5q-11 14 -17 29t-4 26q8 47 16.5 93.5t17.5 92.5q7 38 14 75t13 75q5 29 9 57.5t8 56.5q2 17 4 32.5t5 32.5l2 16q2 16 4 31.5t7 30.5q7 28 28 37.5t46 14.5zM248 204q43 76 2 174q-6 14 -24 25.5t-31 9.5
q-16 -2 -30.5 -16.5t-19.5 -28.5q-8 -18 -11 -37t-5 -38l-2 -15q-5 -35 -9.5 -69t-9.5 -69l-8 -63l26 -18l6 3q5 3 9.5 6t9.5 6q11 7 22.5 14t19.5 18q11 14 19 30l16 32q5 9 10 18.5t10 17.5zM279 603q-11 66 -69 62h-7l-31 -199l16 6q56 24 77 53.5t14 77.5z" />
    <glyph glyph-name="C" unicode="C" horiz-adv-x="352" 
d="M105 11q-24 17 -37 40t-19.5 49.5t-7.5 55.5t1 59q7 111 37 221t87 226q32 67 89 67l3 -1q28 0 39 -16.5t14 -33.5q2 -9 -5 -23t-15 -21q-3 0 -10.5 3.5t-13.5 6.5q-5 3 -10.5 5.5t-10.5 4.5l-5 2l-5 -3q-22 -17 -42.5 -55.5t-38 -88.5t-29.5 -107t-16.5 -111.5
t-0.5 -101.5t20 -76l9 -15l8 15q5 9 9.5 18t9.5 18q11 19 21 37t18 38q6 14 13 24.5t16 10.5q5 0 12 -4q6 -4 12 -11t10.5 -14.5t6.5 -14.5t1 -10q-4 -8 -7 -17l-6 -18q-14 -40 -31.5 -79t-55.5 -68l-6 -5q-9 -8 -17.5 -13t-22.5 -5q-8 0 -12 2.5t-10 6.5z" />
    <glyph glyph-name="D" unicode="D" horiz-adv-x="408" 
d="M244 729q29 2 52.5 -18.5t33.5 -57.5q15 -54 26 -112t12 -118t-11.5 -121.5t-45.5 -122.5q-32 -61 -78.5 -102t-95.5 -74q-3 -2 -10 -2.5t-15 -0.5q-4 1 -12 1h-4q-33 1 -46 19q-14 17 -8 54q29 143 56 282.5t53 271.5q3 15 13.5 32.5t24 32.5t28.5 25t27 11zM142 111
q64 60 103 134t53 147.5t4 139t-43 108.5l-10 13l-7 -15q-22 -54 -39.5 -110.5t-31.5 -119.5t-25 -134.5t-20 -154.5l-2 -25z" />
    <glyph glyph-name="E" unicode="E" horiz-adv-x="508" 
d="M463 699q-4 -6 -8.5 -12t-8.5 -7q-52 -14 -92.5 -22.5t-77.5 -13.5q-36 -4 -49 -23q-6 -10 -7 -23.5t4 -33.5l1 -7h8h30h35.5t34.5 -1q6 -1 12.5 -4.5t7.5 -5.5q2 -3 -0.5 -10.5t-5.5 -9.5l-12 -9q-16 -11 -32 -21t-33 -13q-29 -5 -47 -18.5t-26 -48.5
q-13 -55 -27.5 -109.5t-28.5 -108.5q-7 -26 -13.5 -51t-12.5 -50q-2 -5 -2 -9v-9v-6l-1 -7l7 -2q21 -8 46 -5t48 9q15 5 29 7.5t28 2.5q31 0 54 -19q-12 -18 -26.5 -28.5t-31 -15.5t-34.5 -7.5t-37 -3.5q-5 -1 -9 -1t-9 -1q-10 -1 -19.5 -0.5t-19.5 0.5q-24 1 -47 0
q-27 -4 -40 9q-12 12 -10 39q4 47 9 95.5t16 96.5q13 55 26.5 110.5t27.5 109.5q12 45 23 90.5t22 91.5q8 35 26 52t47 20l16 1q45 5 89.5 9t89.5 5q5 0 12 -6l14 -12q2 -2 4.5 -4t4.5 -4q-2 -2 -2.5 -3t-2.5 -3z" />
    <glyph glyph-name="F" unicode="F" horiz-adv-x="473" 
d="M468 717v-9.5t-2 -9.5q-3 -11 -8 -19q-69 -3 -131.5 -25t-116.5 -47q-7 -3 -10 -10.5t-5 -16.5q-2 -5 -3 -10t-3 -10l-5 -14l14 1q7 1 13.5 1.5t12.5 0.5q22 3 44 3q8 0 16.5 -1t16.5 -3q3 0 5 -1q-1 -2 -1 -4t-1 -4q-2 -6 -4 -15t-4 -10q-20 -11 -42 -19t-47 -16
q-21 -8 -45 -15l-4 -2l-2 -5q-2 -10 -5 -20t-6 -21q-8 -29 -16 -61.5t-16 -66.5q-8 -36 -14.5 -73t-13.5 -73q-5 -22 -8.5 -44t-8.5 -44q-2 -8 -4 -16.5t-7 -12.5l-4 -4l-4 -4q-6 -7 -12 -12t-17 -5q-1 0 -4 4q-5 7 -6 18t1 18q25 134 47.5 249.5t45.5 221.5q9 42 22 83
t29 86l2 5q5 17 11 27t20 10q10 0 21 -4t26 -2t29 6q9 2 18 4.5t17 2.5h18q36 0 70.5 -1t62.5 -2l18 -9v0z" />
    <glyph glyph-name="G" unicode="G" horiz-adv-x="389" 
d="M247 256q6 -4 11.5 -11t10 -14.5t6.5 -14.5t1 -10q-3 -9 -6 -17.5t-6 -17.5q-14 -41 -32.5 -80.5t-55.5 -67.5l-6 -5q-10 -8 -18.5 -13t-22.5 -5q-7 0 -11 2t-10 7l-3 2q-24 17 -37 40t-19.5 49.5t-7.5 56t1 59.5q7 112 37.5 222.5t87.5 227.5q32 67 89 67h3
q29 -1 40 -17.5t13 -33.5q2 -9 -4.5 -23.5t-14.5 -21.5q-4 0 -11 3.5t-14 7.5q-5 3 -10.5 5.5t-10.5 4.5l-5 2l-4 -3q-22 -17 -43 -55.5t-38.5 -89.5t-29.5 -108.5t-17 -112t-0.5 -101.5t20.5 -76l8 -16l9 16q5 9 9.5 18t9.5 17q11 20 21 38t18 38q6 14 13 24.5t16 10.5
q6 0 13 -4zM348 331q1 -27 -9 -37q-9 -9 -27 -9h-1q-23 1 -47 4t-52 10q-8 2 -16.5 9t-9.5 11q-1 5 5.5 15t9.5 11q33 3 68 3q17 0 35.5 -0.5t35.5 -1.5q1 0 3 -3t5 -12z" />
    <glyph glyph-name="H" unicode="H" horiz-adv-x="454" 
d="M289 1q-26 6 -33 16q-7 12 -2 38q17 85 31.5 170t28.5 170l8 49q4 20 2.5 32t-7.5 20q-11 11 -30 11q-11 0 -26 -3q-38 -7 -59 -14t-32 -21t-15.5 -37t-7.5 -61q-8 -78 -18.5 -156t-23.5 -164q-1 -7 -6.5 -14t-11.5 -14q-6 -8 -9 -11q-19 2 -28 12q-8 11 -9 25.5t1 23.5
q13 78 27 156.5t28 155.5q7 37 13.5 73.5t12.5 74.5q3 16 5.5 31.5t4.5 32.5l4 28l4 28q2 11 4.5 23t8.5 20q5 8 14 14t11 7q8 -4 14.5 -14t7.5 -18q1 -17 -1 -35t-5 -38l-2 -18t-2 -19l-1 -11l11 1q9 1 18 1.5t18 0.5q21 2 40 3t39 6q12 3 19 9.5t10.5 14.5t4.5 16.5
t1 16.5q0 17 4 28q3 6 3 12.5t-1 12.5q-2 10 0 16q7 12 15 20.5t12 8.5q7 -1 13.5 -2.5t11.5 -6.5q6 -8 3 -26q-8 -47 -14.5 -93.5t-12.5 -92.5q-6 -40 -11.5 -80.5t-12.5 -80.5q-6 -38 -14 -75.5t-16 -73.5q-4 -18 -7.5 -35.5t-7.5 -34.5l-10 -48l-10 -48l-7 -33v0z" />
    <glyph glyph-name="I" unicode="I" horiz-adv-x="393" 
d="M68 67q18 2 29 9t17.5 16.5t9.5 20.5t5 22l1 9q16 74 32.5 156t36.5 186q5 28 9.5 56t9.5 57l9 54l2 8l-8 3l-12 3q-5 2 -8 2.5t-5 2.5q-11 11 -14 17q-2 3 -2 5q2 7 8.5 14t11.5 8q70 12 127 12q4 0 9.5 -4.5t11.5 -9.5q3 -3 5 -4l-4 -4q-6 -7 -12 -13l-12 -12
q-2 -2 -5.5 -4.5t-6.5 -4.5q-8 -5 -14 -10t-8 -13q-14 -73 -26.5 -146.5t-23.5 -145.5l-12 -66q-2 -11 -3.5 -22.5t-3.5 -22.5q-5 -26 -9 -53.5t-9 -54.5q-3 -9 -12 -23q-2 -4 -4.5 -8t-5.5 -9l-7 -14h15q11 0 16 1q6 1 11.5 1t7.5 -2q9 -5 17 -10.5t16 -11.5l6 -6
q-1 -2 -2 -3.5t-2 -3.5q-4 -5 -8 -12t-7 -7q-46 -9 -90.5 -15t-89.5 -10q-5 1 -14 9t-11 13q6 17 14.5 28.5t13.5 11.5z" />
    <glyph glyph-name="J" unicode="J" horiz-adv-x="508" 
d="M375 646q-6 -29 -12 -59l-12 -60q-14 -72 -29 -145t-32 -145q-9 -39 -23.5 -78t-29.5 -77q-3 -8 -6 -16.5t-7 -16.5q-11 -30 -32.5 -39.5t-40.5 -9.5q-4 0 -7 0.5t-7 0.5q-15 2 -31 7t-29 14t-22 21.5t-12 29.5q-5 32 -1.5 64.5t8.5 64.5q2 8 2.5 16t1.5 15q2 2 9 5.5
t12 5.5q4 -4 7 -6q13 -10 18.5 -18.5t-0.5 -23.5q-9 -22 -12.5 -36t-2 -26t9 -24.5t21.5 -31.5l8 -11l7 11q7 10 13.5 18.5t12.5 17.5q14 18 26 35t18 37q21 69 40 137.5t37 136.5q9 34 18.5 67.5t18.5 67.5q7 25 -2 39q-12 13 -42 9q-3 0 -11 -2q-12 -3 -21 -2
q-7 1 -14.5 3.5t-11.5 4.5q1 12 4 21t6 11q33 16 86 25q29 5 58.5 9t58.5 8q11 2 20.5 3t20.5 3q5 -26 -11 -45q-22 -28 -68 -28h-12l-1 -8v0z" />
    <glyph glyph-name="K" unicode="K" horiz-adv-x="435" 
d="M385 680q-9 -10 -18 -19.5t-18 -18.5q-8 -9 -17 -18t-17 -18q-20 -21 -41 -43t-41 -45q-8 -8 -9 -23t2 -25q11 -32 21 -64t21 -64q19 -60 38.5 -120.5t36.5 -121.5q4 -15 0 -33.5t-9 -37.5q-2 -6 -3.5 -12.5t-2.5 -12.5q-6 -4 -11 -4q-8 6 -16.5 14t-10.5 17
q-5 20 -9 41.5t-9 41.5q-5 23 -9.5 46t-10.5 46q-11 40 -23 79t-25 77l-14 45q-2 7 -5.5 13.5t-7.5 14.5q-2 4 -4 8.5t-4 9.5l-10 21l-8 -22q-18 -55 -28.5 -128t-17.5 -143q-3 -27 -6.5 -57t-7.5 -55.5t-8.5 -43.5t-9.5 -20q-14 5 -21 12.5t-9.5 16.5t-2 19.5t2.5 21.5l1 9
q9 80 18.5 159t18.5 160q9 71 17.5 141t16.5 141q2 18 10.5 32.5t22.5 12.5q8 -1 19.5 -17t13.5 -30q3 -18 2 -37t-3 -41l-2 -20t-1 -21l-2 -27l30 33q12 12 21 24q7 8 13.5 16.5t12.5 16.5q13 17 26.5 34t28.5 31q16 14 26.5 21.5t18.5 7.5t18.5 -8t24.5 -22z" />
    <glyph glyph-name="L" unicode="L" horiz-adv-x="404" 
d="M359 100q14 -44 -26 -66q-32 -17 -67.5 -25.5t-79.5 -8.5q-17 0 -35.5 1t-42.5 4q-36 3 -54 29q-11 14 -13.5 33t2.5 41q24 113 49 225.5t50 223.5l10 42q5 23 11 46t12 47q2 9 4.5 18t4.5 19q38 -3 49 -18q12 -18 -8 -81q-26 -80 -42 -160q-9 -48 -16.5 -95.5
t-15.5 -94.5q-4 -20 -7 -40.5t-7 -40.5l-20 -122l13 2q14 2 27.5 4t27.5 4q32 5 62.5 9.5t60.5 10.5q3 1 6.5 1.5t6.5 1.5q13 3 23 4.5t15 -14.5z" />
    <glyph glyph-name="M" unicode="M" horiz-adv-x="504" 
d="M136 628q2 15 3 30t5 29q1 6 4 13.5t7 14t8 11t7 4.5q4 -2 11 -14t16 -28.5t19 -36t18 -36.5q12 -23 23.5 -46t21.5 -42l10 -18l7 19q7 16 12 32q7 17 12.5 32.5t12.5 30.5q13 24 25 43l18 30q10 21 28 21q10 0 20.5 -5.5t18.5 -10.5q9 -6 15.5 -25.5t4.5 -34.5
q-12 -89 -25 -177.5t-26 -176.5q-7 -45 -13.5 -88t-12.5 -88q-3 -20 -3 -39q-1 -12 -2 -23.5t-3 -22.5q-1 -6 -6.5 -13t-12.5 -11q-4 2 -9.5 7.5t-5.5 8.5q-4 22 -6 46.5t1 47.5q7 60 15 119t16 117q5 33 9.5 65.5t8.5 64.5q3 17 1 32t-7 30l-9 23l-9 -23l-9 -27
q-5 -15 -10.5 -30t-13.5 -29q-7 -13 -15.5 -24.5t-18.5 -22.5q-2 -3 -5 -6.5t-5 -6.5q-2 2 -4.5 3.5t-5.5 3.5q-10 8 -19.5 16.5t-18.5 18.5q-5 5 -9.5 12t-9.5 16q-3 5 -6 9.5l-7 10.5l-12 19l-96 -474q-2 -6 -6.5 -16.5t-15.5 -10.5q-8 0 -13 4q-9 5 -16.5 18t-6.5 21
q12 91 26.5 181t28.5 171l8 46t9 46t9 45t8 45t6 49z" />
    <glyph glyph-name="N" unicode="N" horiz-adv-x="449" 
d="M64 3q-3 0 -8 1.5t-6 3.5q-5 10 -7.5 18.5t-0.5 13.5q41 127 64 258.5t43 274.5q1 7 1 13.5v12.5q0 8 0.5 16t2.5 16q2 9 7 17.5t11 17.5q1 2 2 3.5t2 3.5l9 -6q9 -7 17 -13.5t10 -13.5q17 -56 31 -112t29 -122q7 -29 13 -59t11 -59q3 -14 5.5 -26.5t5.5 -26.5l1 -7
l30 -5l1 10q1 11 2 20.5t2 19.5q6 42 9 86l3 138q2 41 3 81.5t3 81.5q0 14 6 29t13 29l1 2q1 1 5 2.5t8 1.5q5 -2 9 -7.5t5 -9.5q1 -35 1.5 -68t-1.5 -65q-5 -66 -11.5 -130t-12.5 -123q-7 -62 -13.5 -119t-14.5 -113q-3 -25 -12 -29t-20 -3q-19 2 -28 10.5t-13 28.5
q-11 50 -23.5 99.5t-25.5 97.5q-5 17 -9 34t-9 34q-2 5 -11 9l-9 3l-11 6l-9 -70q-5 -32 -8.5 -62.5t-7.5 -61.5q-2 -8 -2 -15.5t-1 -15.5q-2 -30 -8 -57.5t-29 -49.5q-12 -11 -26 -23t-28 -21l-1 -10v10z" />
    <glyph glyph-name="O" unicode="O" horiz-adv-x="339" 
d="M131 5q-9 -5 -16.5 -3.5t-14 6.5t-11 13t-7.5 16q-8 25 -15 50t-13 51q-3 11 -5.5 21t-5.5 20q-8 96 11 186t44 179q10 33 22 68t28 70l2 4q7 16 16 31.5t23 15.5q7 0 14 -4q17 -8 34 -25t29 -40q16 -29 23 -59t8.5 -61.5t-1 -63.5t-5.5 -63l-1 -11q-5 -51 -15 -102
t-21 -101q-2 -11 -5 -22.5t-5 -22.5q-5 -23 -11.5 -45.5t-19.5 -38.5q-15 -20 -36 -37.5t-46 -31.5zM183 655q-21 -57 -40 -119t-29 -128.5t-8.5 -137t21.5 -143.5l2 -5l31 -10l4 6l12 18q8 11 15 21.5t11 23.5l4 13q13 42 25 84t17 86q7 56 8 112t0 115q0 70 -61 70h-10z
" />
    <glyph glyph-name="P" unicode="P" horiz-adv-x="355" 
d="M105 119q-4 -20 -8 -39.5t-9 -39.5q-6 -24 -11 -31.5t-7 -8.5q-9 1 -14 9q-12 14 -15 42t2 50q7 32 14.5 63.5t15.5 62.5q8 29 15 59l14 60q15 71 29 140t24 139q3 25 13.5 45.5t30.5 40.5q18 18 41 18q17 0 30.5 -10.5t20.5 -28.5q57 -156 -22 -292q-8 -14 -19.5 -26
t-24.5 -17q-25 -12 -42 -29t-28.5 -37t-18.5 -42.5t-13 -44.5q-5 -20 -9 -41.5t-9 -41.5zM165 373l19 11q26 15 45 43.5t29 65.5q11 39 7.5 75.5t-19.5 63.5l-12 19z" />
    <glyph glyph-name="Q" unicode="Q" horiz-adv-x="356" 
d="M288 65q14 -24 23.5 -47t-1.5 -49q-2 -4 -10.5 -9t-14.5 -5q-16 10 -30 20.5t-26 21.5q-5 4 -9 7.5t-8 6.5l-3 2h-4q-9 -1 -18 -2.5t-18 -3.5q-17 -3 -31 -4.5t-22 3.5q-34 19 -54 54.5t-21 78.5q-2 143 28.5 277t95.5 261q27 52 71 52q40 0 56.5 -16.5t18.5 -58.5
q3 -69 3 -133t-5 -124.5t-16 -118t-30 -113.5q-10 -29 -2 -48.5t19 -37.5zM220 225q9 18 20 50t19.5 71t14 82t4.5 84t-10.5 76t-29.5 58l-8 8l-6 -9q-4 -5 -8 -10.5t-8 -10.5q-9 -11 -17.5 -22.5t-13.5 -25.5q-39 -97 -62 -179t-31 -159l-1 -11q-2 -18 -3.5 -37.5t1 -39
t11 -38.5t26.5 -37l6 -6l7 5q13 11 19 23t7.5 24.5t-0.5 25t-5 24.5q-3 17 -5 32.5t6 29.5l64 -15z" />
    <glyph glyph-name="R" unicode="R" horiz-adv-x="453" 
d="M130 286q-3 -14 -6 -26.5t-7 -26.5q-8 -29 -13.5 -59.5t-3.5 -59.5t-8.5 -57t-24.5 -43q-13 -15 -24 -15q-3 5 -3 20.5t2 35t4 38.5t4 30l3 21q14 105 29.5 206t29.5 190q9 52 31 125q9 29 34 46.5t56 17.5q8 0 12 -1q27 -3 44.5 -25.5t21.5 -57.5q5 -48 3 -88.5t-13 -77
t-30.5 -70t-49.5 -66.5l-4 -5l4 -6q12 -17 24.5 -34.5t24.5 -34.5q36 -51 70.5 -98.5t66.5 -98.5q3 -5 4.5 -13.5t1 -17.5t-2.5 -17t-6 -12q-8 -8 -19.5 -1.5t-23.5 22.5q-38 48 -76 94.5t-79 95.5l-30 36t-30 37l-13 15zM147 380l23 22q51 46 77.5 91t24.5 83q-1 44 -40 75
l-11 8z" />
    <glyph glyph-name="S" unicode="S" horiz-adv-x="342" 
d="M301 124q3 -17 -4.5 -35.5t-21 -35t-30.5 -29t-34 -17.5q-45 -13 -73 -1t-51 55q-2 5 -4.5 8.5t-4.5 8.5q-18 32 -30 63t-4 68q6 25 21 44l6 -12q7 -16 13.5 -31t13.5 -31q2 -6 4 -18q2 -8 3.5 -15t6.5 -14l2 -2q11 -16 23.5 -31t27.5 -16h3q25 0 42 18t23 50q4 26 1 49
t-11.5 44.5t-20.5 41t-25 37.5q-88 125 -98 261q-1 20 7 43t21 44t30 36.5t34 19.5q21 5 45 -3.5t42 -28.5q14 -15 21 -32.5t6 -34.5q-1 -8 -6 -16t-12 -17q-3 -6 -7 -10l-37 41l-7 -6q-42 -32 -50.5 -67.5t13.5 -83.5l14 -28t15 -28l22 -44t19 -45q17 -49 30 -99t22 -101z
" />
    <glyph glyph-name="T" unicode="T" horiz-adv-x="442" 
d="M341 730q7 -3 17 -9.5t19.5 -14.5t16.5 -18t8 -20q-12 -22 -29 -28.5t-42 -6.5q-5 0 -9 0.5t-9 0.5h-21q-12 0 -27 -1.5t-31 -7.5l-6 -2v-6q-2 -32 -2.5 -63.5t-1.5 -63.5q-2 -80 -4 -161.5t-7 -163.5l-1 -8q-1 -23 -3 -48t-8 -47.5t-18 -39t-32 -22.5q-14 0 -23 11
q-20 22 -17 65q4 45 7 89.5t7 89.5q5 66 10 130.5t10 130.5q1 12 3.5 24.5t6.5 26.5q2 8 3.5 15t3.5 15l3 12l-13 -1q-7 -1 -12.5 -1h-11.5q-12 -1 -22.5 -2t-21.5 -4q-4 -1 -7 -1.5t-6 -0.5q-9 0 -15 4t-9.5 10t-5 12t-1.5 10q0 3 3.5 7.5t8.5 9t11.5 8t11.5 5.5
q48 14 96.5 25.5t99.5 23.5q17 4 34.5 7.5t35.5 8.5z" />
    <glyph glyph-name="U" unicode="U" horiz-adv-x="392" 
d="M134 725q8 -2 11.5 -13t2.5 -19q-2 -51 -5.5 -109t-11.5 -116q-3 -25 -8.5 -49t-10.5 -48q-11 -50 -19 -101.5t1 -106.5q0 -7 1 -10q0 -6 0.5 -12t3.5 -11l5 -7q8 -13 17 -25t22 -16q6 -2 13.5 1t15 8.5t13.5 13t10 13.5q16 29 28 80l8 34q9 41 18 83.5t14.5 87t5 91.5
t-9.5 97q1 9 3 21q3 17 6.5 38t11.5 41q4 11 14.5 24t25.5 13q12 0 20 -18t10 -35q3 -26 0 -53t-8 -54l-7 -41q-11 -60 -22 -121.5t-25 -121.5l-4 -20q-8 -35 -17 -69.5t-22 -67t-32 -62t-46 -53.5q-14 -12 -22 -12.5t-23 12.5q-93 82 -80 230q2 29 4 57.5t4 57.5l8 98
t10 98q4 30 13.5 60t20.5 59q3 8 6.5 16.5t5.5 16.5q5 12 20 20z" />
    <glyph glyph-name="V" unicode="V" horiz-adv-x="393" 
d="M333 726q23 -32 19.5 -60t-14.5 -57q-2 -6 -4 -12.5t-4 -12.5q-17 -57 -35.5 -117t-38.5 -120q-26 -74 -53.5 -147t-55.5 -145l-8 -24q-5 -11 -11 -20t-14 -10q-4 3 -9 15.5t-9.5 30.5t-8 39t-4.5 41q-5 53 -7.5 106t-5.5 105q-2 39 -4 78.5t-4 78.5q-2 21 -5 42t-7 41
q-2 13 -4 25.5t-4 24.5q-3 21 2 31q5 9 10.5 15t7.5 6t8 -6t9 -14q16 -37 25 -76t13 -79t5 -80t1 -80v-15v-39v-51l17 30q16 27 31.5 60.5t30.5 70.5t29 75t28 74q10 27 21 55.5t21 53.5t18.5 43t13.5 24z" />
    <glyph glyph-name="W" unicode="W" horiz-adv-x="540" 
d="M221 151q-8 -11 -16.5 -20.5t-16.5 -19.5q-20 -23 -38.5 -45.5t-38.5 -44.5q-8 -8 -20 -14t-21 -6v-9v9q-10 1 -18 7.5t-10 32.5q-4 77 3.5 160.5t27.5 178.5q14 66 28 125t29 114q3 11 12 24.5t19 13.5q3 0 6 -3q5 -5 6 -16t0 -22q-9 -107 -21 -209q-3 -26 -5.5 -52.5
t-5.5 -53.5q-2 -25 -4.5 -50.5t-4.5 -54.5l-7 -83l18 20q8 8 15 15.5t14 14.5q25 28 48 51q17 17 27 17q2 0 8.5 -3t15.5 -21l6 -12q6 -13 13.5 -25.5t18.5 -26.5l12 -14l20 81q7 28 13 56t14 56q5 23 11 44.5t11 44.5q9 32 17 64t16 65q5 17 7.5 35t5.5 35q2 8 3 17t3 17
q0 3 0.5 6.5t0.5 6.5q2 16 6 26q2 4 4.5 8t4.5 9q5 14 10 21.5t13 7.5q7 -1 12 -6q7 -8 6.5 -22t-1.5 -21q-8 -58 -17 -121t-25 -126q-24 -94 -52 -183t-56 -174q-3 -10 -15 -20.5t-31 -20.5q-5 4 -14.5 14t-15.5 21q-7 11 -12 22.5t-11 25.5q-5 15 -12 30l-6 14l-10 -11v0z
" />
    <glyph glyph-name="X" unicode="X" horiz-adv-x="441" 
d="M62 60q9 27 17.5 54t17.5 53q11 36 23 73t25 73q8 25 15 51.5t9.5 55t-2 58.5t-19.5 61t-22.5 65.5t-14.5 68.5l-3 19q-3 11 3 19q10 12 28 0t31 -40q6 -14 10 -29t9 -30q2 -6 3.5 -12t3.5 -12l7 -23l11 22q5 11 9.5 20.5t9.5 19.5q11 24 21.5 46t21.5 45q4 6 8.5 8.5
t7.5 2.5q2 0 4.5 -1t4.5 -6q5 -14 10 -37.5t0 -46.5t-13 -45.5t-16 -44.5q-6 -14 -11.5 -29t-10.5 -30q-5 -14 -4.5 -28.5t5.5 -26.5q14 -36 28.5 -71.5t28.5 -71.5l40 -100t40 -101q4 -11 2.5 -27.5t-7.5 -19.5q-8 -3 -15.5 1.5t-15.5 11.5q-2 2 -4.5 3.5t-4.5 3.5
q-6 5 -10.5 13t-9.5 17l-1 2l-81 168l-26 54l-29 3l-119 -321q-2 0 -3 0.5t-3 0.5q-17 1 -23.5 4t-7.5 17q2 3 3.5 5.5t3.5 5.5q9 14 15 28z" />
    <glyph glyph-name="Y" unicode="Y" horiz-adv-x="329" 
d="M277 652q-20 -81 -40.5 -163t-42.5 -164q-19 -69 -40 -142t-46 -147q-4 -11 -20 -22t-30 -14q-9 -3 -14 3q-6 8 -1 26q8 29 15.5 56.5t15.5 56.5q5 20 10.5 39t10.5 38q2 6 2.5 12t2.5 12q4 14 7.5 27.5t9.5 24.5q16 32 19.5 62.5t-1 59.5t-15.5 57.5t-23 55.5l-2 5
q-15 34 -26.5 66.5t-20.5 64.5q-2 9 -3.5 19.5t2.5 17.5q6 8 18 9q2 0 3.5 0.5t3.5 0.5q24 0 34 -36q8 -27 16.5 -54t16.5 -55l16 -51l23 5l1 5q4 13 7.5 25t7.5 25q9 28 17.5 56t16.5 57q6 23 20.5 31.5t40.5 6.5v-8q0 -8 -0.5 -15.5t-2.5 -15.5z" />
    <glyph glyph-name="Z" unicode="Z" horiz-adv-x="428" 
d="M41 57q10 29 21.5 57t22.5 56l15 36l23 56l52 126l52 126q8 19 16.5 36.5t17.5 36.5q4 8 7.5 16.5t8.5 16.5l7 16l-17 -2q-10 -2 -19 -3t-18 -3q-22 -4 -43 -6.5t-41 -3.5h-3q-21 0 -27 6t-7 8q-1 11 7.5 19.5t16.5 10.5q61 21 115.5 37t106.5 29q20 5 29 -8
q10 -17 -4 -45q-6 -12 -12.5 -24t-13.5 -23q-9 -16 -17.5 -32t-16.5 -33q-12 -29 -23.5 -57t-22.5 -56q-12 -31 -24.5 -62t-26.5 -62q-13 -29 -27 -57l-28 -56q-18 -33 -34 -65q-3 -7 -5.5 -14t-4.5 -15q-1 -5 -2 -8.5t-3 -8.5l-5 -16l16 4q14 2 27 5t27 6q31 7 60.5 13
t58.5 10q20 3 32 1.5t21 -6.5q-2 -12 -6.5 -18t-11.5 -13q-4 -3 -10 -9q-3 -5 -16 -10q-6 -3 -12.5 -7t-13.5 -9l-22 -6l-22 -6q-34 -10 -69 -19.5t-72 -17.5q-8 -2 -21.5 3.5t-21.5 12.5q-8 8 -13.5 19.5t-3.5 17.5z" />
    <glyph glyph-name="bracketleft" unicode="[" horiz-adv-x="373" 
d="M311 679q-19 0 -31 -6.5t-19.5 -16t-11 -21.5t-6.5 -24l-2 -7q-32 -121 -63.5 -240t-63.5 -240q-2 -8 -2.5 -15.5t-1.5 -16.5q-1 -4 -1.5 -8t-1.5 -9l-1 -10l121 -7q4 -5 2 -17t-24 -39h-165q2 9 5 17.5t5 16.5q8 26 15 50t13 49q20 81 37.5 155t33.5 143q9 40 17.5 79.5
t16.5 79.5q5 25 10.5 50t10.5 51q4 16 10.5 23t20.5 7l4 -1q8 0 17 0.5t17 1.5l18 2t18 -1q5 -1 12.5 -5.5t11.5 -8.5q-5 -12 -10 -21t-7 -11h-5v0z" />
    <glyph glyph-name="backslash" unicode="\" horiz-adv-x="196" 
d="M186 4l-6 7q-2 3 -4.5 6.5t-7.5 5.5q-3 2 -11 2h-3l-13 10q-9 7 -16.5 13.5t-9.5 14.5q-4 12 -4.5 24.5t-1.5 26.5q-1 11 -1.5 22.5t-2.5 22.5q-11 61 -23 121l-24 120l-27 137l-21 116l-10 57q1 2 5 6l6 6t6 4q7 -2 14.5 -8t9.5 -12q11 -46 21.5 -92t21.5 -91l21 -90
q7 -29 13.5 -59t14.5 -60q16 -67 32 -135.5t31 -137.5q1 -5 -1.5 -12.5t-5.5 -15.5z" />
    <glyph glyph-name="bracketright" unicode="]" horiz-adv-x="364" 
d="M189 92l-2 -8t-1 -9v-9.5t1 -9.5q2 -17 0 -25t-13 -12q-28 -8 -57.5 -10.5t-59.5 -4.5q-4 1 -9.5 6.5t-6.5 8.5q-1 4 4 10t9 11l2 4q2 2 5.5 4.5t5.5 2.5h3q27 0 44 8.5t27.5 23t15.5 32.5l10 36q11 43 23 84.5t25 83.5q11 34 21 69t19 70q8 29 11.5 57t7.5 57
q1 12 2 24.5t3 24.5q3 17 -2.5 27.5t-14.5 16t-18.5 7.5t-14.5 3l-7 1q-9 2 -17.5 3.5t-11.5 6.5q-4 4 -1 15q2 8 8 16t19 8q8 0 20 -5q5 -2 15 -4h4q24 -5 36.5 -8.5t19 -13.5t8 -29t2.5 -53q-1 -7 -2 -14.5t-3 -16.5q-5 -26 -11 -58.5t-14 -65.5q-17 -64 -35.5 -128
t-37.5 -127q-8 -27 -15.5 -54t-15.5 -54z" />
    <glyph glyph-name="asciicircum" unicode="^" horiz-adv-x="308" 
d="M171 731q19 0 36 -31q13 -23 24 -47l22 -48l15 -33l-25 -41l-89 122l-7 -14q-5 -8 -8.5 -17t-7.5 -17q-17 -35 -35 -65.5t-53 -51.5q-9 54 21 103l24 39q11 17 22 34.5t22 35.5q19 31 39 31z" />
    <glyph glyph-name="underscore" unicode="_" horiz-adv-x="440" 
d="M103 10q-16 5 -32 10.5t-31 12.5q0 3 0.5 7.5t0.5 7.5l26 6q35 8 71.5 15t72.5 11q31 2 67 0.5t71 -4.5l19 -2q7 0 14 -3t15 -8q1 0 1.5 -0.5t1.5 -0.5q-1 -2 -1.5 -2.5t-1.5 -2.5q-5 -6 -10.5 -11.5t-10.5 -7.5q-30 -7 -61 -10.5t-62 -6.5l-7 -1q-22 -2 -44 -3.5
t-44 -3.5q-8 0 -17 -0.5t-18 -1.5h-6l-2 -5z" />
    <glyph glyph-name="grave" unicode="`" horiz-adv-x="833" 
 />
    <glyph glyph-name="a" unicode="a" horiz-adv-x="321" 
d="M193 85q-3 -14 -7 -27.5t-11.5 -24t-18.5 -18t-28 -8.5q-38 -3 -62 22q-27 27 -25 75q4 110 40 185.5t109 123.5q16 11 25 11q16 0 29 -28q16 -32 14 -64t-7 -65q-2 -14 -4 -28.5t-2 -28.5q-1 -5 -1 -11t-1 -11q-1 -17 -1 -34t3 -33t10.5 -31t22.5 -30q4 -4 1.5 -15.5
t-4.5 -22.5q-1 -5 -2 -9l-2 -8q-2 1 -4.5 2t-4.5 2q-9 3 -16.5 7t-12.5 9q-8 9 -13 19.5t-10 21.5l-4 10t-5 10l-6 12zM117 60q10 0 21 4t16 12q23 35 29 67q7 35 12 71t10 71q2 14 4 27.5t4 27.5l1 5l-21 2l-2 -2q-54 -77 -76 -137.5t-16 -115.5q0 -2 1.5 -7.5t4 -11
t5.5 -9.5t7 -4z" />
    <glyph glyph-name="b" unicode="b" horiz-adv-x="302" 
d="M134 678q3 19 17 36q5 4 11.5 7.5t11.5 3.5q2 0 3 -1q3 -1 7.5 -8.5t3.5 -12.5q-5 -51 -11 -102t-12 -101l-2 -14q-1 -8 -1 -10t-1 -5q-1 -2 -1 -4t-1 -6v-1v-1q1 -7 2.5 -9.5t3.5 -4.5t2 -3l1 -1q4 -5 7 -10l6 -10q7 -11 15 -22t19 -18q35 -20 41 -49t5 -60v-17
q1 -44 -9 -85.5t-19 -70.5q-5 -18 -20.5 -35.5t-36 -31t-44 -21.5t-45.5 -8h-10t-10 2q-4 1 -9 6t-9 11.5t-6.5 13t-1.5 11.5q22 157 45 313.5t48 317.5zM192 203q45 92 -45 182l-6 7l-44 -317l7 3q37 16 51.5 42t23.5 51l6 16t7 16z" />
    <glyph glyph-name="c" unicode="c" horiz-adv-x="284" 
d="M217 271l-7 16q-5 13 -10 25.5t-10 24.5q-2 4 -4 7.5t-4 7.5q-2 2 -4 6l-2 4l-5 -2q-2 -2 -3.5 -2.5t-3.5 -1.5q-5 -3 -10 -5.5t-7 -7.5q-17 -30 -26.5 -61t-14 -61.5t-5 -61t1.5 -58.5q1 -6 5 -11t9 -9q2 -2 3 -2.5t2 -1.5l1 -2h3q22 2 29.5 16.5t11.5 30.5
q5 15 11 26.5t24 11.5q2 0 4.5 -0.5t4.5 -0.5q22 -102 -69 -151q-12 -6 -26 -6q-22 0 -40.5 13.5t-24.5 33.5q-9 32 -10.5 64t3 63t12 61.5t16.5 60.5q5 17 13 34.5t16 34.5q2 4 4.5 8t4.5 9q13 25 36 31.5t50 8.5q5 0 7 -4q3 -5 6.5 -9t6.5 -9q9 -11 16.5 -22.5t9.5 -23.5
q2 -14 0 -29t-5 -30l-2 -12l-2 -12q-3 0 -5.5 -0.5t-4.5 -0.5z" />
    <glyph glyph-name="d" unicode="d" horiz-adv-x="342" 
d="M211 38q-1 -5 -5 -11t-9.5 -11t-12 -8.5t-10.5 -3.5v-4l-1 4q-21 1 -44 14.5t-42.5 33.5t-32.5 44t-13 46q-1 49 3.5 87t14.5 70q2 4 2.5 8t2.5 8q4 15 9 29.5t13 27t20.5 22t32.5 13.5q13 3 23.5 11t20.5 17q9 9 18 15l1 1q1 2 1.5 2t1.5 1q2 2 4.5 4t5.5 8l1 1
q0 9 1 11v5t2 10l2 12q8 50 16.5 101t18.5 102q2 5 8 11t10 6q5 0 11.5 -5.5t9.5 -12.5q9 -19 6 -38q-22 -162 -44.5 -318.5t-45.5 -312.5zM213 396l-8 -4q-112 -62 -95 -163q2 -8 2.5 -16.5t1.5 -16.5l2 -28t5.5 -28t13.5 -28t24 -27l6 -5z" />
    <glyph glyph-name="e" unicode="e" horiz-adv-x="285" 
d="M109 344q31 40 89 75q4 3 11 3q11 0 22 -12q18 -20 13 -48q-9 -67 -36.5 -107.5t-76.5 -60.5q-8 -3 -15 -13t-9 -19q-2 -15 -1.5 -32t2.5 -38q6 -54 54 -26q14 8 28 12q6 2 10 4l2 -8q-4 -10 -5 -15q-4 -9 -7 -17t-8 -15q-19 -25 -50 -25q-11 0 -22 2l-22 4l-7 2
q-27 6 -33.5 27t-6.5 44q-1 69 21 160q8 29 19.5 56t27.5 47zM124 249q42 10 60 42t10 80l-2 13l-79 -137z" />
    <glyph glyph-name="f" unicode="f" horiz-adv-x="332" 
d="M287 723q7 -2 14.5 -10.5t13.5 -22.5q5 -13 6 -25t-3 -17t-6.5 -10.5t-4.5 -10.5l-3 -6q-8 -2 -14.5 3t-12.5 12q-6 6 -12.5 11t-14.5 5q-11 0 -22 -10q-7 -6 -12.5 -13.5t-10.5 -16.5q-3 -5 -5.5 -9.5t-6.5 -9.5l-4 -6l56 -9q6 -17 8 -29t-2 -18q-5 -6 -17.5 -8.5
t-32.5 -3.5q-8 -1 -17.5 -10.5t-11.5 -17.5l-2 -12l-22 -112t-19 -113q-5 -38 -8.5 -76t-6.5 -75q-1 -16 -2 -31.5t-3 -30.5l-38 -37l-1 1q-15 6 -23.5 14t-4.5 32q13 87 24 173t21 171q7 53 13.5 106t13.5 107q3 21 14.5 42.5t30 38t43.5 27t54 10.5q14 0 31 -3z" />
    <glyph glyph-name="g" unicode="g" horiz-adv-x="356" 
d="M67 -152q-41 29 -18 74q12 21 23 21q9 0 21 -12q28 -32 50 -32q27 0 50 48q3 6 4.5 12l3.5 14q1 4 2 7.5t2 7.5l2 5l-6 1q-55 1 -75 27q-22 28 -9 101l4 20q9 47 19 94.5t25 92.5q8 23 25.5 46t43.5 43q3 4 14 4q12 0 26 -4.5t22 -10.5q10 -7 15.5 -24.5t3.5 -31.5
q-10 -59 -21.5 -117t-22.5 -115q-5 -21 -9 -42l-8 -42q-2 -7 -3 -13t-3 -12q-3 -15 -6 -30.5t-4 -31.5q0 -26 -12.5 -43t-27.5 -34l-8 -10t-9 -10q-17 -22 -54 -22q-35 0 -60 19zM189 78q18 25 29.5 51.5t18 54t9.5 55.5l6 56q1 30 6 60l3 21l-12 -18q-83 -138 -68 -278
l1 -12z" />
    <glyph glyph-name="h" unicode="h" horiz-adv-x="292" 
d="M199 18q-8 0 -14 7q-6 6 -8.5 15t-2.5 14q2 38 7.5 74.5t12.5 71.5v2l2 10t3 10v2q1 7 1.5 11t1.5 8q0 4 0.5 7.5t0.5 10.5q-2 19 -2 38v38v31v4l-27 5l-1 -4q-3 -9 -6.5 -17.5t-6.5 -17.5q-8 -20 -14.5 -40t-11.5 -40q-8 -37 -14.5 -73.5t-11.5 -73.5q-3 -15 -5.5 -30.5
t-5.5 -30.5q0 -1 1 -2q-4 -5 -6 -10.5t-4 -10.5q-3 -11 -7.5 -18t-17.5 -7q-10 3 -15 11t-6.5 17.5t-1 17.5t0.5 10q9 81 20 161t22 158l21 150l4 32t4 33q2 26 5.5 52.5t8.5 52.5q2 9 12.5 20t17.5 11h1q9 0 14 -5q3 -4 2.5 -10.5t-2.5 -14.5q-1 -2 -1 -5t-1 -5
q-7 -47 -12.5 -93t-10.5 -91q-2 -17 -3.5 -33t-3.5 -33l-1 -7l7 2q6 2 11.5 5t11.5 5q11 5 20.5 8.5t16.5 1.5t15 -6.5t15.5 -11t12 -16.5t3.5 -23q-4 -62 -7.5 -122t-8.5 -121v-9t-1 -9q-2 -20 -3 -41t-6 -41q-2 -12 -8.5 -23.5t-15.5 -11.5h-2v0z" />
    <glyph glyph-name="i" unicode="i" horiz-adv-x="225" 
d="M46 7q-4 6 -3 22q-9 95 8 185.5t42 181.5q2 8 10 17t22 9h5q2 0 3.5 -1t3.5 -2q3 -5 2.5 -12.5t-1.5 -14.5v-4q-8 -63 -16.5 -124t-18.5 -119v-2q-2 -11 -3 -21.5t2 -19.5t10.5 -16.5t23.5 -11.5q2 -4 2.5 -13t-1.5 -11q-27 -23 -64 -42q-19 -9 -27 -1zM136 552
q13 0 26.5 -5.5t22.5 -30.5q-7 -23 -24.5 -34.5t-29.5 -13.5q-5 0 -12.5 3t-14 7.5t-11.5 10t-6 10.5q-2 9 -0.5 21.5t9.5 21.5q9 10 23 10h3h5h9z" />
    <glyph glyph-name="j" unicode="j" horiz-adv-x="345" 
d="M300 534q8 -13 2 -37q-3 -11 -9 -19.5t-16 -8.5q-6 0 -14 5q-25 17 -22 42t26 35q25 -5 33 -17zM45 -73q4 7 11.5 13t15.5 7q5 0 12 -5.5t12 -11.5q2 -2 4 -5l4 -6q4 -7 8.5 -13.5t12.5 -14.5l6 -4l2 6q4 13 8 25t9 25q10 27 19.5 55t15.5 57q8 41 14.5 82t13.5 81
q5 34 10.5 68.5t12.5 68.5q0 4 2 10q1 10 3.5 20.5t8 18.5t15 13t26.5 5h1v-8t-1 -8q0 -22 -3 -41l-13 -72q-16 -89 -32.5 -178.5t-35.5 -180.5q-4 -19 -16 -37t-26 -35l-3 -5q-23 -29 -55 -29q-18 0 -36 10q-8 4 -15 15t-11 24.5t-4.5 27t4.5 22.5z" />
    <glyph glyph-name="k" unicode="k" horiz-adv-x="321" 
d="M63 4q-14 -5 -19 1q-6 6 -3 25q2 18 5 35.5t5 34.5q3 24 6.5 48.5t7.5 48.5q17 100 34 200.5t36 209.5q3 20 7.5 39t9.5 40q2 9 4 18.5t4 19.5h9q4 1 12 1q11 0 15 -4q3 -2 3.5 -12.5t-1.5 -24.5q-5 -25 -10 -49.5t-10 -48.5l-6 -32l-6 -32q-1 -5 -1 -9.5v-10.5
q1 -5 1 -17v-15l8 13q5 8 9 14.5t9 12.5q17 29 35 51q3 4 9 6l12 4q2 1 3.5 1t3.5 1q0 -4 2 -10q1 -8 1.5 -15.5t-1.5 -13.5q-15 -33 -45 -73q-19 -24 -18 -48.5t6 -48.5q2 -7 3 -13l2 -12q5 -45 15.5 -89.5t21.5 -86.5q5 -18 12 -35t15 -34l6 -14l6 -14q-1 -1 -2 -1.5
t-2 -1.5q-4 -2 -7.5 -4.5t-5.5 -5.5q-3 -3 -10.5 -10t-12.5 -7q-8 0 -14 26l-18 68t-17 68q-7 26 -13.5 53t-13.5 53l-4 12l-4 12q-2 2 -2.5 5t-1.5 5l-2 5l-15 -7l-1 -3q-2 -18 -5 -36.5t-5 -36.5q-8 -54 -16.5 -108.5t-17.5 -108.5q-2 -11 -10.5 -22.5t-17.5 -16.5z" />
    <glyph glyph-name="l" unicode="l" horiz-adv-x="236" 
d="M117 101q-2 -4 -2.5 -8.5t-2.5 -9.5q-3 -12 -6 -25.5t-7 -25.5t-9.5 -20t-11.5 -8q-29 9 -35 20.5t2 38.5q16 53 26.5 108t20.5 112q8 48 15.5 96.5t15.5 96.5q8 51 16 103t17 104q2 8 7 16t13 16q2 3 5 6t5 6l10 -3q-1 -8 -1.5 -14.5t-0.5 -13.5q-2 -17 -3 -33.5
t-3 -33.5q-8 -63 -17 -126t-17 -126q-5 -36 -10 -72.5t-10 -72.5q-2 -11 -2.5 -22t-1.5 -22q-2 -22 -5 -44t-8 -43z" />
    <glyph glyph-name="m" unicode="m" 
d="M348 254q-2 -12 -5.5 -23.5t-6.5 -23.5q-9 -31 -15 -63.5t2 -67.5q2 -6 -5.5 -16t-15.5 -19q-5 -4 -9 -10h-2q-5 0 -9.5 1t-5.5 2q-5 6 -8.5 14t-1.5 14q13 54 25.5 103.5t26.5 97.5q10 33 8.5 52.5t-18.5 44.5l-4 6l-4 -5q-3 -5 -6.5 -9.5t-7.5 -9.5q-8 -9 -15 -17.5
t-9 -19.5q-8 -28 -14.5 -56t-13.5 -56q-7 -29 -14 -59.5t-15 -60.5q-3 -8 -9.5 -15.5t-14.5 -15.5q-4 -4 -7 -7.5t-7 -6.5q-9 0 -14 5t-5 12q2 20 6 42.5t10 47.5q9 35 18 69.5t19 71.5q5 16 9 32.5t9 34.5l3 12l-10 -7q-34 -25 -47.5 -53.5t-21.5 -54.5l-6 -18
q-6 -17 -10 -35t-8 -35q-2 -14 -5 -29t-8 -29q-5 -18 -11.5 -32.5t-13.5 -29.5q-4 -7 -7 -15t-7 -16q-9 2 -12 6q-2 7 -4.5 11t-4.5 8q-2 5 -4 8.5t-1 9.5q10 54 20 106.5t21 104.5q4 20 8 41l8 42q2 10 2 16q1 8 2 14.5t4 12.5q2 3 3 5.5t3 5.5q4 11 9.5 19.5t16.5 10.5
q10 -4 13.5 -9t6.5 -13q4 -10 9 -16l4 -4l3 3q10 10 21 18t24 8q16 0 30 -10q4 -3 10.5 -1t14.5 6l6 3q22 9 31 9q8 0 14 -6t17 -22l4 -7q19 -27 16.5 -51.5t-8.5 -50.5q-4 -12 -6 -25z" />
    <glyph glyph-name="n" unicode="n" horiz-adv-x="309" 
d="M235 57q-3 -11 -10.5 -20t-16.5 -19l-7.5 -7.5t-6.5 -7.5l-9 1v11q1 9 1 17.5t1 16.5q5 32 10.5 64t10.5 64l12 72t11 72q1 10 -2 23q-2 8 -2 12l-1 6l-5 -2q-22 -8 -36 -21t-23.5 -28.5t-15.5 -33.5l-12 -36l-6 -21q-5 -17 -9 -34.5t-8 -34.5q-4 -18 -8 -36.5t-9 -35.5
q-5 -13 -13 -24.5t-17 -22.5q-4 -5 -7.5 -9.5t-7.5 -9.5h-3q-4 0 -5 2v7.5t-1 8.5v18.5t1 18.5q9 59 18 117t18 115l7 46q1 3 1 6t1 5l2 16t5 14q4 7 9.5 13t11.5 12l3.5 3.5l3.5 3.5q13 -14 31 -14q8 0 17 2.5t17 6.5t16.5 6.5t16.5 2.5q49 -5 49 -53q1 -53 -0.5 -94.5
t-5.5 -79.5q-8 -76 -27 -139z" />
    <glyph glyph-name="o" unicode="o" horiz-adv-x="279" 
d="M171 423q13 0 25 -21l43 -75q-2 -8 -2.5 -16t-1.5 -16q-5 -40 -10 -77t-14 -71.5t-25 -66.5t-41 -61q-14 -15 -23 -15q-8 0 -25 10q-19 12 -30 27.5t-16.5 33.5t-7.5 37t-2 39q-3 159 98 252q8 8 16 14t16 6zM145 72q35 76 44 147t-5 146l-1 7l-6 -5q-20 -15 -34.5 -41
t-24 -57t-13 -64t-1.5 -61q2 -20 9.5 -42.5t25.5 -31.5l4 -3z" />
    <glyph glyph-name="p" unicode="p" horiz-adv-x="314" 
d="M182 424q7 0 16 -3t17.5 -8.5t15.5 -12t10 -12.5q38 -72 32 -118q-7 -44 -16 -84t-24.5 -75.5t-40.5 -65.5t-64 -54q-10 -6 -14.5 -19.5t-8.5 -27.5q0 -4 -2 -10q-5 -17 -9.5 -32.5t-11.5 -35.5l-3 -9q0 -2 -0.5 -4t-0.5 -4q-2 -5 -3.5 -11.5t-4.5 -10.5
q-14 5 -20.5 11.5t-8 14.5t0 17t4.5 18q2 5 2.5 9.5t1.5 8.5q7 43 14.5 86t15.5 85l24 138q2 15 3.5 29.5t3.5 29.5q2 23 5 45.5t9 44.5q5 17 20.5 36t32.5 23q1 1 4 1zM225 243q3 12 5.5 27t-0.5 30.5t-13.5 29.5t-33.5 25l-6 2l-47 -278l-1 -4l4 -1q5 -2 10 -3t10 -3l4 -1
l1 3q5 13 10.5 25t10.5 24q14 29 25.5 58t18.5 60z" />
    <glyph glyph-name="q" unicode="q" horiz-adv-x="270" 
d="M95 -172q-2 5 -1 11.5t2 11.5v7l1 10q1 20 1.5 36.5t2.5 33.5q0 2 0.5 4.5t0.5 5.5q2 14 2.5 28.5t-7.5 23.5q-28 35 -41 71.5t-15.5 75t3 79t14.5 82.5q9 46 70 99q8 7 22.5 11.5t28.5 4.5t21 -5q14 -10 22 -32.5t7 -39.5q-2 -23 -7 -45.5t-11 -44.5q-4 -14 -7.5 -28
t-5.5 -28q-7 -35 -13.5 -69t-11.5 -68q-8 -42 -16 -84.5t-16 -84.5q-2 -10 -2 -18q-1 -9 -2.5 -18t-5.5 -15.5t-12 -10.5t-22 -4h-2zM125 78l52 279l-6 -1q-25 -2 -40 -11.5t-23 -22.5t-11 -28t-4 -27l-1 -7q-4 -31 -2.5 -62t3.5 -62l2 -26t1 -26v-4z" />
    <glyph glyph-name="r" unicode="r" horiz-adv-x="353" 
d="M162 362q0 -6 -1 -9v-9l8 5q7 5 13.5 10t13.5 10q15 11 29.5 21t30.5 18q27 13 43 13q13 0 20.5 -10.5t13.5 -37.5q-5 -2 -11.5 -3.5t-12.5 -3.5q-16 -5 -31 -10.5t-26 -16.5q-69 -72 -103 -140q-10 -19 -15.5 -39.5t-10.5 -40.5q-4 -15 -8 -30.5t-9 -30.5q-3 -7 -7 -16
t-9.5 -17t-12 -14.5t-15.5 -7.5q-12 11 -17 21.5t-5 21t3 20.5t7 20q2 8 4.5 14.5t3.5 13.5q8 45 17.5 89t19.5 87q4 17 7.5 34t7.5 34q1 2 1 3t1 3q1 5 2 9t3 6q4 8 6 11q3 7 6.5 11.5t12.5 5.5q10 -2 12 -7t4 -12q2 -8 4 -12q2 -5 0 -14z" />
    <glyph glyph-name="s" unicode="s" horiz-adv-x="269" 
d="M42 117q-2 20 0.5 32t22.5 14h5q14 0 18.5 -9.5t6.5 -26.5q1 -5 1 -10.5t2 -10.5q3 -10 13 -17.5t20 -13.5l4 -2h1q2 0 6.5 3.5t8.5 8.5t10 13q16 23 18.5 43.5t-3.5 38.5t-17.5 34t-23.5 31q-5 6 -9 11.5t-8 10.5q-26 36 -34 61t6 54q9 17 32.5 29t50.5 12q31 0 47 -16
q5 -5 6 -18t-2 -21q-2 -5 -12 -9.5t-19 -6.5q-4 -1 -8 1.5t-9 4.5q-5 3 -10 5l-2 1l-17 -9l2 -4q1 -2 3 -8q2 -5 3.5 -9.5t4.5 -8.5q22 -32 38.5 -63t24 -62t5.5 -63t-17 -67q-5 -13 -15.5 -25.5t-23.5 -22t-27 -15t-26 -5.5h-4q-12 1 -25 10.5t-23.5 23t-17 29.5t-5.5 30
q0 5 -0.5 11t-1.5 11z" />
    <glyph glyph-name="t" unicode="t" horiz-adv-x="302" 
d="M48 32q-4 8 -7 12q-2 3 -1 9l2 12l1 3q11 54 21.5 108t21.5 108q10 51 20 101.5t20 101.5q2 7 2.5 14.5t1.5 15.5q1 5 1 9.5t1 9.5l1 5h-5h-22q-5 -1 -9 -1h-9q-7 0 -12.5 0.5t-10.5 1.5q-8 2 -15.5 9t-7.5 12t8 12.5t15 9.5h3q28 5 43.5 9t22.5 12.5t8.5 23.5t1.5 42v11
q-1 7 -0.5 14t2.5 13q4 7 12 13.5t14 6.5q5 0 13 -8.5t8 -13.5q1 -19 -1 -38t-4 -39q-1 -8 -1.5 -15.5t-0.5 -15.5l-1 -5h5h26q5 1 10.5 1h10.5q9 0 16 -0.5t13 -1.5t12 -4t12 -7q2 -2 3.5 -2.5t3.5 -2.5q-2 -2 -6 -8q-5 -7 -9.5 -12.5t-9.5 -7.5q-14 -5 -29 -6.5t-32 -3.5
q-6 -1 -12.5 -1.5t-13.5 -1.5l-3 -1l-1 -3q-4 -22 -8 -43t-8 -43q-10 -50 -20 -101t-18 -102q-5 -32 -8 -65.5t-6 -65.5l-2 -30t-3 -30v-3q0 -6 -2 -10q-3 -4 -5 -7.5t-4 -7.5q-3 -8 -7 -13.5t-15 -8.5q-12 6 -17 13.5t-10 15.5zM48 32q-4 8 -7 12q-2 3 -1 9l2 12l1 3
q11 54 21.5 108t21.5 108q10 51 20 101.5t20 101.5q2 7 2.5 14.5t1.5 15.5q1 5 1 9.5t1 9.5l1 5h-5h-22q-5 -1 -9 -1h-9q-7 0 -12.5 0.5t-10.5 1.5q-8 2 -15.5 9t-7.5 12t8 12.5t15 9.5h3q28 5 43.5 9t22.5 12.5t8.5 23.5t1.5 42v11q-1 7 -0.5 14t2.5 13q4 7 12 13.5t14 6.5
q5 0 13 -8.5t8 -13.5q1 -19 -1 -38t-4 -39q-1 -8 -1.5 -15.5t-0.5 -15.5l-1 -5h5h26q5 1 10.5 1h10.5q9 0 16 -0.5t13 -1.5t12 -4t12 -7q2 -2 3.5 -2.5t3.5 -2.5q-2 -2 -6 -8q-5 -7 -9.5 -12.5t-9.5 -7.5q-14 -5 -29 -6.5t-32 -3.5q-6 -1 -12.5 -1.5t-13.5 -1.5l-3 -1l-1 -3
q-4 -22 -8 -43t-8 -43q-10 -50 -20 -101t-18 -102q-5 -32 -8 -65.5t-6 -65.5l-2 -30t-3 -30v-3q0 -6 -2 -10q-3 -4 -5 -7.5t-4 -7.5q-3 -8 -7 -13.5t-15 -8.5q-12 6 -17 13.5t-10 15.5z" />
    <glyph glyph-name="u" unicode="u" horiz-adv-x="324" 
d="M120 4q-17 3 -32 11t-26 19t-16.5 24t-4.5 26q7 71 16.5 147.5t21.5 162.5q1 8 8.5 17.5t19.5 10.5q8 -1 13 -12t5 -18q-2 -19 -5 -37.5t-6 -36.5q-2 -14 -4 -27.5t-4 -27.5q-2 -10 -3.5 -20t-3.5 -20q-6 -29 -9 -59.5t11 -61.5q3 -8 7 -14.5t9 -12.5q2 -3 3.5 -6t3.5 -5
l3 -5l4 3q6 4 15 9t17.5 10.5t10.5 13.5q9 31 17.5 62t16.5 62q6 24 12 48.5t14 49.5q2 6 2 12.5t1 13.5q1 17 5.5 32t26.5 25q5 -3 9 -9q8 -17 5.5 -51t-11.5 -73.5t-21 -80t-22 -68.5l-9 -30l-6 -20t-7 -21q-23 -54 -87 -43z" />
    <glyph glyph-name="v" unicode="v" horiz-adv-x="309" 
d="M43 366q-1 3 -2 5.5t0 4.5l1 2v1q-5 29 26 44q12 -5 18 -16.5t8 -22.5q5 -35 8 -70.5t7 -73.5q2 -14 2.5 -28.5t2.5 -30.5l1 -10l7 8q24 26 39.5 65.5t28.5 77.5q12 37 24.5 66.5t29.5 34.5q16 -7 22 -22q8 -20 -2 -47.5t-22 -54.5q-5 -11 -10 -21.5t-8 -19.5
q-11 -35 -25.5 -69.5t-29.5 -68.5q-8 -15 -14.5 -31t-13.5 -32q-2 -4 -3 -9t-3 -10q-4 -15 -8 -24t-14 -9q-2 0 -8 2q-13 5 -23 27t-13 44q-6 50 -10 100l-8 100q-2 20 -3.5 40t-3.5 40q0 2 -0.5 4t-0.5 4z" />
    <glyph glyph-name="w" unicode="w" horiz-adv-x="419" 
d="M255 135l83 290h10q5 -5 7 -8q12 -14 20 -27.5t1 -34.5q-15 -47 -30.5 -97t-32.5 -110q-7 -23 -12 -49q-4 -14 -7 -28.5t-8 -28.5q-2 -8 -10.5 -16t-16.5 -11q-4 0 -12 6.5t-12 13.5q-9 18 -17.5 37t-18.5 41q-4 9 -8 18.5t-9 20.5l-4 9l-5 -9q-5 -11 -8.5 -20t-8.5 -18
q-9 -21 -17.5 -39.5t-18.5 -36.5q-1 -2 -2 -4.5t-2 -5.5q-4 -9 -8 -15.5t-15 -7.5q-16 7 -23 20t-8 24q-7 72 -11 143.5t-7 142.5q0 5 -2 15t-2.5 18.5t4.5 14.5q4 6 15 6h3q10 0 16 -6t9.5 -14.5t5 -16.5t1.5 -12q2 -29 5.5 -59t7.5 -61q2 -14 3.5 -27.5t3.5 -27.5l1 -12
l24 37q10 14 18 27t16 25q16 24 29 0q9 -15 17 -31t16 -33q4 -8 7.5 -16t7.5 -16z" />
    <glyph glyph-name="x" unicode="x" horiz-adv-x="359" 
d="M219 341q15 23 27 41.5t26 40.5q13 -7 28.5 -12.5t17.5 -14.5q3 -10 -6.5 -23t-15.5 -25q-11 -21 -24.5 -40t-21.5 -39t-7.5 -43.5t17.5 -52.5q9 -16 18.5 -36.5t12.5 -43t-5.5 -46t-35.5 -46.5q-11 4 -18 20.5t-11.5 39t-8.5 47t-10 42.5q3 2 0.5 0t-0.5 0
q-8 2 -10.5 6.5t-10.5 6.5q-10 -17 -19.5 -32t-18.5 -30q-8 -12 -17 -23t-14 -24q-3 -11 -9.5 -15.5t-14 -7.5t-15.5 -5t-14 -8q-5 8 -12.5 17t-5.5 14q6 16 15.5 30.5t19.5 28.5q19 29 41 57t34 60q8 23 4.5 51.5t-4.5 55.5q-1 10 -5 20t-2 18q3 11 11 20t15 19
q10 -8 19.5 -15t17.5 -17q5 -5 6.5 -14.5t5.5 -21.5z" />
    <glyph glyph-name="y" unicode="y" horiz-adv-x="287" 
d="M66 -170q-5 0 -14 3t-12 5q0 20 2 42.5t7 43.5q5 19 11.5 37.5t12.5 36.5q11 30 20 61.5t14 63.5q4 21 -1.5 42.5t-12.5 43.5q-3 10 -6 19.5t-5 19.5q-6 28 -12.5 56t-12.5 57l-13 57q22 3 35 2.5t22 -14.5t17.5 -45t21.5 -88l4 -17l11 40q3 9 5 16l4 14q2 5 3 8.5t3 8.5
l9 27q5 17 11 29.5t19 12.5q8 0 16 -4q17 -8 20.5 -21t-4.5 -38q-23 -70 -44.5 -139.5t-41.5 -138.5q-14 -47 -28.5 -92.5t-29.5 -92.5q-5 -14 -12 -28.5t-18 -27.5h-1z" />
    <glyph glyph-name="z" unicode="z" horiz-adv-x="334" 
d="M238 52q-39 -13 -79 -25.5t-81 -23.5q-6 -2 -18 3t-18 13q-2 3 0 14t7 19q17 29 33.5 57t33.5 56q16 26 32 53.5t33 54.5q5 8 8 17t6 20q2 5 3.5 11t3.5 12l3 8l-29 -7q-8 -2 -15 -3t-14 -3h-3q-9 -3 -19 -3q-6 0 -12 3t-8 17q-3 22 1.5 34.5t26.5 16.5q18 3 36 6.5
t35 7.5q11 2 20.5 4.5t19.5 4.5q32 6 41 -6q8 -11 0 -35q-11 -35 -25.5 -68.5t-30.5 -66.5l-10 -21q-10 -21 -20.5 -41.5t-21.5 -41.5q-5 -10 -10.5 -20t-11.5 -20l-5 -10l137 39q8 -23 6.5 -39t-3.5 -21l-26 -8z" />
    <glyph glyph-name="braceleft" unicode="{" horiz-adv-x="343" 
d="M185 483q-6 -27 -14 -52t-26 -47q-5 -6 -7.5 -16.5t2.5 -18.5q10 -16 12.5 -31t1 -30t-6.5 -29.5t-11 -29.5q-5 -14 -10 -27.5t-8 -27.5q-1 -4 -2 -7.5t-3 -8.5l-6 -15q-8 -29 -11 -46t5 -28q7 -11 21.5 -15.5t40.5 -9.5l-3 -9q-2 -12 -5.5 -19.5t-14.5 -10.5
q-2 0 -4 -0.5t-5 -0.5q-6 -2 -13.5 -3t-14.5 0q-23 3 -35.5 8.5t-18.5 13.5q-11 15 -2 53q7 34 18 67.5t23 65.5l10 30q4 11 6.5 22t0.5 21t-10 19t-24 17q-27 13 -30 30q-3 19 30 47q20 17 36.5 42.5t31.5 62.5q9 23 13 48t6 50l1 12q10 90 101 116q3 0 9 -2t13 -6.5
t13 -12t8 -18.5q-1 -1 -1.5 -2t-1.5 -2q-2 -4 -3 -5l-2 -2q-28 -5 -44.5 -16.5t-25.5 -26.5t-13 -33t-7 -35q-2 -10 -4 -19.5t-5 -18.5l-6 -22t-5 -22z" />
    <glyph glyph-name="bar" unicode="|" horiz-adv-x="173" 
d="M61 377q5 38 9.5 78t7.5 80q3 30 1.5 60t-3.5 59q0 10 -0.5 19t-1.5 18v18.5t5 14.5q3 3 9 3t9 -1q6 -1 12 -6t11.5 -11t9 -13t3.5 -12q-2 -128 -5 -252.5t-7 -238.5q-2 -32 -4.5 -64.5t-6.5 -62.5q-2 -20 -4.5 -31.5t-9 -18t-19 -9t-35.5 -4.5q0 16 -0.5 31t-0.5 31
q-1 37 -1 72.5t3 71.5q3 42 8 84z" />
    <glyph glyph-name="braceright" unicode="}" horiz-adv-x="292" 
d="M241 316q0 -3 -7.5 -10.5t-15.5 -10.5q-51 -18 -63 -47t5 -69q9 -23 3 -49.5t-21 -51.5t-36 -45t-42 -30q-1 -1 -9 0t-13 4q-1 2 -1.5 7t1.5 8q13 25 28 37q26 22 36.5 47t5.5 58q-9 77 1 142q4 27 11.5 53.5t15.5 52.5q3 11 6.5 22.5t6.5 22.5l9 30q8 30 16.5 59.5
t16.5 59.5q18 55 -38 79q-8 4 -16.5 11t-10.5 17q8 11 23.5 13t26.5 0q42 -11 60 -39q17 -27 8 -67q-8 -32 -18 -64.5t-21 -64.5q-5 -15 -9.5 -30t-9.5 -30q-3 -8 -5 -16l-4 -16l-7 -25l8 -3l15 -6q7 -2 13 -4t10 -6q9 -9 15 -20t6 -19z" />
    <glyph glyph-name="asciitilde" unicode="~" horiz-adv-x="471" 
d="M353 329q19 22 37 33q9 5 19 8t19 3q2 -5 3 -17q-1 -24 -11 -44.5t-25.5 -35.5t-34.5 -23t-38 -8q-17 0 -32 6q-51 20 -101 57q-23 17 -41 17q-16 0 -28.5 -8.5t-23.5 -18.5q-8 -8 -20.5 -14t-20.5 -6q-2 1 -6 4.5t-6.5 10t-1 17t9.5 26.5q20 36 49 46.5t78 -1.5
q29 -8 57.5 -23.5t55.5 -32.5l6 -4q23 -14 35.5 -8.5t20.5 16.5z" />
    <glyph glyph-name="exclamdown" unicode="&#xa1;" horiz-adv-x="222" 
d="M123 285q-3 -29 -6.5 -58.5t-6.5 -58.5q-1 -9 -1 -18v-17q1 -11 0.5 -21t-2.5 -21q-4 -21 -11 -41t-16 -37q-6 -11 -14 -11q-7 0 -10 12q-8 26 -13 50t-2 47q11 97 26 191t30 187q2 8 6 17t9 18q2 3 3.5 6.5t3.5 6.5l8 1q2 -3 3.5 -6t3.5 -5q5 -9 9 -17t3 -15
q-5 -53 -11 -105.5t-12 -104.5zM124 725q23 0 39.5 -14.5t17.5 -34.5q1 -19 -8 -28q-9 -10 -41 -12l-2 -9v9q-32 0 -42 12q-6 6 -5 18q-2 30 16 48q11 11 25 11z" />
    <glyph glyph-name="sterling" unicode="&#xa3;" horiz-adv-x="456" 
d="M93 23q-5 -5 -13 -7t-18 -4q-4 0 -7 -1v11q1 12 1.5 23t4.5 19q11 22 23.5 43.5t24.5 41.5l18 30t17 31q30 55 7 127q-2 7 -3.5 13.5t-3.5 14.5q-2 11 -5 22t-8 21q-6 13 -17.5 27t-25.5 19q-5 2 -9.5 2h-8.5h-9q-8 0 -13.5 3t-6.5 20q-1 22 8 31q10 11 41 11h10l-1 10
q-12 103 59 162q37 30 70.5 33t70.5 -21q11 -8 18 -27t8 -45q2 -28 -4.5 -50t-17.5 -30q-5 -5 -7.5 -5.5t-3.5 -0.5q-3 0 -4 14q-1 4 -0.5 7t1.5 8t1.5 11t-1.5 12q-3 15 -8.5 30.5t-16.5 23.5q-6 5 -19 5q-9 0 -20 -3t-16 -11q-11 -14 -20.5 -30.5t-19.5 -35.5
q-9 -15 -18 -33l-8 -13l15 -1q10 0 15 -1q16 -1 27.5 -2.5t19 -5.5t11.5 -11.5t4 -20.5q1 -17 -7 -21.5t-26 -6.5q-5 -1 -10.5 -1.5t-10.5 -2.5l-9 -2l2 -9q9 -37 17 -74.5t10 -75t-4.5 -75t-25.5 -74.5l-6 -10l12 -3q11 -2 21 -5t20 -5q23 -5 42.5 -9.5t39.5 -8.5
q33 -6 58 2q11 3 18.5 -2t15.5 -13l10.5 -10.5t13.5 -8.5v-3q-5 -3 -8.5 -6.5t-8.5 -7.5q-11 -10 -22 -18t-21 -8q-22 1 -43 5t-44 10q-17 4 -33 7.5t-33 5.5q-8 2 -14.5 2h-12.5q-53 0 -83 -39z" />
    <glyph glyph-name="copyright" unicode="&#xa9;" horiz-adv-x="494" 
d="M305 566q79 0 118 -53q25 -33 30 -81.5t-11 -101.5q-30 -95 -90 -133q-95 -60 -211 -14q-36 14 -55.5 40t-28.5 49q-17 41 -16.5 88t17.5 82q19 41 45.5 65.5t58 37.5t65.5 17t67 4h8h3zM237 225q54 0 87 21t50.5 52t23.5 66.5t6 64.5q0 35 -28 63q-19 19 -45 28t-52 5
l-11 -2q-20 -3 -39.5 -6.5t-39.5 -8.5q-26 -7 -47.5 -25t-36.5 -42.5t-21.5 -53t-1.5 -56.5q2 -15 18 -33.5t37.5 -34.5t45 -27t41.5 -11h13zM254 275q-65 0 -87 58q-9 24 -10 43t10 41q9 19 30.5 30t48.5 11q23 0 41 -8.5t28 -23.5q2 -4 2 -11t-2 -9q-4 -3 -11.5 -3
t-15.5 2q-7 0 -17 4q-8 2 -15.5 4t-15.5 0q-31 -5 -39 -25q-7 -13 2 -29l2 -3q7 -13 17.5 -26.5t28.5 -13.5q14 0 27 8q8 5 16 8t18 7q4 1 14 5q-12 -69 -72 -69v-5v5z" />
    <glyph glyph-name="logicalnot" unicode="&#xac;" horiz-adv-x="430" 
d="M263 270q-5 0 -7 4q-5 4 -5 15q1 19 7 37.5t13 37.5q3 7 7.5 12.5t11.5 13.5q6 7 15 18l6 8h-10q-16 -2 -30.5 -3t-28.5 -2q-42 -3 -78 -6t-72 -5q-23 -2 -38 8q-5 4 -9.5 13t-3.5 14q2 5 10 10.5t14 6.5q78 4 148.5 6t136.5 4h2q26 0 34 -15q9 -15 -7 -39
q-23 -32 -48 -64.5t-54 -64.5q-6 -9 -14 -9z" />
    <glyph glyph-name="registered" unicode="&#xae;" horiz-adv-x="507" 
d="M287 352l68 -51l-28 -40l-97 71l-1 -8q-1 -5 -1.5 -9t-0.5 -8q-1 -8 -1.5 -13.5t-2.5 -10.5q-4 -8 -15 -17q-3 -3 -5 -4l-5 5q-4 4 -7.5 8t-3.5 8q0 36 3 74q1 6 1.5 12.5t0.5 13.5v2q1 5 1 9.5t1 9.5q2 11 4.5 21t4.5 20l3 12q5 -1 11 -1.5t11 -1.5q16 -2 30.5 -5
t26.5 -11q17 -11 22 -31q3 -19 -8 -35q-2 -3 -5 -9zM375 553q43 -32 68 -87.5t23 -116.5q-2 -57 -25.5 -103t-68.5 -75q-28 -19 -62 -29t-69 -10q-27 0 -56 7t-55 22t-46.5 40t-31.5 61q-5 14 -6 28.5t-2 28.5q0 8 -0.5 14.5t-1.5 13.5q-12 121 96 194q15 11 34 15t40 7
q11 2 21.5 3.5t21.5 4.5q21 5 36 20q12 9 22 9q13 0 28 -14l12 -12l10.5 -10.5t11.5 -10.5zM357 230q59 60 54 172q-3 59 -39 91t-99 32q-7 0 -10 -1q-40 0 -75.5 -14.5t-61.5 -41.5q-23 -24 -34.5 -54t-10.5 -62q2 -42 17 -74t37.5 -53.5t50 -33t54.5 -11.5q35 0 64.5 13
t52.5 37z" />
    <glyph glyph-name="degree" unicode="&#xb0;" horiz-adv-x="282" 
d="M178 727q20 0 32.5 -8t19 -19.5t9 -24.5t2.5 -24q2 -35 -11.5 -61.5t-43.5 -49.5q-21 -17 -36.5 -26t-29.5 -9q-11 0 -25 6t-36 20q-5 4 -9.5 10.5t-6.5 14.5q-7 24 1.5 53.5t29.5 56.5q22 29 50 45t54 16zM197 652l-2 1l-4 4q-4 5 -9 9.5t-13 5.5q-23 3 -46 -21
q-11 -12 -16.5 -26.5t-3.5 -28.5q1 -10 11 -20.5t20 -12.5h3q11 0 21.5 7.5t19 20t14 28t5.5 31.5v2z" />
    <glyph glyph-name="guillemotright" unicode="&#xbb;" horiz-adv-x="483" 
d="M239 232q-4 1 -13 1q1 3 0.5 5.5t-0.5 4.5q0 7 0.5 13.5t3.5 9.5q11 13 23.5 23t26.5 20l9 7q11 8 22 15.5t22 15.5l12 8t13 9l5 3l-5 4q-8 7 -15 13t-15 12q-19 16 -36.5 30.5t-33.5 30.5q-10 8 -13 33q1 2 7 6.5t10 4.5h13q20 0 29 -6q14 -8 26.5 -17.5t24.5 -18.5
q16 -12 31.5 -23.5t32.5 -21.5q11 -7 17 -11.5t7 -9.5q0 -6 -17 -22q-14 -11 -26.5 -22.5t-25.5 -22.5q-26 -23 -52.5 -46.5t-53.5 -45.5q-5 -3 -13 -3q-4 0 -8 0.5t-8 0.5zM40 257q4 8 6 11q5 10 9.5 18t11.5 13q20 14 40 25.5t42 23.5q10 5 19 10t19 11l6 3l-5 4
q-7 5 -13.5 10t-13.5 10q-16 11 -31 22t-29 23q-4 3 -6 9t-4 13q-2 4 -2 8q3 2 6.5 3t6.5 3q8 3 14.5 5.5t11.5 2.5q3 0 4 -1q34 -21 64 -45t53 -44q18 -15 16 -26q0 -12 -21 -23q-23 -12 -46 -26.5t-45 -28.5q-10 -7 -19.5 -13t-20.5 -13q-2 -1 -3 -2t-3 -2
q-4 -3 -7.5 -5.5t-6.5 -2.5h-2q-11 0 -21 1l-20 2q-3 1 -10 1z" />
    <glyph glyph-name="Ntilde" unicode="&#xd1;" horiz-adv-x="436" 
d="M190 308q-2 7 -10 9q-4 2 -7 3l-12 5l-8 -63q-4 -26 -7.5 -52.5t-6.5 -52.5q-1 -6 -1.5 -12.5t-0.5 -13.5q-2 -26 -7 -49t-25 -42q-10 -9 -22 -19t-23 -18v-10v10q-8 0 -12 4q-9 17 -7 26q36 109 56 221t37 236q1 5 1 11v11v14.5t2 12.5q2 8 6 15t9 15q1 2 1.5 2.5
t1.5 2.5q1 -1 7 -5q8 -5 14 -11t8 -11q15 -48 27 -97t25 -103q5 -26 10 -51l10 -50q2 -12 4.5 -23.5t4.5 -22.5l2 -7l27 -4l1 10q1 8 2 16.5t2 17.5q2 18 4 36.5t3 36.5q2 30 2.5 59.5t1.5 59.5q1 35 1.5 69.5t2.5 69.5q1 12 6 24.5t10 24.5l1 2q3 3 10 3q4 -2 7 -6.5
t3 -7.5q2 -30 2 -58t-2 -55q-4 -56 -9.5 -111t-10.5 -106q-6 -53 -11.5 -101.5t-12.5 -96.5q-2 -20 -9.5 -24t-15.5 -3q-17 2 -24 9t-11 23q-9 43 -20 85l-22 84q-4 14 -7.5 29t-7.5 29zM395 707q-1 -1 -2 -1.5t-3 -2.5q-12 -7 -25.5 -12t-27.5 -10q-12 -4 -24.5 -8.5
t-26.5 -12.5l-14 -8l-33 -18q-19 -11 -39 -11q-29 0 -52 18t-28 44q-1 5 1.5 11.5t4.5 12.5q2 4 3 5q2 0 6 -2q6 -2 13 -5t8 -6q5 -14 13.5 -25t23.5 -11q9 0 19 4t24 12q24 13 51.5 25.5t56.5 21.5q8 -9 22 -10q11 -2 19.5 -5t10.5 -5z" />
    <glyph glyph-name="ntilde" unicode="&#xf1;" horiz-adv-x="364" 
d="M235 57q-3 -11 -10.5 -20t-16.5 -19l-7.5 -7.5t-6.5 -7.5l-9 1v11q0 9 0.5 17.5t1.5 16.5q5 32 10.5 64t10.5 64l12 72t11 72q1 10 -2 23q-2 8 -2 12l-1 6l-5 -2q-22 -8 -36 -21t-23.5 -28.5t-15.5 -33.5l-12 -36l-6 -21q-5 -17 -9 -34.5t-8 -34.5q-4 -18 -8 -36.5
t-9 -35.5q-5 -13 -13 -24.5t-17 -22.5q-4 -5 -7.5 -9.5t-7.5 -9.5h-3q-4 0 -5 2v7.5t-1 8.5v18.5t1 18.5q9 59 18 117t18 115l7 46q1 3 1 6t1 5l2 16t5 14q4 7 9.5 13t11.5 12l7 7q13 -14 31 -14q8 0 17 2.5t17 6.5t16.5 6.5t16.5 2.5q49 -5 49 -53q1 -53 -0.5 -94.5
t-5.5 -79.5q-8 -76 -27 -139zM322 551q3 -3 1 -8q0 -3 -1 -4t-1 -2q-11 -7 -23.5 -13.5t-24.5 -12.5q-5 -2 -8.5 -4t-7.5 -4l-12 4t-11 4q-12 5 -22.5 8.5t-20.5 8.5q-11 5 -22 9t-22 4q-17 0 -35 -12q-2 -2 -8 -2q-4 0 -8 0.5t-9 1.5q-3 0 -6 0.5t-5 0.5v8q0 6 0.5 11.5
t3.5 9.5q8 11 29 17.5t47 6.5t42 -8q10 -4 14 -6q14 -7 28 -12.5t30 -5.5q14 0 33 7h1q5 0 10.5 -2.5t7.5 -4.5z" />
    <glyph glyph-name="endash" unicode="&#x2013;" horiz-adv-x="401" 
d="M247 381q26 -2 56 -4.5t61 -7.5q5 -1 11 -5.5t11 -9.5l4 -4q-1 -2 -5 -6q-5 -6 -11 -11.5t-11 -6.5q-21 -4 -43 -5t-44 -1h-21q-30 -1 -60 -1t-60 -1h-46.5t-46.5 -1h-6q-18 0 -26.5 4.5t-9.5 20.5q-1 18 7.5 22t28.5 6h3l56 4t61 5l63 4q6 -1 13 -1t15 -1z" />
    <glyph glyph-name="emdash" unicode="&#x2014;" horiz-adv-x="471" 
d="M288 381q26 -2 56 -4.5t61 -7.5q5 -1 11 -5.5t11 -9.5l4 -4q-1 -2 -5 -6q-5 -6 -11 -11.5t-11 -6.5q-21 -4 -43 -5t-44 -1h-21q-30 -1 -60 -1t-60 -1h-46.5t-46.5 -1h-6q-18 0 -26.5 4.5t-9.5 20.5q-1 18 7.5 22t28.5 6h3l56 4t61 5l63 4q6 -1 13 -1t15 -1z" />
    <glyph glyph-name="bullet" unicode="&#x2022;" horiz-adv-x="113" 
d="M24 199q-12 13 -19 28.5t-6 29.5q1 21 20 35.5t46 14.5q23 0 35 -17q13 -20 13 -63q-2 -18 -9 -33t-30 -17q-12 -2 -25.5 4.5t-24.5 17.5z" />
    <glyph glyph-name="fraction" unicode="&#x2044;" horiz-adv-x="277" 
d="M48 13q-3 8 -5.5 15.5t-1.5 12.5q15 69 31 137.5t32 135.5q8 30 14.5 60t13.5 59l21 90q11 45 21.5 91t21.5 92q2 6 9.5 12t14.5 8q2 0 6 -4l6 -6q4 -4 5 -6l-10 -57q-5 -30 -10.5 -58.5t-10.5 -57.5q-7 -35 -13.5 -68.5t-13.5 -68.5l-24 -120t-23 -121
q-2 -11 -2.5 -22.5t-1.5 -22.5q-1 -14 -1.5 -26.5t-4.5 -24.5q-2 -8 -9.5 -14.5t-16.5 -13.5q-3 -2 -6.5 -5t-6.5 -5h-3q-8 0 -11 -2q-5 -2 -7.5 -5.5t-4.5 -6.5t-6 -7z" />
    <glyph glyph-name="Euro" unicode="&#x20ac;" horiz-adv-x="415" 
d="M322 593q-3 9 -4.5 19t-3.5 21q-1 6 -1.5 11.5t-1.5 11.5l-2 10l-10 -3q-40 -10 -59.5 -36.5t-34.5 -56.5q-10 -19 -20 -37l-9 -13l114 -8q-9 -17 -20.5 -27.5t-24.5 -16t-26.5 -8t-28.5 -3.5q-9 -2 -16 -8t-13 -14l-10 -10l-5 -5l14 -24l5 1q5 1 10.5 1t10.5 1
q13 2 24.5 3.5t22.5 -0.5q5 -1 10 -5t10 -9q2 -1 2.5 -2t2.5 -2q-1 -2 -2 -3t-2 -3q-4 -6 -7.5 -11.5t-7.5 -7.5q-14 -5 -28.5 -8.5t-32.5 -7.5q-8 -2 -16.5 -4t-18.5 -4l-8 -2l22 -252l10 2q25 5 40 15t24 23t12.5 27.5t5.5 28.5q0 3 0.5 6.5t0.5 7.5q2 24 7.5 38.5
t26.5 16.5q33 -133 -66 -224q-22 -21 -38.5 -18.5t-36.5 29.5q-16 22 -25 45t-13.5 48t-6 50.5t-2.5 52.5v13q-1 14 0 29t3 29q0 6 0.5 12.5t1.5 13.5v5l-7 5q-4 3 -8 5q-6 2 -11 2q-4 0 -7 -0.5t-7 -0.5q-4 -1 -11 -1h-6q-1 0 -1 1q-3 3 -3 12q0 5 8 12.5t16 14.5q5 4 9 7
t8 7q6 6 12 11.5t13 11.5l12 11l5 6l-13 20l-5 1h-6h-8q-9 0 -12 2q-9 5 -15.5 11t-7.5 8q2 8 8.5 16.5t8.5 9.5q18 -2 30.5 2.5t21 13t14.5 20t12 23.5l5 10q38 79 92 135q19 19 43 19q17 0 33 -10.5t25 -29.5q18 -38 25 -101q2 -19 -7.5 -25.5t-31.5 -10.5q-3 7 -6.5 19.5
t-6.5 24.5z" />
    <glyph glyph-name="trademark" unicode="&#x2122;" horiz-adv-x="584" 
d="M515 549q-4 -20 -15.5 -31t-36.5 -16v99l-7 -7q-26 -23 -42 -23q-12 0 -22 15t-19 48l-3 10l-5 -9q-5 -9 -10 -17.5t-10 -16.5q-12 -20 -23 -38.5t-24 -35.5q-8 -9 -21 -14.5t-24 -8.5q-4 3 -10 13t-6 13l10 17q20 36 42 72t48 68q27 34 44 34t39 -48q2 -4 3 -8t3 -9
q1 -2 1.5 -5t2.5 -6l2 -7l5 5l9 9t8 9l17 17t16 15q11 8 29 13q2 1 4.5 2t5.5 2q4 -10 6 -14q5 -11 9 -20t2 -18q-2 -15 -6 -30.5t-9 -29.5q-4 -12 -7.5 -24.5t-5.5 -24.5zM96 505q-4 -3 -7.5 -6t-7.5 -7q-10 29 -4.5 52.5t14.5 46.5q5 14 9.5 27.5t6.5 28.5l1 6l-6 -1
q-4 -1 -7 -1.5t-6 -0.5q-10 -3 -14 -2q-8 3 -14.5 7t-13.5 9q-2 1 -3.5 2t-3.5 2q2 2 3.5 4t3.5 4q5 7 11 12.5t12 7.5q50 14 99 17q17 2 34 1l34 -2q7 -1 13.5 -1.5t13.5 -0.5l3 -15q-4 -2 -7.5 -4t-7.5 -4q-24 -11 -42 -25q-27 -24 -49 -57q-5 -8 -8.5 -16.5t-6.5 -16.5
q-4 -9 -7.5 -17.5t-8.5 -15.5q-6 -9 -14.5 -17t-19.5 -17z" />
    <glyph glyph-name="minus" unicode="&#x2212;" horiz-adv-x="471" 
d="M288 381q26 -2 56 -4.5t61 -7.5q5 -1 11 -5.5t11 -9.5l4 -4q-1 -2 -5 -6q-5 -6 -11 -11.5t-11 -6.5q-21 -4 -43 -5t-44 -1h-21q-30 -1 -60 -1t-60 -1h-46.5t-46.5 -1h-6q-18 0 -26.5 4.5t-9.5 20.5q-1 18 7.5 22t28.5 6h3l56 4t61 5l63 4q6 -1 13 -1t15 -1z" />
  </font>
</defs>
</svg>
