<?xml version="1.0" standalone="no"?>
<!DOCTYPE svg PUBLIC "-//W3C//DTD SVG 1.1//EN" "http://www.w3.org/Graphics/SVG/1.1/DTD/svg11.dtd" >
<svg xmlns="http://www.w3.org/2000/svg" xmlns:xlink="http://www.w3.org/1999/xlink" version="1.1">
<metadata>
Created by FontForge 20170731 at Sat Apr  9 18:38:31 2016
 By Aleksey,,,
2016 | All Rights Reserved
</metadata>
<defs>
<font id="SummerHearts-Regular" horiz-adv-x="600" >
  <font-face 
    font-family="Summer Hearts"
    font-weight="400"
    font-stretch="normal"
    units-per-em="1000"
    panose-1="0 0 5 0 0 0 0 0 0 0"
    ascent="800"
    descent="-200"
    x-height="679"
    cap-height="814"
    bbox="-130.667 -334.5 979.571 1131.5"
    underline-thickness="50"
    underline-position="-200"
    unicode-range="U+0020-2212"
  />
<missing-glyph horiz-adv-x="500" 
d="M410 800v-1000h-317v1000h317zM333 733h-165v-33h65v-37h-66v-33h166v33h-66v37h66v33zM267 604h-100v-104h166v34h-66v70zM233 570v-36h-33v36h33zM333 473h-166v-33h66v-37h-66v-33h100v70h66v33zM333 413h-33v-66h-133v-34h166v100zM333 291h-100v-56h34v23h33v-47
h-100v80h-33v-113h166v113zM333 118h-166v-113h166v113zM300 85v-47h-100v47h100zM333 -18h-166v-33h70l-70 -47v-33h166v33h-102l70 47h32v33z" />
    <glyph glyph-name=".notdef" horiz-adv-x="500" 
d="M410 800v-1000h-317v1000h317zM333 733h-165v-33h65v-37h-66v-33h166v33h-66v37h66v33zM267 604h-100v-104h166v34h-66v70zM233 570v-36h-33v36h33zM333 473h-166v-33h66v-37h-66v-33h100v70h66v33zM333 413h-33v-66h-133v-34h166v100zM333 291h-100v-56h34v23h33v-47
h-100v80h-33v-113h166v113zM333 118h-166v-113h166v113zM300 85v-47h-100v47h100zM333 -18h-166v-33h70l-70 -47v-33h166v33h-102l70 47h32v33z" />
    <glyph glyph-name=".null" horiz-adv-x="0" 
 />
    <glyph glyph-name="nonmarkingreturn" horiz-adv-x="333" 
 />
    <glyph glyph-name="space" unicode=" " horiz-adv-x="350" 
 />
    <glyph glyph-name="exclam" unicode="!" horiz-adv-x="575" 
d="M471 870q6 -15 2 -24q-2 -4 -3 -12.5t-2 -11.5q-2 -9 -8 -35q-3 -10 -5 -12q-4 -4 -6 -15l-12 -49q-3 -9 -7.5 -26t-6.5 -25t-6.5 -24t-6.5 -24l-3 -6q-3 -3 -8 -18q-10 -29 -13 -37q-7 -14 -10 -37v1q-7 -3 -7 -9q0 -2 -0.5 -4t-1 -3.5t-1.5 -3.5t-1 -3q-10 -24 -14 -36
q-2 -4 -3.5 -12t-3.5 -12q-19 -43 -20 -48q-4 -13 -11 -28l-18 -38q-14 -34 -20 -51q-8 -22 -26 -66l-3.5 -10.5t-3.5 -11.5q-9 -25 -19 -47q-18 -42 -22 -47q-6 -7 -6 -18q-3 1 -10.5 2t-10.5 5q-4 0 -6.5 2t-5.5 6t-4 5q-7 9 -1 17q3 4 8 20q1 3 1.5 13.5t-0.5 13.5v5
q4 -2 6 -4q5 -5 5 1l2 4q1 1 1 2q1 3 -2 4q-6 0 -7 5q0 9 5 14q6 4 2 9q-2 3 -2 13q2 2 4 2q1 0 3 -0.5t3 -0.5q1 3 -0.5 8.5t-1.5 8.5t4 2q4 -4 4 2q-2 11 -0.5 14.5t10.5 8.5l3 4q-4 2 -2 8t1 8q-2 8 6 22h-1q1 1 3 0q3 0 3 1v3q-3 16 8 30q10 12 11 16q0 3 4 3q4 -1 4 1
q0 1 -1 4q-6 11 2 16q6 2 4 6q-1 2 -1 6q6 16 10 23q0 1 3 1q4 -1 5 0.5t-1 4.5q-5 9 2 16q1 1 1 4l1 3q1 2 2 6t2 6q1 4 5 4h8v5q-8 6 -3 17l6 12l3 12q1 2 4 11q0 1 2 5.5t1 7.5q0 1 -0.5 1t-0.5 1l1 -1q4 6 7 6h4q4 0 3 4l-2 2q-1 -1 -2.5 -3t-2.5 -3q-1 6 6 26l6 18
q0 6 4 7q2 1 2 6q-1 13 7 25q1 2 1.5 9t4.5 9q1 1 1 5q-1 7 4 14q3 5 4.5 15.5t3.5 14.5v13q9 15 6 32q-2 6 3 11v1q3 -2 3 2q2 1 0.5 5t-0.5 5q4 9 4 10v2q1 0 1 1q1 12 7 34t7 29q1 4 3 22t5 27q1 2 0 5t-1 4q-1 9 8 12q10 5 39 5q8 -1 20 -8.5t15 -8.5q1 0 3 -4zM351 613
v3h-1l-2 -1q-2 -1 0 -3q3 -2 3 1zM346 592v3h-2q-3 -3 0 -4zM329 538q2 8 4 13q-8 -6 -9 -11q0 -2 2 -2h3zM325 525q0 4 -1 4q-3 1 -3 -2v-5q1 0 4 3zM317 508v2q-2 0 -3 -1l1 -2q2 -2 2 1zM312 497l1 1h-1l-1 -1h1zM303 462q0 3 2.5 11t0.5 15l-7 -24l1 -1v-2q3 -1 3 1z
M292 436q4 8 7 17q-1 1 -1 2q-1 -2 -5 -7.5t-6 -8.5q0 -2 1 -3q2 -2 4 0zM283 444q-1 0 -1 -1zM278 407h2l-1 1zM263 368q1 0 1 2l-1 2q-1 0 -1 -1v-1zM262 366l1 1h-2zM201 210q4 12 4 21q-7 -5 -9 -20q0 -2 2 -2q1 -1 3 1zM192 190q1 1 1 2h-2zM165 157l1 1v-2zM119 -68
q16 -7 26 -19q11 -12 8 -28t-10 -26q-5 -11 -5 -14q1 -6 -7 -12q-13 -13 -29 -8q-11 -1 -44 13q-8 4 -8 14q2 16 4 23q1 4 4 11.5t5 13.5t3 11q7 18 20 25q13 6 33 -4z" />
    <glyph glyph-name="quotedbl" unicode="&#x22;" horiz-adv-x="451" 
d="M348 899q4 -9 3 -14q-4 -67 -21 -112q-7 -15 -8 -29q-2 -18 -16 -50l-6 -14q-2 -4 -6 -2q-2 3 -9 1.5t-9 -1.5q-16 2 -19 15q-11 41 -10 77q2 49 9 73q5 19 11 57q1 4 1.5 12.5t0.5 13.5q27 13 54 -6q21 -14 25 -21zM199 907q10 -10 10 -23l-3 -26q-12 -56 -18 -85
q-4 -22 -6 -47q-1 -5 -5 -20q-3 -16 -25 -20q-21 -3 -41 12q-5 3 -5 9l-3 12q-2 7 -1.5 18.5t-0.5 18.5q-3 28 6 73q7 43 11 70q2 10 1 15q-1 8 7 13q8 4 18 4q35 -5 55 -24z" />
    <glyph glyph-name="numbersign" unicode="#" horiz-adv-x="791" 
d="M439 405q1 11 6 22q2 6 10.5 17.5t10.5 19.5q5 14 18 17q14 6 16 6q11 3 25 8q41 16 72 21q19 5 23 7q7 5 41 12q17 2 27 7q36 18 46 31q1 2 5 4t2 5q-1 2 -5 4q-6 1 -34 -4q-101 -16 -184 -34q-18 -4 -27 -5q-5 -2 -7 0.5t0 7.5q3 10 7.5 35.5t9.5 38.5q1 4 -1 10
q-9 38 -46 50q-25 9 -31 -17q-1 -1 -1 -4q-5 -29 -13 -50q-2 -8 -5.5 -23t-3.5 -17l-12 -44q-3 -13 -13 -15q-44 -12 -57 -13q-10 -2 -15 -2q-3 -1 -4.5 1.5t-0.5 5.5q3 9 11 27q14 38 15 49q1 19 6 37q5 13 2 27q-2 9 -6 12q-31 24 -44 26q-10 2 -26 -6q-8 -4 -10 -18
q-2 -11 -6.5 -31t-6.5 -28l-12 -42q-12 -47 -13 -59q-2 -11 -10 -9q-7 1 -22.5 2t-27 2.5t-21.5 5.5l-32 3q-9 1 -20 -12q-5 -10 3 -16q22 -15 32 -17q7 -1 19 -5q34 -11 46 -12q1 -1 5 -1t5 -1q9 -1 7 -9l-1 -7q-14 -48 -20 -73q-3 -12 -15 -15q-30 -8 -69 -6q-10 1 -28 1
q-7 0 -8 -6q-5 -23 14 -34q1 -1 5.5 -3.5t7.5 -3.5q28 -18 50 -16q9 0 13 -1q9 -1 7 -10q-12 -42 -9 -86q0 -8 8 -14q4 -3 14 -5t14 -6q7 -6 16 1q14 12 15 25q4 31 10 46q4 8 7 24t5 22q6 18 20 21q10 4 15 5q30 6 56 15q10 3 10 -7q-1 -4 -3 -21t-5 -26q-2 -7 -3.5 -15.5
t-3 -18.5t-2.5 -15q-7 -25 2 -50q5 -3 16 -2.5t15 -4.5q2 -2 4 3q4 7 10 6q5 0 6 4q0 3 2 11q1 4 6.5 17.5t7.5 20.5q4 15 12 42t9 32q3 16 4 17q6 10 12 32q3 8 11 12q7 3 21 8t17 6q33 10 55 19l7 1q31 2 39 17q8 1 15 17q2 5 0 7.5t-7 1.5q-14 -1 -43 -4.5t-45 -5.5
q-4 0 -21.5 -3t-27.5 -2zM361 440q-6 -32 -13 -49q-3 -7 -9 -8l-71 -18q-4 -1 -6 1.5t-1 6.5q12 39 13 52q2 11 13 13l66 9q7 0 8 -7z" />
    <glyph glyph-name="dollar" unicode="$" 
d="M434 736q-2 0 -2 -1q-1 -3 2 -1l8 2q-5 -12 -9 -14q-3 -1 -4.5 -3.5t-2 -6.5t-1.5 -5q-2 -5 5 -8q3 -2 22 -13q20 -12 37 -36q4 -5 8 -15q3 -12 -4 -18q-8 -7 -18 -3l-61 21q-7 3 -17 3q-1 0 -4 -1t-4 -2q-3 -3 -15.5 -15t-17.5 -21q-2 -2 -2 -3q1 -5 -0.5 -9t-4.5 -8.5
t-4 -7.5q-3 -3 -3 -7q2 -8 -4 -9q-6 -4 -8 -7q-11 -18 -10 -24.5t19 -19.5q32 -23 60 -62q18 -31 20 -36q15 -33 -9 -67q-23 -32 -67 -61q-6 -4 -18 -10.5t-17 -10.5q-8 -6 -16 -6q-5 0 -6 -1q-4 -6 -10.5 -9.5t-15.5 -6.5t-13 -5q-8 -4 -23 -9.5t-19 -7.5q-22 -8 -41 -12
q-20 -4 -25 -16q-1 -2 -3 -2t-3 3q-3 6 -5 2q-13 -18 -22 -32q-3 -4 4 -9q-5 -4 -11.5 -14.5t-11.5 -14.5q0 -7 -6.5 -18.5t-6.5 -18.5q0 -10 -7 -12q-3 -1 -6 -13q-4 -20 -20 -45q-5 -7 -10 -4q-3 1 -10.5 -0.5t-10.5 0.5q-5 14 -2 32q8 38 26 80q3 7 11.5 27t13.5 31
q1 1 1 6q0 1 -6 1q-3 -4 -24 -2.5t-25 1.5q-18 -1 -74 15q-7 3 -9 4q-15 13 -27 13q-9 -1 -13 12q-5 9 -10 22q-4 6 -2 10q3 6 2.5 16t0.5 16q3 30 19 50q13 14 39 44q6 6 14 9q7 3 16.5 0.5t12.5 -9.5q0 -1 3 -19q2 -8 -7 -8q-12 -1 -18 -14q-16 -29 -15 -53q0 -2 -2 -17
t1 -17q3 -9 11 -12q40 -9 58 -5q10 3 32 3q20 0 32 6q5 4 12 2q12 -1 20 11q6 9 7 11q62 112 92 169q7 13 31 60l6 16q-16 12 -25 18q-10 7 -24.5 22.5t-17.5 18.5q-3 4 -7 14q-3 10 -11 30q-4 2 -3 18t1 18q0 4 6 6q20 8 22 9q49 17 80 25q30 7 64 12q11 2 15 10
q12 19 74 132q15 30 30 42l6 9q8 12 19 4q26 -17 35 -40q3 -7 1 -15q-8 -20 -8 -31q0 -2 -2 -4q-6 -7 -14 -23t-13 -22q-4 -5 -11 -16.5t-12 -16.5q-2 -1 -4.5 -1h-3.5zM418 705q1 0 2 1l-1 1h-2q-2 -2 1 -2zM223 579q9 -9 29 -21q6 -3 9 4l24 48v4q-2 2 -3 2
q-3 -1 -8.5 -1.5t-10 -1.5t-7.5 -3q-4 -2 -15.5 -8.5t-17.5 -11.5q-7 -4 0 -11zM343 604q4 2 2 10q-2 -6 -2 -10zM342 603v-1v1zM338 590q2 0 -1 3l-2 -2v-5q2 2 3 4zM332 571q0 2 0.5 6.5t1.5 6.5q-7 -5 -2 -13zM324 564q3 0 7 6q-6 2 -9 -1l-1 -3q2 -2 3 -2zM354 434
q-22 28 -49 42q-5 4 -10 -3l-4 -8t-4.5 -8.5t-3.5 -7.5q-5 -12 -16 -11q-2 0 -6 -2q5 3 11 13l-1 1q0 1 -2 1q-7 -3 -8 -15q10 -7 8 -11t-5.5 -12.5t-7 -15t-8.5 -11.5l-27 -51q-6 -10 -8 -16q-5 -16 -19 -17q-5 0 -3 -4l3 -6q4 -3 12 -3q-6 -2 -9 -4q-1 -1 -1 -4q0 -2 3 -2
q11 3 21 11h-12h-1q6 5 15 3q-1 -1 -1 -2q19 2 26 13v-1q9 1 40 20q5 5 5 7q0 3 1.5 5t4.5 4.5t4 3.5q40 29 54 60q7 16 -2 31zM276 461v2h-2v-2h2zM257 420h-3v-2l2 2h1zM251 404q-3 0 -3 -2v-3q0 1 1 1l1 2q1 1 1 2zM247 398q-9 2 -10.5 0t1.5 -11q6 0 9 -1v12zM237 386
q-8 -8 -6 -13q8 6 6 13zM227 373q-3 0 -1 -3h1q1 0 3 2h-1q-1 1 -2 1zM220 359l2 -2q2 0 5 3l-3 3zM214 345q-6 1 -6 -6q0 -2 2 -6q3 1 4 4q4 4 3 7q0 1 -3 1zM201 332q-2 0 -2 -3q0 -4 4 -4l6 8q-2 -1 -4.5 -1h-3.5zM244 310l1 -1zM245 310v-1v1zM242 304q-2 2 3 5
q0 -1 2 -5h-5zM208 290q-1 0 -2 -1q1 1 2 1zM110 140q-1 -1 -1.5 0t0.5 2t1 4v-4v-2z" />
    <glyph glyph-name="percent" unicode="%" horiz-adv-x="774" 
d="M717 790q7 -17 7 -36q0 -10 -6 -16q-30 -30 -44 -45l-41 -50q-6 -8 -18 -22q-6 -6 -5 -9q0 -10 -8 -11l-3 -5q0 -6 -7 -6q-3 1 -5 -1t-1 -5q1 -4 -0.5 -7t-4 -6.5t-3.5 -5.5q-2 -3 -7 -4.5t-6 -3.5q3 -4 -1 -7.5t-4 -5.5q0 -3 -3 -3q-7 1 -11 -2.5t-7 -10t-5 -8.5
q-1 -1 -0.5 -5.5t-1.5 -4.5q-4 0 -7 -4.5t-5 -4.5q-15 -4 -15 -20q-1 -7 -9 -15l-7 -3.5t-7 -4.5q5 -6 -4 -12q-4 -1 -9 -14q-4 -5 -18 -10q-10 -5 -10 -13q0 -16 -12 -17q-3 -2 -3 -5q1 -5 -3.5 -8.5t-5.5 -4.5q-3 -6 -12 -6q-6 0 -6 -5q-1 -5 -10 -17q-5 -5 -3 -11
q2 -11 -12 -13q-8 0 -10 -6q2 1 4 -0.5t1 -3.5q-1 -1 -3.5 -5.5t-4 -6t-4 -4.5t-5.5 -4.5t-7 -1.5q-3 0 -2 -3q4 -8 3 -10.5t-6.5 -6.5t-6.5 -7q-1 -2 -6 -7t-6 -10q-2 -5 -7 -2q-3 1 -11 -1q-6 -1 -2 -7q1 -2 3 -4h1q1 -1 2 -1q-3 0 -4 1q-4 -13 -17 -19q-5 -2 -4 -6
q0 -2 7 -4l1 -1l1 1v-1q-2 -1 -7 -2t-8 -2t-7 -3.5t-6 -6.5q-1 -2 -6.5 -3t-7.5 -5q2 -3 8.5 -2t7.5 -4q-1 -2 -10 -5q-1 -1 -7 -3.5t-8 -4.5q-7 -7 -10 -18q-1 -3 1 -3.5t4 0.5q1 -10 -9 -15q-6 -1 -11 -5v1v4q-4 -1 0 -4q-4 -4 -7 -5q-7 -4 1 -10h-1q-1 0 -1 -1
q-12 -10 -15 -14q-1 -3 0 -3q1 -1 4 0l1 -1h-1q-2 -12 -18 -19q-6 -2 -9 -5h1q-8 -11 -8 -12t3 -4.5t-1 -4.5q-1 -1 -3 -3.5t-3.5 -4.5t-4 -3.5t-5.5 -1.5q-4 0 -6 -1.5t-1 -4.5q2 -10 0 -13q-1 -2 -3.5 -6.5t-4.5 -6.5q-10 -7 -11 -9q-7 2 -15 10q-5 8 -13 11t-19.5 13
t-14.5 12q-7 5 -8 12q-7 19 16 31q12 6 24 28q-2 2 -2 3q0 5 6 5q10 1 10 13q-1 8 14 21q0 -2 1 -2q3 -1 3 3v-1l5 5l4 4q1 1 4 4.5t3 5t-1 6.5q-2 3 6 11q12 17 38 49.5t38 48.5l69 94q13 17 39 49l63 78q10 11 29.5 34t29.5 35q17 20 51 62q11 13 32 37.5t23 26.5l36 43v4
q-1 1 -4 1q-5 -2 -10 -5q-9 -9 -39 -17q-8 -2 -24 -10q-23 -10 -50 -18l-8 -2q-9 -2 -13 -4l-53 -20q-7 -2 -8 -4t0 -10q2 -29 -5 -52q-9 -25 -20 -40q-23 -31 -47 -51l-23 -23q-13 -15 -50 -23q-7 -2 -13 1q-33 14 -37 17q-10 8 -17 8q-10 0 -16 13q-9 16 -5 40q6 30 11 44
q8 22 15 31q10 11 6 30q-1 4 2 7q6 4 16.5 12.5t19.5 15t17 10.5q16 9 21 14q7 7 14 6q4 0 13.5 1.5t14.5 0.5q6 -3 18 -1t17.5 3t17 5t16.5 5q63 19 90 25q4 1 85 24q24 7 74 17q7 1 26 5q13 2 18 15q3 9 11 6q2 0 5 -1t4 -1q23 -3 34 -29zM278 674v-1l-1 -1l1 -1l1 1
q0 1 -1 2zM316 618q4 8 4 10t-2 4h-4l-1 -1q-42 -33 -69 -71q-9 -11 -10 -25q37 30 41 34t13.5 14.5t16 18t11.5 16.5zM646 308q1 -7 5 -16q14 -34 -9 -73q-30 -46 -80 -75q-6 -3 -18.5 -9t-16.5 -8q-3 -1 -19 -1q-12 -3 -27 6q-39 21 -43 24q-36 27 -32 70q5 49 28 86
q23 36 54 55q15 9 31 6q1 0 3.5 -0.5t4.5 -0.5q3 -1 8.5 -2.5t10 -3t8.5 -3.5q3 -2 10.5 2.5t12.5 1.5q20 3 41 -16q18 -15 28 -43zM360 313l1 1h2q0 1 1 1q-1 1 -3 1q-1 0 -1 -3zM576 257q11 17 12 23.5t-4 26.5l-2 2q-19 -3 -33 -13q-18 -15 -34 -31q-26 -28 -27 -49
q0 -2 -1.5 -7t-2.5 -8q-2 -6 -0.5 -7.5t8.5 -2.5q8 -1 16 5q34 24 50 37q3 2 7 8q2 2 5.5 7.5t5.5 8.5zM119 148l1 -1zM242 143l1 -2h-2l1 1v1zM241 141q-4 -2 -6 -1q1 0 3 0.5t3 0.5zM207 104v1q1 0 2 1q1 -2 0 -3z" />
    <glyph glyph-name="ampersand" unicode="&#x26;" horiz-adv-x="632" 
d="M140 -212q0 -29 8 -63q6 -20 21 -32q6 -4 10 -5q8 0 17 7t12 15q4 10 14.5 34t16.5 38q19 46 23 62q11 38 29.5 111.5t21.5 84.5q9 38 11 88q2 33 -16 46q-20 13 -20 52q0 7 2 21q0 3 -8 11q-8 6 -20 1q-41 -19 -63 -34q-3 -2 -9.5 -8.5t-12.5 -8.5t-14 0q-4 8 1.5 22
t5.5 16q4 40 51 57q8 3 24 5q39 5 46 7q23 5 25 17q1 15 19 45q18 28 -14 47q-20 11 -43.5 9t-37.5 -16q-11 -15 -19 -15q-11 -1 -31 -5.5t-28 -5.5q-15 -3 -23 12q-14 33 -15 58q0 12 3 33.5t3 30.5q3 83 41 153q18 34 26.5 41t42.5 16l1 1h2q15 3 20 -10q16 -39 46 -67
q15 -13 12 -29q-3 -11 8 -37q4 -11 13.5 -12.5t16.5 7.5q4 5 11 16t13.5 19.5t14.5 13.5q2 1 5 9q5 13 15 20q10 6 18 26q1 1 4 8t5 11q32 55 69 140q18 41 57 142q12 30 11 60q0 41 -32 54q-3 2 -12.5 8t-14.5 8q-2 1 -5.5 4t-6 4t-6.5 0q-11 -5 -15 -15q-2 -6 -7 -17
t-6 -12q-14 -34 -20 -50q-63 -147 -93 -250l-9 -28q-1 -5 -5.5 -6.5t-7.5 2.5q-5 7 -11 13.5t-11 10.5t-14 8.5t-13 7t-15.5 6t-14.5 4.5t-16 4t-15 4q-12 2 -18 -1q-26 -11 -34 -19q-39 -43 -51 -64q-34 -57 -66 -168q-20 -72 -9 -123q12 -49 29 -68q6 -7 18 -23
q8 -11 2 -23q-8 -16 -10 -19q-11 -16 -37 -88q-12 -35 10 -76q2 -3 6 -8.5t5 -8.5q21 -43 73 -51q4 -1 11 -1t10 -1q7 -2 6 -8q0 -11 -1 -17q-15 -74 -24 -148z" />
    <glyph glyph-name="quotesingle" unicode="'" horiz-adv-x="349" 
d="M223 860q4 -5 4 -14q-4 -68 -22 -112q-7 -15 -8 -28q-1 -16 -16 -51l-6 -14q-2 -4 -5 -2t-6.5 2t-7 -1t-5.5 -1q-15 3 -19 15q-11 42 -10 77q2 50 9 73q5 19 11 57q1 4 1.5 12.5t0.5 13.5q27 14 55 -6q21 -14 24 -21z" />
    <glyph glyph-name="parenleft" unicode="(" horiz-adv-x="671" 
d="M348 -90q-20 27 -45 44q-12 9 -32 29q-18 18 -30 39q-2 4 -4 5q-11 6 -12 17q0 3 -4.5 9t-4.5 10q-1 9 -8 23q-5 12 -3 18q4 10 -5 17q-6 3 -8 16q0 4 -1.5 10t-1.5 9q-6 34 -3 52q1 5 1 17q0 5 -1 26.5t2 26.5q2 9 4 27q6 27 7 38q2 29 8 49q8 20 6 31q-2 9 3 17
q3 5 6 16t3 12q2 6 7 19t7 20q3 7 7 15l9 18t8 15q27 60 61 112l21 33q4 9 14.5 22t14.5 20q2 3 7.5 8t7.5 8q9 13 20.5 26t26.5 28.5t23 24.5q2 2 6 5t6 5l18 15q51 43 91 50l28 6q15 3 13 19q-2 13 -8 19q-3 3 -8 8.5t-7 7.5q-22 16 -36 19q-19 4 -56 -2q-38 -6 -79 -39
q-3 -3 -4 -5q-2 -5 -6 -10.5t-7 -8.5t-8.5 -8t-8.5 -8q-28 -28 -41 -42q-19 -20 -35 -41q-14 -17 -16 -21q-3 -6 -23 -34q-9 -11 -25 -35q-16 -25 -44 -77q-27 -46 -55 -117q-17 -42 -33 -130q-14 -76 -16 -114q-1 -4 -2 -11.5t-2 -11.5q-3 -47 4 -89q17 -84 50 -145
q3 -5 26 -36q3 -3 8 -9.5t9.5 -11l8.5 -8.5q48 -45 95 -71q11 -7 20 -9t19 7q4 4 7 6z" />
    <glyph glyph-name="parenright" unicode=")" horiz-adv-x="548" 
d="M435 369h1q-4 3 0 5h-1q0 5 0.5 21.5t1.5 25.5v7t1 8.5t5 5.5q-4 4 -4.5 8.5t1.5 10t2 8.5q0 1 -0.5 3.5t-0.5 4t1 3.5t4 3q6 2 -1 7q-7 4 -3 11l3 10q3 5 -2 6q-6 4 -2 8q2 2 1 11t5 11q4 4 -3 8q-5 3 -1 9l3 3q-5 7 -5.5 14t0.5 18t1 14q0 1 -0.5 4t-0.5 4l-18 67
q-9 41 -49 108q-5 8 -17.5 26t-18.5 28q-1 2 -5 6q-23 23 -40 54q-5 12 -12 18l-36 28q-8 6 -27 4q-2 0 -4 -2q-5 -6 -6 -15.5t4 -14.5q4 -5 31 -42q5 -8 39 -49q33 -44 40 -59q22 -39 29 -96q4 -35 5 -50v-49q2 -110 -3 -154q-6 -52 -22 -124q-17 -73 -75 -186
q-17 -31 -40 -54l-55 -55q-8 -11 -8 -12q-3 -27 -2 -30q1 -7 2 -9t3.5 -3t9.5 -2q9 0 13 -4q4 -2 8 2q2 4 5 3q8 -1 22 3q6 2 20 11q9 7 16 6q11 -1 19 9l8 7q28 26 40 42q19 26 32 48q21 43 25 47q1 9 14 36q3 6 3 8q2 13 8 22q3 4 3.5 12.5t1.5 11.5q4 7 10 6q3 1 2 4
q-13 4 -1 13q4 2 2 7q-2 3 0 14q1 7 3 20.5t3 20.5q0 3 3.5 14t1.5 17q0 2 5 2q6 1 6 4l-2 2q-11 8 -3 21q1 1 1 6z" />
    <glyph glyph-name="asterisk" unicode="*" horiz-adv-x="577" 
d="M254 913q-2 2 -10 13t-13 16q-20 26 -46 34q-16 4 -28 -6q-9 -6 -4 -15q3 -6 11 -16q12 -14 31.5 -43t22.5 -33q5 -7 -3 -12q-39 -26 -71 -46l-16 -8q-16 -8 -19 -10q-17 -13 -3 -30q2 -1 5 -4q14 -11 33 -11t34 10q6 4 18.5 14t19.5 14l13 9q6 2 8 0q1 -1 1 -6
q-3 -12 -5 -33.5t-3 -26.5q0 -10 3 -19q7 -25 28 -25q1 0 7 -1.5t7 0.5q2 1 8 -0.5t7 0.5q2 2 6 7.5t5 6.5q2 2 3 8v6q1 12 5 41q0 2 2.5 3t4.5 -1q0 -1 2 -2.5t2 -2.5q30 -34 54 -35q2 0 4 -2q4 -2 8 -1q2 2 13 7q8 5 5 13q-4 21 -22 34l-42 37q-6 5 -11 11q-10 12 -7.5 25
t15.5 21q18 10 21 11q4 1 12 5l67 39q26 13 29 15q17 10 6 27q-2 4 -8 10q-8 12 -25 10q-22 -3 -37 -12q-4 -3 -22 -14t-28 -17q-2 -2 -5 0q-1 0 -2 2t0 3q1 4 2 15.5t6 17.5q2 3 0 10q-4 25 -27 40q-17 10 -33 9q-17 0 -19 -18q0 -5 -2 -15t-2 -15q0 -2 -6 -34
q-5 -24 -10 -30z" />
    <glyph glyph-name="plus" unicode="+" horiz-adv-x="632" 
d="M211 229q13 -10 14 -11q4 -4 8 -2q3 2 10 2.5t10 3.5q5 5 7 4q5 -4 9 0q23 25 25 44q2 18 6 25q7 10 11 34q0 8 4 24q7 28 7 38q0 5 8 35l34 12q2 1 10 4t13 3q7 1 19 4t17 4q17 3 33 9q11 4 32 14t29 13q8 4 14 17q6 7 -6 12q-5 2 -21 2q-8 0 -24.5 -2t-25.5 -3
q-49 -4 -83 -11q-10 -1 -20 0q-6 0 -4 5q1 4 6.5 30t10.5 39q3 6 13 39q2 5 4.5 18t5.5 20q4 9 -5 22q-5 8 -30 33q-3 3 -6 3q-2 0 -25 8q-3 1 -8 -2q-9 -6 -8 -16q1 -7 -3 -27q-12 -44 -17 -65l-27 -114q-1 -10 -13 -13q-40 -8 -62 -9q-5 0 -28.5 -2.5t-36.5 -1.5
q-6 0 -15 -7q-4 -6 -2 -10q1 -1 3.5 -6l3.5 -7t3.5 -5.5t4.5 -5.5t5.5 -4t7.5 -3q5 -1 11 -7q21 -12 40 -7q8 2 26 2.5t27 3.5q4 1 6.5 -1.5t1.5 -7.5l-6 -50q-3 -46 -24 -127z" />
    <glyph glyph-name="comma" unicode="," horiz-adv-x="339" 
d="M226 92q17 -14 12 -35q-5 -33 -24 -53q-3 -4 -9 -12.5t-8 -11.5q-2 -4 -8.5 -11.5t-9.5 -12.5t-11 -13q-22 -19 -27 -39q-2 2 -3.5 4t-2.5 3q-5 2 -8 -1q-7 -9 -17 -2q-10 5 -10 15v7q15 82 20 95q4 9 10.5 28t10.5 28q2 5 3 15v11q0 8 7 9q16 6 34 -1q6 -3 7 -5
q2 -5 10 -5q12 -3 24 -13z" />
    <glyph glyph-name="hyphen" unicode="-" horiz-adv-x="642" 
d="M168 414h-22h-6.5h-8.5h-7q-12 1 -19 -11q-13 -17 3 -36q3 -5 10.5 -11t9.5 -8q12 -12 29 -11q99 0 135 4q4 0 18 2t22 2q40 2 60 7q4 1 11 1q42 4 62 4q4 0 10 3.5t10 3.5q6 0 18 4t20 4q6 0 4 5q-2 6 1 8q4 4 2 18q-4 14 -18 15q-29 0 -44 1q-37 4 -134 2
q-29 -1 -84 -3.5t-82 -3.5z" />
    <glyph glyph-name="period" unicode="." horiz-adv-x="311" 
d="M100 43q2 -20 13 -31q12 -13 39 -22q19 -6 34 12q20 29 25 66q0 6 -3 10q-13 16 -37.5 24t-43.5 3q-8 -2 -12 -8q-9 -20 -15 -54z" />
    <glyph glyph-name="slash" unicode="/" horiz-adv-x="680" 
d="M651 876q5 -10 -4 -18q-1 -1 -4 -3t-4 -4q-5 -11 -19 -29.5t-17 -24.5q-6 -9 -19.5 -34.5t-22.5 -37.5v-1l-2 -2q-2 -2 -4 -13q-1 -2 -5 -4t-4 -5q-3 -3 1 -6h-1q1 -7 -7 -14q-17 -13 -22 -34h1q-12 -9 -13 -12q-2 -6 -9 -17.5t-9 -18.5q-2 -11 -8 -17q-4 -4 -3 -5
q1 -6 -4.5 -13t-6.5 -10q-4 -20 -15 -29q-5 -3 -3 -8t-3 -10q-1 -1 -10 -22q-8 -22 -17 -30q0 1 0.5 4.5t0.5 5.5h-3q-7 -3 -2 -6q4 -2 4 -4q2 -2 2 -11l1 -1h-2q-3 -2 -4.5 -4.5t-2.5 -5.5t-2 -5l-6 -14q0 -1 -3.5 -6t-3.5 -9q0 -3 -2.5 -8.5t-2.5 -7.5q-6 -15 -18 -14
q-1 0 -5 -4q3 -2 8 -7q3 -3 1 -8l-6 -15l-5 -8q1 -13 -12 -17q-11 -4 0 -8q3 -3 2 -4q-3 -10 -11 -30q-1 -3 -6 -5q-4 -2 -2 -10q5 -11 -11 -16q-8 -3 -2 -8q3 -3 2 -6q-2 -3 -4 -25q-2 -21 -19 -34q-5 -3 -1 -6l3 -3q-4 -19 -14 -25q-2 -1 -5.5 -8t-9.5 -7l-1 -6
q4 -14 2.5 -18.5t-12.5 -12.5q-6 -4 2 -6q5 -2 2 -5q-2 -3 -9 -6.5t-9 -7.5q1 0 1 -1l6 -3q3 -3 2 -6q-10 -10 -13 -11q-8 -2 -6 -9q1 -10 -8 -17q-4 -6 -10 1q-4 2 -6 -2q0 -4 -2 -8q-2 -3 -1 -5t5 -1q4 0 10 -2l-5 -5q-5 -2 -13.5 -11.5t-9.5 -13.5q-10 -21 -10 -26
q-2 -14 -16 -15q-21 -2 -26 1q-6 -2 -14.5 4.5t-11.5 7.5q8 8 10 22q1 7 20 64l12 30t11 30q2 5 6.5 13.5t6.5 13.5q10 29 32 85q17 37 26 66q3 8 8.5 25t8.5 26q9 27 14 36q6 12 13.5 35.5t9.5 27.5q2 5 7 14.5t7 14.5q3 7 6 14.5t6.5 16.5t5.5 14q1 2 3.5 8.5t4.5 9.5
q7 6 2 14q15 22 22 44q6 15 20 45q9 17 8 24q0 5 3 8l30 58q14 29 31 59l31 57q8 12 7 20q0 1 6 16q7 13 23 39q2 4 8 13t8 15q4 10 24 21q2 1 6 1q4 -1 21.5 -4.5t25.5 -10.5q26 -22 34 -39zM546 700v-1v1zM454 577q3 0 3 3q0 1 -2 3q-1 0 -3 -2q-1 -2 2 -4zM440 554
q2 0 4 4q-2 2 -3 2q-2 -2 -2 -3zM429 528l1 1h-1v-1zM414 489q3 5 1 18q-1 -3 -3.5 -8.5t-3.5 -7.5q0 -3 2 -3q2 -2 4 1zM406 473q2 4 -1 6q-4 0 -4 -4q-2 -4 0 -6l3 3zM393 449q3 0 3 2v1q-1 2 -1 3l-3 -3q0 -2 1 -3zM388 437l1 1l-1 1l-1 -1zM371 395l14 29
q-7 -4 -11.5 -14.5t-7.5 -13.5q-2 -2 1 -3q4 0 4 2zM361 361q2 16 4 24h-3q-3 -8 -9 -22q0 -4 4 -4q2 0 4 2zM369 360v3v-3zM341 324v1l-2 -1h2zM325 276v1l-2 -1q-2 -2 -2 -3q1 1 3 1v1zM321 271q0 -1 1 -1v1l-1 1v-1zM247 66q12 14 9 26q-9 -9 -14 -23l1 -3q1 -1 2.5 -1
t1.5 1zM233 44q1 0 2 1q-1 1 -2 1v-2z" />
    <glyph glyph-name="zero" unicode="0" horiz-adv-x="497" 
d="M50 221q0 -60 31 -127q10 -24 42 -47q16 -10 31 -7q42 8 62 14q27 8 40 28q4 5 23 22q25 25 29 32q5 9 74 108q33 48 41 94q3 13 7.5 38.5t7.5 38.5q11 47 7 142q-1 9 -2 28t-2 29q-4 64 -23 104q-9 18 -21 22q-3 1 -14 5q-13 7 -7 21q10 22 33 37q16 11 5 27
q-27 41 -60 34q-10 -2 -21 2q-16 7 -27 -10q-24 -34 -44 -65q-17 -27 -35 -33q-23 -8 -28 -38q-1 -3 -2 -9t-2 -9q-3 -33 -34 -104q-30 -70 -42 -106q-9 -26 -25.5 -86t-27.5 -91q-5 -14 -7.5 -30.5t-4.5 -35t-4 -28.5zM340 641q-6 -16 -6 -51t-5 -52q-2 -8 -2 -39
q-7 -105 -67 -204q-27 -42 -57 -81l-10 -10q-3 -2 -7.5 0t-4.5 5q0 12 1 18q10 42 16 62q55 186 74 242q25 74 38 96q2 4 3.5 8.5t3 10t2.5 8.5q4 9 11 7q7 0 9 -10q1 -1 1 -4v-6z" />
    <glyph glyph-name="one" unicode="1" horiz-adv-x="315" 
d="M265 659q-1 7 -2 20t-2 24t-2 20q0 4 -1.5 9t-4 11.5t-3.5 9.5q-8 23 -42 37q-3 3 -20 1.5t-22 -1.5q-12 2 -36 -18q-5 -4 -5.5 -8t1.5 -10t2 -8q0 -12 -1 -18q-1 -10 -4.5 -31l-5.5 -33q-24 -148 -38 -239q-1 -11 -3.5 -33.5t-4.5 -33.5q-8 -67 -11 -106
q-10 -112 -10 -135q0 -44 12 -77q4 -12 9 -15q39 -28 57 15l3 6q2 9 14 31.5t13 36.5q0 1 2 3q8 4 11 10t4.5 15.5t2.5 13.5q1 2 4 26.5t13 34.5q1 1 1 7q2 17 10.5 52.5t9.5 55.5q2 35 6 42q5 10 15 66q26 158 28 219z" />
    <glyph glyph-name="two" unicode="2" horiz-adv-x="517" 
d="M466 216q3 -8 -3 -16q-10 -14 -13 -21q-20 -43 -63 -81q-70 -65 -82 -74q-34 -25 -77 -19q-40 5 -61 26q-3 3 -11 8t-10 6q-11 6 -16 18l1 -1q-35 35 -30 81q1 8 2 28t2 31t4 26.5t9 28.5q2 5 10 56q53 211 56 223q19 84 22 108q1 7 -2 10t-10 0q-2 0 -3 -1
q-8 -3 -21 -14t-20 -14q-4 -1 -20 -3.5t-24 -8.5q-15 -10 -41 2q-18 9 -14 32q4 21 21 36q13 12 76 75l15 15q49 50 127 42l24 -3q16 -1 22 -17q16 -42 12 -76q-3 -31 -32 -160q-12 -50 -38 -144.5t-37 -138.5q-14 -62 -18 -94q-1 -6 2 -61q0 -11 12 -9q14 5 16 6
q17 10 27 19q52 48 77 74q7 7 50 45q21 19 42 6q19 -11 16 -32q-2 -9 1 -14z" />
    <glyph glyph-name="three" unicode="3" horiz-adv-x="440" 
d="M81 281q-20 -24 -35 -74q-13 -44 3 -81q19 -42 18 -57q0 -3 8 -16q4 -5 8.5 -10.5t10 -12t8.5 -10.5q17 -20 42.5 -20.5t43.5 14.5q20 16 34 32q73 86 100 155q7 18 25.5 60t26.5 65q13 44 15 62q7 77 -54 107q-12 7 -38 19q-15 8 -7 23q26 54 40 80q29 54 30 101
q0 41 -13 88q-14 50 -62 54q-60 4 -86 -11q-58 -35 -77 -68q-15 -24 -24 -31q-6 -4 -9 -10t-4 -10.5t-1.5 -12.5t-1.5 -12q-2 -17 19 -44q0 -1 19 -16q4 1 11 3t10 2q18 3 25 17q13 22 47 56l39 39q17 20 25 13q9 -6 2 -30q-9 -34 -27 -62q-15 -26 -47 -76q-12 -20 -17 -31
q-1 -3 -1.5 -11.5t-4 -13t-12.5 -5.5q-3 0 -3 -6q-4 -25 15.5 -49.5t44.5 -26.5q34 -3 35 -3q27 -6 35.5 -19t3.5 -39q-2 -8 -4 -14l-18 -54q-26 -84 -91 -180q-7 -10 -24 -27q-23 -23 -38 5q-3 6 -5 14q-6 16 -14 19q-3 1 -8 11q-10 20 -5 49q2 20 -8 29q-10 10 -5 26z" />
    <glyph glyph-name="four" unicode="4" horiz-adv-x="514" 
d="M213 341q0 -18 -1 -25q-2 -11 -5 -31t-5.5 -36.5t-4.5 -31.5q-2 -16 -7 -57t-9 -63q-5 -30 -3 -103q0 -4 2 -7t4 -4t6 -2t5 -2q10 -6 19 5q5 7 10 34q5 22 10 26q8 7 18 34q1 3 16 45.5t26 63.5q12 23 22 56q42 142 45 154q9 37 40 51q15 7 34 28.5t22 24.5q6 5 6 16
t1 14q1 4 -1.5 6t-7 3.5t-5.5 3.5q-7 11 -34 17q-11 3 -13.5 7t-0.5 16l9 60q5 21 7 96q0 55 -42 66q-2 0 -5 2.5t-4 2.5q-7 4 -11 3t-9 -9q-22 -33 -35 -77q-23 -80 -50 -197q-9 -36 -36 -45q-4 -1 -10 -4.5t-9 -4.5t-10 -4.5t-10 -4t-10 2.5q-4 5 -2 31v4q4 14 11 41
t11 41q5 22 16 61t15 56q12 50 -21 82q-22 23 -14 44v6q-3 5 -5 5q-4 2 -6 0q-4 -2 -11 -9q-6 -8 -16.5 -25t-16.5 -25q-54 -71 -81 -181q-8 -39 -6 -60q0 -3 1.5 -14.5t1.5 -15.5t1.5 -14.5t2.5 -15.5t3 -14t4.5 -15.5t5.5 -13.5t7 -14q3 -9 3 -10q5 -27 38 -49
q41 -26 94 -25z" />
    <glyph glyph-name="five" unicode="5" horiz-adv-x="586" 
d="M83 238q-8 -14 -19.5 -45t-13.5 -45q0 -11 1 -17q12 -53 49 -114q2 -4 8.5 -10.5l7.5 -7.5q8 -8 13 -3q10 8 22 -3q23 -18 50 -12q13 3 37 13q58 25 91 87q31 55 49 99q37 90 42 146q10 91 -10 163q-20 64 -74 86q-54 23 -104 23q-7 -1 -21 1q-5 2 -8 7t-1 10
q13 35 32 59q12 15 24 4q28 -24 80 -13q14 4 21 7q73 30 99 51q12 11 21 22q1 2 6 4t6 3q18 14 42 41q4 5 3 11.5t-6 7.5q-4 1 -32.5 7.5t-44.5 5.5q-90 -4 -135 -10q-7 -1 -26 -5t-25.5 -4.5t-26.5 0.5q-35 5 -42 4q-9 -2 -17.5 -17.5t-10.5 -17.5q-52 -62 -81 -150
q-7 -24 -4 -56q1 -9 5 -17.5t7 -13.5t10.5 -14.5t9.5 -12.5q12 -18 36 -18q24 2 36 4q39 7 85 2q19 -2 20 -17q9 -55 7 -74q-9 -89 -28 -169q-20 -82 -58 -129q-25 -30 -51 -36q-18 -5 -27 10q-21 34 -22 67q-3 41 -24 64q-12 12 -8 22z" />
    <glyph glyph-name="six" unicode="6" horiz-adv-x="473" 
d="M407 884q11 -7 15 -24.5t-3 -30.5q-7 -12 -17 -23q-4 -5 -13 -14.5t-13 -14.5q-34 -36 -48 -70q-5 -11 -21 -44.5t-24 -52.5q-14 -34 -33.5 -99t-26.5 -84q-2 -5 -4 -17q0 -8 4 -9q5 0 7 1q21 18 22 19q16 16 43 9q19 -5 57 -52q5 -1 7 -7q3 -11 10 -32.5t10 -31.5
q3 -8 3 -25q-2 -27 10 -35q3 -2 3 -14q-2 -51 -8 -70q-2 -5 -3.5 -22t-7.5 -26q-26 -39 -38 -51l-29 -27q-46 -43 -109 -46h-7q-4 1 -12.5 -4.5t-16.5 -0.5q-5 3 -23 13t-28 19t-17 22q-32 61 -44 127q-3 19 -1 60q8 86 27 154q25 88 54 170q38 106 102 223q21 40 50 77
l24 27q23 23 42 23q31 0 57 -17zM257 376q-4 -14 -19 -37.5t-20 -34.5q-13 -34 -16 -62q-2 -19 -15 -25q-21 -8 -24 -38q-4 -59 3 -81q4 -13 17 -7q61 28 100 88q44 69 51 125q0 4 1 7q12 26 13 33l-10 27q-2 1 -10.5 11t-16 17.5t-10.5 6.5q-6 -3 -17.5 -9.5t-16.5 -10.5
q-8 -6 -10 -10z" />
    <glyph glyph-name="seven" unicode="7" horiz-adv-x="554" 
d="M149 369v1l-39 -3q-15 0 -18 -9q-1 -3 7 -19q5 -8 21 -14q16 -7 24 -14q13 -10 14.5 -15.5t-2.5 -20.5l-18 -58q-17 -58 -31 -176q-4 -33 14 -76q4 -9 17 -11q29 0 38 21q8 12 10 19q5 15 18 42.5t18 41.5q3 8 14.5 37.5t16.5 46.5q7 22 10 26q4 6 7.5 13t6.5 16t5 13
q26 70 28 73q12 20 28 62q27 74 66 162q9 17 14 32q12 31 34.5 92t33.5 92l15 44q9 27 -4 44q-17 22 -40 28q-40 11 -67 3q-69 -23 -81 -29q-15 -7 -43 -21l-51 -25.5t-43 -20.5q-14 -6 -40.5 -15.5t-36.5 -13.5q-5 -2 -13 1t-11 3q-8 -1 -15.5 -8.5t-4.5 -12.5
q12 -28 14 -43q14 -17 22.5 -26t24.5 -17t34 -7q30 0 51 14q8 5 48.5 26t59.5 36q1 1 3 1t3 -1q3 -1 3 -6t-3 -10q-13 -23 -25 -51t-25 -62.5t-21 -53.5q-2 -5 -4 -20t-7 -21q-10 -12 -26 -69q-1 -6 -3 -14t-2.5 -11t-2.5 -7.5t-4.5 -6t-7.5 -2.5t-12 -1t-18 1h-4z" />
    <glyph glyph-name="eight" unicode="8" horiz-adv-x="488" 
d="M438 657q1 -34 -21 -78q-36 -76 -94 -155q-23 -32 -48 -71q-11 -13 -9 -30q1 -7 2 -20t2 -19q11 -62 2 -128q-8 -59 -49 -118q-4 -6 -9 -9.5t-14.5 -7.5t-11.5 -5q-37 -19 -73 10q-74 62 -71 137v11q-4 9 -4.5 17t4 18.5t6 13.5t9.5 16q3 5 26 43q2 3 10 17t15 22t16 13
l8 12t8.5 13t7 12t6 13.5t3.5 13t1 15t-3 15.5q0 21 -4.5 92.5t-2.5 110.5q2 32 6 60q2 9 4 28t4 29q14 74 51 112q46 44 84 38q3 0 11 -2q15 -4 33 -18q-1 -4 -1.5 -17t-5.5 -20q-14 -22 4 -34v1q0 -9 1 -14q0 -2 5 -2q2 1 2 2v13q13 -11 25.5 -25.5t27.5 -34.5t23 -29
q5 -6 8 -14t3.5 -14t1.5 -17.5t1 -15.5zM333 705q10 43 -1 77q-3 11 -13.5 13.5t-18.5 -5.5q-6 -5 -16 -15q-24 -31 -24 -61q0 -20 -5 -97v-38q0 -7 5 -8q6 0 9 4q28 44 40 67q18 30 24 63zM353 771l2 3l-3 -1zM164 168v1v-1zM153 129q11 26 11 39h-3.5t-2.5 -1
q-11 -12 -13 -39l2 -2q6 2 6 3z" />
    <glyph glyph-name="nine" unicode="9" horiz-adv-x="497" 
d="M333 547q2 -4 2 -8.5t-0.5 -7.5t-2.5 -8t-3 -7l-60 -190q-2 -5 -4 -17q-12 -43 -34 -171q-6 -33 1 -64t41 -30q20 0 36 23q22 31 28 42t12 38q2 12 4 17q45 151 65 255q2 12 10 54t13 65q6 27 5.5 69t0.5 69q1 22 -23 29q-19 5 -32 25q-26 35 -75 32q-64 -4 -126 -34
q-4 -2 -17 -12q-13 -11 -28 -27t-22 -24t-25 -32t-21 -27q-28 -34 -28 -82q0 -33 16 -45q5 -4 9 -15t18 -16q42 -17 81 8l23 15q12 7 37 21t44 25t35 23q13 9 20 7zM323 677q1 -7 -5 -12q-18 -16 -26 -18q-26 -10 -74 -40q-4 -2 -7 -2t-3 1q-2 5 -2 6q3 6 8 11q27 30 75 58
q12 7 20 6q9 0 14 -10z" />
    <glyph glyph-name="colon" unicode=":" horiz-adv-x="382" 
d="M180 534q17 -6 29 8q7 5 7 12q0 1 5 14q3 5 10 26q3 14 -8 28q-10 12 -26 19q-20 10 -33 3q-13 -5 -20 -24q-2 -6 -6.5 -18t-5.5 -18q-2 -9 -4 -23q0 -10 8 -14q31 -15 44 -13zM145 222q15 -1 19 0.5t11 9.5q18 22 24 52q3 19 -11 30q-22 18 -27 28q0 1 -10 8q-6 4 -12 0
q-12 -12 -21 -15l-6 -6q-17 -26 -9 -79l3 -6q20 -20 39 -22z" />
    <glyph glyph-name="semicolon" unicode=";" horiz-adv-x="365" 
d="M149 551h9q18 4 22 18q2 6 10 21q6 11 16 35q1 2 1 13q0 8 -13 21q-24 26 -56 22q-11 -2 -15 -10q-3 -7 -22 -72q-5 -20 9 -32q19 -17 39 -16zM143 351q-11 0 -16 -3q-8 -4 -6 -10v-6q3 -26 -6 -86l-5 -35q-1 -9 2.5 -13t14.5 -6q2 0 6 0.5t7 -0.5t5 -5q1 -1 3 -1t3 2
q1 5 8 8.5t8 4.5q22 20 27 30q17 45 19 57q7 28 -16 45q-16 12 -54 18z" />
    <glyph glyph-name="less" unicode="&#x3c;" horiz-adv-x="697" 
d="M590 610l-3 -3q0 -1 3 -1.5t4 -2.5q-37 -26 -53 -30q-1 -1 1 -1.5t2 -1.5q-1 -3 -4 -1t-4 2q0 -5 -1 -5.5t-6 -1.5q-5 0 -5 -3h-1q-3 0 -4 -1v-1q2 -1 4 -1q-4 -4 -9 -1q-4 2 -6 -3q-3 -3 -5 -1q-1 1 -2 0t-1 -3q-1 -2 1 -2t2 -1q-2 -2 -7.5 -4t-7.5 -3q-2 -2 -4 0t-5 0
q-1 -2 -4 1l-1 1q-4 -6 3 -7q-2 -2 -7 0q-4 2 -6 0q-1 -1 1 -5l1 -1v-2l-8 -3q-1 0 -2 1q0 2 1 2l4 4q0 2 -1 3q-2 0 -2 -1q-2 -6 -9 -4h-5q-2 0 -2 -2t2 -3q1 1 1 0q5 -2 5 -3q-2 -2 -6 0h-2q-3 -1 -1 -4q3 -3 -2 -3q-2 0 -8 -3q-6 -2 -7 -1t-6 -4l-1 -1l-1 -2q-3 -1 -9 -5
t-8 -5q-1 2 1 4t2 3h-1h-12q-1 0 -2 -1t0 -2q0 -1 3 -1q3 2 3 -2q2 -2 -1 -3q-1 0 -4.5 1.5t-4.5 -0.5l-1 1q-1 1 -1 2q-2 -1 -9 -0.5t-9 -2.5q7 0 8 -6q0 -1 0.5 -3t0.5 -3q-1 0 -3 2l-1 2q-2 -1 -8 -1t-8 -3q-3 -4 -14 -6q0 1 1 2q1 2 0 3t-3 -1q-1 -1 2 -4l-2 -2
q-9 -2 -12 -11q-1 1 0 3t-1 2q-3 0 -4 -3q-1 -1 2 -3q3 -3 3 -4q-3 -5 -6 1q-3 3 -10 1q-2 0 -3 -1t0 -2q0 -2 -1 -2q-3 0 -19 -5q-1 0 -1.5 -2t-1.5 -3q-1 1 -1.5 4t-1.5 4q-3 -5 -13 -7q-1 0 -2.5 -2t-3.5 -3q1 -2 3 -1.5t3 0.5l-1 -2q-1 0 -5 -1.5t-6 -1.5q-4 -2 -5 -3
q-3 -3 -7 -2q-1 1 -6 1q-2 0 -3 -1l1 -1v-2q1 -1 4 -1q0 -5 -3 -5q-5 0 -6 -4q-1 2 -4 0.5t-4 -1.5q-2 0 -3 -1q-4 -4 -11 -2l-2 1q-3 -2 -11.5 -4.5t-12.5 -5.5v-1q5 -5 6 -8t8 -5q3 0 15 -5q3 -1 17 -6t21 -8q27 -11 30 -13q2 -2 7 -4t6 -2q6 -2 17 -9t17 -9q3 -1 13 -8
q4 -4 14 -9t13 -8q5 -3 17 -13l6 -4q5 -3 14 -10.5t15 -10.5q3 -2 9 -8q16 -15 30 -30q5 -5 8 -6q8 -6 9 -11q0 -1 4 -5q3 -2 5.5 -5t5 -7t4.5 -6q8 -10 11 -16q18 -28 20 -35l9 -22q1 -2 1.5 -7t2.5 -7q0 -2 -2 -2q-3 0 -2 -2l1 -1q2 -5 -3 -5l-1 1l-2 -2q0 -4 -4 -3
q-5 2 -6 0q-1 -1 -2.5 0t-1.5 3q0 4 -5 5q-5 0 -5 6q-2 8 -4 12t-7.5 15.5t-8.5 18.5q-2 5 -7 5q-8 0 -4 6q0 1 -2 3q-1 1 -4 6t-5.5 6.5t-7.5 1.5q-3 1 -6.5 5t-4.5 5q-2 2 2 2q2 0 2 1q-14 8 -16 9q-7 2 -10 6q-5 5 -7 4q-3 0 -3 3q-2 3 -5 3q0 2 2 2q4 2 4 5q-1 2 -3 2
l-2 1q-1 3 -5 2q1 -1 2 -1q2 -1 3 -1q0 -3 -1 -3q-6 0 -7 2q0 1 -3 3q-8 2 -6 9q-12 -3 -18 5q-5 5 -8 6q-6 4 -4 9h-2l-1 -1q-2 -1 -3 0t-1 2q2 2 5 1q3 0 4 1q-3 6 -9 3l1 -1q-8 -3 -11 0q-2 2 -9 5.5t-10 6.5q-3 0 -6 3t-6 2q-1 0 -2 2t-3 2q-2 1 -5 4t-4 3q-1 1 -5 1
t-6 3q0 1 2 1t2 2l-1 1q-2 0 -7 0.5t-7 -0.5q-4 -1 -7 5q-3 3 -5 2q-2 -2 -9 0q-12 5 -14 5h-2q-14 10 -29 10q-2 0 -6.5 2t-7.5 2l-1 1q-4 6 -13 6q-1 0 -2 1q-2 2 -8 3t-9 4q-5 0 -15 5.5t-16 4.5q-3 0 -2 4q1 5 -4 6q-3 0 -2 3q2 8 -4 10q-2 0 -2 3t-2 4q-6 1 -6 8
q-1 10 -8 22q-3 5 1 11q1 2 6 8.5t8 9.5q22 13 28 14h1q6 4 19.5 10t19.5 11q14 9 22 10q6 1 17 8q4 3 14 7q2 1 11 6t14 7q9 4 25 12.5t29.5 15t25.5 12.5q4 2 8.5 4.5t10 5.5t8.5 5l30 15q10 5 12 7q6 -1 14.5 5.5t12.5 6.5q1 0 10 6l15 7.5t16 8.5q2 1 12.5 8t14.5 12
q0 1 5 3q14 8 21 13q2 2 4 2q14 5 17 18l3 5q8 0 9 -1q15 -8 23 -23q8 -11 8 -24q0 -3 0.5 -7.5t0.5 -6.5q0 -10 -7 -11zM524 560v-1q-1 0 -1 -1l1 1v1zM486 545h5t5 1q-6 2 -10 -1zM430 515q1 2 3 3.5t3 2.5q-4 0 -5 -0.5t-1 -5.5zM408 512q7 -2 8 -2t2 5q-1 -1 -10 -3z
M346 491q4 -2 6 0q0 1 -1 1q-3 3 -5 -1zM304 469q-4 2 -8 -3q6 -3 8 3zM295 456q1 0 4.5 1t5.5 2q-7 0 -10 -3zM265 450h3.5t4 1t1.5 4q-4 -2 -8 -1q-2 0 -2 -2zM229 438q1 1 4 3t4 4l-13 -3q3 -6 5 -4zM218 427q7 0 9 5q-1 -1 -4 -2t-5 -3zM243 427l-1 1zM190 412q2 0 2 1
q0 2 -2 2l-1 -1q-1 -2 1 -2zM176 396q4 0 4 2t-3 2q-5 -2 -5 -3q1 -4 4 -1zM246 321q-4 4 -8 2q6 -2 8 -2zM249 317q-1 0 -1.5 -1t0.5 -2q2 -2 3 -1q3 5 5 -1q0 -2 3 -2t11 -2h1l2 2q0 2 -2 2q-4 1 -8 4q-3 3 -14 1zM284 308q-1 -1 -1 -3q0 -1 3.5 -3t5.5 -1q1 2 0 3
q-4 2 -5 4q0 1 -1 1t-2 -1zM311 294q-5 0 -8 -4q4 1 8 1q2 2 0 3zM321 290q-2 1 -4.5 1h-4.5q-3 -3 -1 -3q9 0 11 1zM338 282l-18 3q3 -8 18 -3zM350 268q-2 0 -2 -1l3 -3h1v-1q2 3 -2 5zM367 257q-3 0 -3 -1l3 -3q1 -1 1 0v2q0 2 -1 2zM375 249v-2q4 -2 7 -4q-1 5 -6 7
q-1 0 -1 -1zM437 202q-4 3 -8 2q2 -2 8 -2z" />
    <glyph glyph-name="equal" unicode="=" horiz-adv-x="719" 
d="M609 544q7 -3 9 -13t-3 -15q-3 -3 -7 -3q-20 -2 -25 -7q-1 -1 -2 -1q-11 2 -29.5 -3.5t-25.5 -5.5q-10 -1 -28.5 -2.5t-27.5 -1.5q-22 0 -31 -7q-2 -3 -7.5 -2.5t-8.5 5.5q-7 5 -11 1q-10 -10 -31 -12q-29 0 -41 -8h-4q-8 3 -27 -5q-1 0 -3 -1t-3 0q-6 5 -29 -3
q-6 -2 -22 -2.5t-24 -3.5q-3 -2 -5 0q-8 3 -22 3t-18 1q-35 4 -47 14q-8 5 -23 25q-1 1 -2.5 5t-2.5 5l-3 3q-3 4 -4 7q0 2 2 5.5t1 6.5q0 4 3.5 7t7.5 1q10 -4 20.5 -4.5t25 2t21.5 2.5q4 0 13 1t14 1q14 0 84 8q50 7 67 6q9 0 27 1t27 1q2 0 4 0.5t3 0.5q21 -3 59.5 -3
t48.5 -1q45 -4 71 -7q6 0 9 -1zM424 488q3 0 4 2q-1 1 -2 0zM556 416q10 1 12 -10q3 -19 -15 -24q-2 -1 -6.5 -1t-7.5 -0.5t-6.5 -2.5t-5.5 -5q-1 -1 -8 -1q-10 -2 -10 -3q-5 -7 -26 -9q-31 -4 -41 -10q-2 -1 -4.5 -1.5t-5.5 -1t-5 -0.5q-1 -1 -3 -1h-3q-8 -9 -36 -13
q-5 0 -11.5 -3.5t-8.5 -4.5q-8 -3 -38 -8q-2 -7 -7 -7q-8 1 -17 -4q-3 -3 -18 -5q-41 -9 -52 -13q-22 -8 -66 -20q-6 -2 -13 1q-15 7 -28 20q-13 14 -26 44q0 4 2 6q4 4 4 5q4 14 17 8q4 -2 25 1q15 2 21 5q9 4 27 8q15 2 36 11q17 8 55 14q10 2 27.5 4.5t32 5t27.5 5.5
q5 1 18 1.5t20 2.5q23 5 102 7q4 0 21 -1.5t21 0.5zM493 367q2 2 -1 2q0 -1 -1 -1zM391 341l1 1h-1v-1z" />
    <glyph glyph-name="greater" unicode="&#x3e;" horiz-adv-x="709" 
d="M608 425q2 -5 -1 -7q-3 -3 -1 -8t-1 -10l-2 -4q-2 -5 -4 -6v-4q0 -7 -10 -14q-3 -1 -8 -3t-8 -4t-5 -1h-3q-6 -6 -9 -6l-2 -1q1 -4 -3 -4h-3q-7 -2 -8 -7q0 -2 -4 -2q-3 0 -4 -2q-3 -1 -4 0q-7 3 -9.5 2.5t-6.5 -7.5q-2 3 -4.5 3.5t-6 -0.5t-5.5 -1t-2 -3q1 -2 3 -2
q1 0 3 1t3 0l1 -1q1 0 1.5 -0.5t0.5 -1.5q0 -2 -3 -2q-2 0 -8 -2t-9 -1q-2 1 -4 -1q0 -4 -7 -6q-6 -2 -9 -4q0 6 -10 8q-6 2 -9.5 -1.5t-1.5 -9.5q2 -5 -3 -8l-15 -6l-9 -6h-7q-2 3 -4 4q-3 1 -5 -6q-1 1 -3 0t-3 -1q-2 -2 -4 0q-5 2 -5 -2v-3h-3q-6 3 -6 -3q-2 -6 -7 -2
q-4 2 -5 -2q-2 -2 -1 -5q1 0 3 -0.5l4 -1t3 -1.5q-1 0 -3.5 -1.5t-3.5 -1.5t-4 2q-3 3 -6 0q-8 -6 -14 0q0 -5 -5.5 -9.5t-6.5 -5.5q0 -1 -2 -1q-6 1 -6 -6q0 -2 -2 -2q-3 3 -4 2q-5 -10 -5 -11q0 -2 -1 -3q0 3 -2 3q-2 1 -3.5 0t-0.5 -2q1 -3 -1.5 -6.5t-2.5 -5.5
q0 -3 -2 -1q-1 0 -1 2q0 1 1.5 2.5t1.5 3.5q0 1 -0.5 3.5t-0.5 4.5l-9 -3l-4 -7q1 -1 5 -1l1 -1q2 -1 2 -2q0 -2 -3 -2h-3q-7 1 -8.5 0t-3.5 -8q-3 -3 -3 -4l1 -1q2 -4 -2 -5q-2 -1 -2 1t-1 2q-8 -8 -12 -8q-2 1 -0.5 2.5t1.5 2.5q-3 1 -15 -3l2 -7h-7h-2q-1 -7 -11 -7
q-3 0 -3 -3q-7 -9 -11 -8l-2 -2q1 -3 -4 -6q-1 -1 -11 -8q-1 -1 -0.5 -4.5t-1.5 -2.5q-2 0 -4 -2l-3 -2q-1 -1 -4 -7q-3 -5 -11 -11l-4 -4q-14 -15 -20 -28l-3 -3q-4 0 -8 -6q-2 -2 -4 1q0 2 -1 2q-4 0 -1 2h2q2 1 1 3q-1 3 -5 1q-5 0 -3 -3l1 -1q1 -2 0 -3l-9 3q-2 2 -2 4
v5q0 5 -3 7q-1 0 2 8q2 7 1 9v2q2 3 4.5 8t5 9t5.5 7t2 6q-2 0 -4.5 -4t-5.5 -5q15 22 20 26l-3 -6q-4 -4 -4 -7q3 -1 4 1q5 9 24 28l7 7t7 8q5 5 30 28l9 6t8 5q1 1 4 3.5t4 3.5q2 1 22 15q4 2 4 4l4 4q3 0 17 9q2 0 4 2q2 5 6 4q3 5 12 9t11 5q9 9 16 11q2 0 4.5 2.5
t3.5 2.5q5 2 13.5 7t11.5 6q11 8 12 12h3q5 -2 5 3q0 4 2 5q6 4 13 8q3 2 3 -2q-4 -2 -4 -4l1 -1q2 1 2 4l1 1q9 -1 21 6q4 3 0 7q0 1 1 1.5t2 -0.5q3 -1 6 2q3 5 12 8q30 14 34 15t18.5 7.5t23.5 8.5l15 6q3 1 3 5q0 3 -3 3t-2 2q0 4 -5 4l-21 6l1 2q0 2 -1 3q-2 -1 -7 -1
t-4 4q2 3 -1 3q-1 1 -2 0.5t-1 -1.5q0 -4 -4 -2q-3 1 -9 3.5t-9 3.5q-3 2 -3 4q0 3 -3 3q-2 -1 -1 -2.5t1 -2.5q-8 4 -14 2q0 3 2 6t2 5q0 5 -2 6q-6 2 -9 1l-2 -3q0 -1 1 -2t2 0q1 0 2.5 -1.5t2.5 -1.5q1 -1 1 -2h-1l-1 -1q-1 -1 -3.5 0t-3.5 0h-2q0 6 -4.5 4t-5.5 -1l3 3
q5 2 4 2q1 1 -1 3v1l2 2q-17 9 -29 6q-4 -2 -6 3q0 2 -2 5t-3 4q0 3 -2 2q-1 -1 -1 -3q0 -1 -1.5 -2.5t-0.5 -2.5q1 0 1 -2q1 -2 1.5 -2.5t2.5 -0.5q1 0 3.5 -2.5t4.5 -0.5q2 -3 9 -5t9 -5v-1q-3 0 -7 2q-10 2 -12 1h-2q-1 2 -13 4q-2 1 -7 2t-7 2q-4 0 -10 2q-3 0 -3 2
q0 7 -3 3q-3 -3 -4 -2t0 2t-0.5 3t-0.5 3q2 1 4 0.5t3 -0.5q3 0 3 2t-2 2h-1q-4 0 -2 4q1 0 2.5 0.5t2.5 1.5q2 1 0 3q0 1 -1 1t-1 -1q-3 -1 -3 -5q-2 0 -3 1q-1 3 -3.5 4.5t-6.5 2.5t-6 2q-2 2 -2 -1q-2 0 -3 1q-3 0 -3 -2t2 -2q4 0 4 3h1q3 0 2 -4t3 -4q6 1 0 -9
q-3 0 -3 3q0 6 -8 6q-1 -2 1 -3l2 -2q2 0 0 -2q0 -1 -2 -1l-2 1l-2 1q-2 4 -8 4q-2 0 -6 1t-6 1q-3 0 -4 2q0 3 3 4q4 0 6 2t1 3t-3 1l-3 -2q-5 -5 -7 0q0 1 -2.5 0t-2.5 1q-1 3 -6 2q-2 -1 -6 1q-1 0 -3 -2q-2 -5 -6 -2q-6 3 -13 -2q0 6 -6 6q-4 0 -6 1q-4 4 -9 -1
q1 6 -4 7q-6 0 -9 -1h-2q-11 5 -24 7q-13 3 -15 2q-2 1 -5.5 2t-4.5 2q-1 2 -5 2q-7 -2 -20 2q-11 4 -19 5l-6 3q-12 15 -14 19q-1 3 -3.5 8.5t-3.5 8.5q-2 5 -2 21q0 6 -3 12t3 8q1 0 1 7q1 0 3.5 -1t3.5 2v3q1 3 3 4q2 -8 9 -9q1 0 6 -5l1 -1q0 -1 0.5 -2t1.5 -1
q3 -1 9.5 -4.5t10.5 -4.5q22 -5 23 -6q4 -2 46 -13q1 -1 23 -6q3 -1 7.5 -2t8.5 -2l8 -2l40 -10q15 -3 41 -11.5t35 -11.5q4 -1 11 -4t11 -4q3 -1 14.5 -5t18.5 -5q2 0 2 -1q4 -3 12 -5t10 -3q4 -1 10.5 -3.5t9.5 -3.5q38 -16 56 -25q33 -16 57 -37q9 -9 8 -17q0 -8 3 -15z
M247 527q13 -2 18 -5q-2 12 -18 5zM487 458q1 3 0 4t-4.5 2.5t-4.5 2.5h-3q-4 0 -4 -1q0 -3 4 -3q3 1 6 -3l3 -3q3 0 3 1zM476 457q2 -1 3 0q0 2 -1 2q-1 1 -2 0q-2 -2 0 -2zM500 454q2 0 2 3q0 4 -3 1q-1 -1 -3 0l-1 1q-3 -1 -3 -2l1 -2q3 -1 7 -1zM529 441q2 0 2 1
q0 2 -1 2q-21 5 -25 5q4 -4 5 -3q3 1 9 -3q6 -2 10 -2zM547 428q2 -1 3 2q0 2 -2 3q-1 0 -3 -2q0 -3 2 -3zM485 336q1 -1 3.5 0.5t2.5 2.5l-2 2q-5 -2 -5 -3q0 -2 1 -2zM433 308q2 -2 2 1t-2 3q-1 0 -2 -1q0 -1 2 -3zM411 292l-1 1h1v-1zM143 178l1 -1l-1 -1v2z" />
    <glyph glyph-name="question" unicode="?" horiz-adv-x="642" 
d="M583 804v-6q3 -6 -3 -31q-6 -17 -25 -60l-12 -18q-7 -10 -23 -33t-26 -35q-6 -7 -40 -60q-12 -18 -21 -25q-3 -2 -8 -12l-3 -4q-3 -5 -4.5 -6.5t-4.5 -3.5t-7 -2q-10 -2 -8 -11q2 -8 -10 -14q-1 -1 -2.5 -2t-2.5 -2q0 -2 1 -3q5 -3 4 -4t-4 -5.5t-5.5 -6t-7.5 -0.5
q-1 -1 -4.5 -4t-4.5 -5t-1 -6q1 -3 -9 -8q-7 -6 3 -12h-1q0 -6 -4 -7q-18 -2 -23 -20q-4 -2 -7 -10.5t-8 -10.5v-5q-1 -1 -3.5 -3t-3.5 -4t-1 -5q-4 -3 -9 -12t-10 -12q-2 -1 -1 -5t-2 -6q-2 -1 -5.5 -4t-4.5 -3v1v-1h-1h1v-1q3 -6 -4 -24q-4 -1 -5.5 -6t-3.5 -5
q-4 -1 -4.5 -6t-0.5 -6q0 -2 -2 -4q-13 -8 -24 -33q-3 -8 -11 -20.5t-11 -18.5q-16 -33 -20 -65q-1 -8 -9 -13q-10 -6 -21 -4q-16 3 -29.5 19t-12.5 31q1 4 1 12t0.5 13.5t3 12t6.5 11.5q2 2 6 10q13 29 57 104q16 26 46 78q18 31 41 65l63 93q63 91 72 106q2 4 17 23.5
t21 31.5q10 18 11 28q0 3 7 15q19 28 25 46q6 14 5 22l3 24v13q0 18 -19 14q-30 -8 -54 -22q-4 -3 -17 -8.5t-19 -10.5q-4 -4 -15 -12.5t-17 -13.5q-22 -20 -32 -28l-37 -34q-5 -5 -7 -8q-7 -10 -22.5 -25.5t-19.5 -20.5q0 -1 -2 -2.5t-2 -2.5q-6 -11 -23 -35.5t-25 -39.5
t-29 -15q-8 0 -24 2q-16 4 -31 22q-11 13 0 35q23 44 57 86q76 93 171 152q55 33 107 40q35 5 74 -11q23 -11 43 -25t26 -33q1 -3 2.5 -7t1.5 -6q6 -17 5.5 -27t-8.5 -30zM271 319h1h-1zM272 318v-1v1zM138 -92q11 -8 8 -19q-1 -3 -2.5 -16t-4.5 -20q-4 -10 -8 -14
q-8 -9 -22 -9q-21 3 -39 20q-1 1 -4.5 5t-6.5 5q-11 3 -6 13q2 3 -0.5 7.5t-1.5 6.5t5 18t9 23q11 13 26 9q28 -7 39 -22q2 -1 4 -3.5t4 -3.5z" />
    <glyph glyph-name="at" unicode="@" horiz-adv-x="1030" 
d="M661 381q-1 -1 -3 -1t-3 -1v-3q0 -3 2.5 -11.5t2.5 -13.5q-1 -4 -5 -11.5t-5 -9.5q-1 -1 -15 -56q-2 -11 2 -17q7 -3 21 3q16 8 19 10q8 6 27 16.5t28 17.5q37 36 54 61q21 31 58 107q19 35 25 75q7 52 -12 82q-13 21 -34 24q-71 8 -101 3q-60 -9 -83 -17q-3 -1 -7.5 -3
t-8.5 -3.5t-8 -2.5q-40 -11 -44 -11l-18 -6l-36 -18q-24 -10 -37 -13q-4 -1 -8 -5.5t-7 -5.5q-24 -11 -49 -28q-13 -7 -23 -15q-2 -2 -10 -6.5t-11 -8.5q-11 -4 -26.5 -16.5t-21.5 -16.5q-6 -5 -10 -11l-9 -12q-51 -48 -84 -98q-5 -7 -12 -21t-8 -17l-24 -53q-5 -9 -6 -18
q-7 -82 -1 -108q11 -49 44 -93q10 -14 35 -26q39 -19 93 -14q63 6 116 26q6 2 22.5 6t25.5 7q14 6 40.5 16.5t37.5 15.5q66 28 99 43q19 9 54 26t51 24q5 2 19.5 9t21.5 11q33 16 71 38q1 1 6 5q1 -3 -2.5 -8t-3.5 -7h1v-5h-1q-1 -2 -7 -6.5t-8 -8.5q-1 -2 -4.5 -3t-4.5 -2
q-5 -1 -13 -7q-5 -4 2 -9q-14 -7 -40 -25q1 -3 4.5 -3.5t3.5 -2.5q-33 -28 -82 -44l1 -1v1l2 -1h2q6 -2 2 -6t-8 -5l-44 -23l1 1l-1 -1q-1 0 -1 -1q-10 -9 -38 -17v1v-1h-1q-2 -2 -4 -3q-12 -4 -43 -18.5t-49 -19.5q-4 -1 -12 -5.5t-11 -5.5q-25 -11 -55 -19q-4 -1 -12 -4
t-12 -4q-24 -7 -98 -18q-26 -3 -63 1q-30 4 -65 23q-46 23 -80 71q-15 21 -37 69l-13 25q-9 16 -9 36q1 6 -0.5 17t-1.5 15q-4 47 18 108q17 50 39 82l6 9t7.5 10.5t8.5 6.5v-2v1l1 1q0 6 1 8q48 54 69 73q4 2 6 2v1q2 -2 5 0h-1q3 2 5 5v-1q7 3 4 9h1q14 14 20 16h-1
q5 7 15 10l3 -7q0 3 2 7h-1q5 0 13 8q5 1 13 9q5 2 5 4q4 1 7 6h1v1q-3 -2 -8 -2q1 5 10 10l57 33q2 2 5 2q14 5 39.5 18t38.5 18q5 2 14 6.5t16 7.5t14 4q11 2 30 8.5t25 8.5q9 2 27 7.5t27 8.5q12 3 34 7q8 0 11 1q20 10 64 6q46 -6 47 -6q24 -6 34 -13q4 -2 6 -2
q48 -20 83 -88q8 -18 8 -36q1 -22 -2 -52q-6 -49 -30 -101q-31 -64 -43 -80q-6 -8 -16 -28q-29 -44 -87 -86q-23 -18 -80 -44q-10 -5 -31 -7q-16 0 -27 7q-2 1 -13 8t-16 12q-15 14 -18 31l-6 23q-5 0 -7 -2q-17 -13 -46 -27q-32 -15 -64 1q-18 10 -34 24q-30 28 -20 74
q7 26 23 51q32 53 96 95q18 14 40 20q9 2 13 1q69 -7 99 -50q18 -24 20 -36q4 -25 -20 -31zM516 605v1l-1 -1h1zM339 572l1 1v-1h-1zM335 568l1 1zM322 559l1 1zM180 418h1l-1 1v1v-2zM615 413q1 0 3 2q-2 4 -4 4l-3 -1q-1 -2 1 -4t3 -1zM596 411q2 2 2 5q-1 3 -5 1
q-7 -3 -10 -9q11 0 13 3zM572 357q5 18 11 50q-6 3 -20 -4q-17 -8 -49 -38q-32 -32 -46 -63q-2 -4 -4 -12q-1 -1 0.5 -2.5t3.5 -0.5q15 6 31 14q1 0 5 3t6 3q9 1 24 14q9 8 29 22q6 5 9 14zM154 376q3 3 2 5h-2v-5zM866 180v-1q-1 0 -1 1h1zM706 70v-1h-1zM666 52h1h-1z" />
    <glyph glyph-name="A" unicode="A" horiz-adv-x="470" 
d="M402 141q-2 -1 -2.5 -4.5t1.5 -5.5q10 -12 -1 -20q-3 -2 -4 -5t-1.5 -7.5t-1.5 -6.5q-2 -5 -5 -20t-7.5 -24.5t-13.5 -16.5h-4q-1 1 -1.5 3.5t-0.5 3.5q-2 10 -6.5 33.5t-6.5 36.5l-6 42q-6 38 -21.5 110t-18.5 85q-4 26 -18 31q-20 -20 -75 -26q-7 -1 -39 -1
q-21 0 -27 -19l-2 -3q-4 -24 -21.5 -67t-22.5 -64q-8 -30 -8 -35q-1 -5 -14 -62q-5 -20 -16 -31q-14 -14 -17 -38q-2 -10 -7 -30t-6 -25q-4 1 -6.5 8.5t-6.5 6.5q-11 -1 -14.5 4.5t-3.5 15.5q0 51 1 61q2 33 10 99q5 48 31 179q28 143 47 227q22 104 70 264q10 35 11 42
q7 35 34 45q1 0 10 9l-1 1q38 -7 51 -12q14 -7 15 -17q2 -21 30 -55q63 -81 72 -193l18 -206q2 -36 5 -53q8 -37 6 -110q-2 -23 2 -39q3 -12 4 -25.5t1 -30.5t1 -26q0 -23 -14 -29zM265 464q14 5 12 22q-12 102 -19 152q-2 15 -9 18q-5 -5 -6 -8l-54 -180q-2 -6 -4 -29
q30 9 80 25zM282 375l2 1h-1z" />
    <glyph glyph-name="B" unicode="B" horiz-adv-x="530" 
d="M21 14q3 13 15.5 28.5t15.5 21.5q4 6 9 -2q4 -6 3 -10q-7 -24 15 -44q13 -11 21 -33q10 -23 22 -32q44 -30 88 -19q76 20 133 85q14 16 52 85q8 15 16.5 32.5t18.5 39t16 33.5q41 85 32 181q-7 52 -51 67q-6 2 -16 8q-9 4 -4 15q1 3 5 9q27 41 69 129q6 12 15 41.5
t17 44.5q6 10 17 39q15 40 13 66q-1 18 -8.5 27.5t-25.5 15.5q-44 15 -88 -15q-18 -12 -46.5 -41.5t-33.5 -34.5q-50 -50 -61 -73q-3 -6 -9 -16q-10 -16 -29.5 -48.5t-29.5 -48.5q-10 -13 -16 -12q6 30 6 32q12 39 50 192q18 70 -10 132q-17 38 -61 51q-10 4 -18 -2t-9 -17
q-2 -19 -6 -39q-1 -7 -32 -124q-9 -40 -30 -125.5t-32 -130.5q-16 -73 -31 -165q-14 -95 -19 -162q-9 -101 -3 -139q3 -25 20 -42zM137 180q-5 -11 -10 -19q-1 -2 -3 -7.5t-4.5 -8t-7.5 -0.5q-6 3 -1 20l6 21q3 12 3 13q-4 11 -3.5 23.5t2 20t6 23t5.5 20.5q3 12 32 82
q13 30 44 81.5t42 74.5q10 21 28 41q17 18 51 69q8 12 24 34.5t19 26.5q7 9 16 17.5t21 18t18 14.5q1 1 3 0.5t3 -1.5q2 0 2 -3q0 -1 -1 -6t-2 -8q-41 -101 -85 -172q-41 -68 -60 -88q-2 -2 -18 -31q-10 -18 4 -33q7 -7 10 -18q13 -27 43 -23q4 2 6 2q19 3 26.5 -3t6.5 -24
q-5 -120 -36 -199q-21 -57 -71 -97q-22 -19 -50 -25q-18 -4 -33.5 3t-22.5 22q-16 38 -10 55q3 8 0 17q-12 25 1 56q1 3 1 10q-3 0 -5 1z" />
    <glyph glyph-name="C" unicode="C" horiz-adv-x="440" 
d="M366 310q-6 -12 -19 -36t-18 -37q-42 -119 -143 -204q-25 -20 -30 -22q-14 -7 -18 7q-2 6 -2 7q-14 81 -2 167q6 51 33 136q31 98 34 106q23 60 106 228q26 52 33 80q8 29 48 77q2 2 7 0q4 -2 4 -5q0 -5 -1.5 -21t1.5 -21q13 -64 -13 -129q-27 -61 -29 -100
q-2 -30 -7 -38q-6 -10 6 -19q9 -7 20 4q41 39 48 67q3 9 18 50q37 93 42 191q2 50 -40 77q-25 17 -28 19q-22 18 -65.5 16.5t-65.5 -24.5q-4 -4 -14 -13.5t-15 -15.5q-70 -84 -116 -180q-64 -132 -112 -281q-23 -70 -26 -114q-11 -125 8 -210q17 -81 54 -133q17 -23 50 -37
q38 -13 79.5 -0.5t63.5 44.5q5 7 21.5 33.5t27.5 39.5q6 8 8 16q1 19 19 42q11 18 11 26q0 10 11 30q24 45 15 94q-2 10 -1 29.5t0 29.5q5 6 4.5 8t-4 7t-3.5 9z" />
    <glyph glyph-name="D" unicode="D" horiz-adv-x="540" 
d="M191 -32h32q65 8 98 66q32 56 51 109q22 62 64 186q3 7 12.5 29t12.5 35q37 130 51 200q16 72 9 168q-3 44 -27 77q-31 40 -47 49q-39 23 -72 23q-78 0 -142 -45q-39 -26 -73 -66q-19 -24 -37 -6q-12 11 -27 2q-20 -14 -43 -17q-15 -3 -11 -21q7 -38 -5 -110
q-9 -44 -40 -45q-13 0 -8 -18q19 -47 21 -52q12 -30 10 -47q-9 -115 -5 -222q2 -55 1 -82q0 -9 4.5 -40.5t-1.5 -40.5q-1 -4 3 -12q18 -38 28 -56q15 -26 35 -27q8 0 16 -8q35 -32 90 -29zM406 745q-2 -73 -20 -175q-25 -129 -35 -167q-17 -70 -54 -191q-7 -22 -39 -88
q-16 -33 -50 -58q-32 -25 -75 -17q-15 2 -9 17q2 2 1 3q-3 32 -2 48t5.5 47t5.5 47q1 15 1 94q0 40 5 70q15 114 23 182q4 22 9 31q55 94 105 138q42 38 107 53q11 3 15.5 -1t6.5 -17v-16z" />
    <glyph glyph-name="E" unicode="E" horiz-adv-x="420" 
d="M82 -30q1 0 13 1t19 2q31 7 54 15q3 1 20.5 6.5t24 8.5t17.5 10.5t17 18.5q1 3 4 5t7.5 4t6.5 3q74 46 115 98q13 16 56 59q9 11 -3 14q-39 7 -66 -5q-86 -37 -148 -78q-61 -40 -120 -53q-15 -4 -20 1t-2 21q0 3 1.5 8t1.5 6q17 67 22 86q16 61 36 123q2 11 11 12
q28 6 113 31q11 3 30 10t35 11.5t31 5.5q14 0 20 6q16 15 44 22q3 2 5 9q0 1 -4 5q-54 14 -69 13q-61 -6 -85 -14l-71 -21q-2 -1 -6.5 -2.5l-7.5 -2.5t-6.5 0t-5.5 4q-6 8 3 27q13 38 40.5 114t41.5 114q12 39 49 46q4 1 17 5q14 5 45.5 14t54.5 17t44 19q8 4 23 8.5t21 6.5
q8 3 17.5 15.5t16.5 15.5q1 0 3 2q14 9 16 33q2 19 -16 20q-7 0 -29 1.5t-32.5 2t-27.5 -0.5t-31 -5q-8 -2 -24.5 -5.5t-24.5 -5.5q-42 -10 -100 -26q-21 -7 -33 5q-19 20 -67 16q-19 -1 -24.5 -7t-7.5 -25v-11q-2 -18 -19 -21q-23 -5 -28 -3q-8 2 -11 2q-11 0 -15.5 -7.5
t0.5 -16.5q13 -22 12 -36q0 -5 11 -14t12.5 -12.5t-3.5 -16.5l-54 -155q-24 -70 -37 -115q-17 -62 -49 -186q-4 -19 -12 -56t-13 -56q-3 -18 -1 -20q10 -16 17 -65q1 -10 11 -18q57 -47 114 -43z" />
    <glyph glyph-name="F" unicode="F" horiz-adv-x="440" 
d="M308 460q-6 -2 -15 -3.5t-13 -2.5q-43 -9 -59 -11q-13 -2 -16.5 2t-1.5 17q0 7 1 11q4 12 12 52t18 61q2 4 2 14q1 9 8 49q4 25 28 31q18 5 120 46q7 3 19 11t18 10q8 3 23.5 8t27 10t20.5 13q1 1 3 1.5l4 1t3 0.5l42 9q22 4 29 18q6 14 21 18q2 0 12 8q3 3 1 6q0 7 -6 7
q-46 4 -70 -1q-148 -30 -276 -71q-7 -2 -10.5 -2t-6.5 2t-6 9q-16 31 -54 24q-12 -2 -36 -2q-18 0 -24 -17q-1 -3 -2.5 -8.5t-3 -10t-3.5 -8.5q-7 -17 -14 -21t-24 -3q-9 3 -10 3q-12 -2 -17 -4q-12 -2 -13 -10q-1 -9 6 -16q4 -3 17 -14.5t21 -16.5q20 -12 13 -37
q-1 -5 -24 -115q-16 -83 -30 -175q-4 -29 -11.5 -88.5t-12.5 -88.5q-9 -53 -19 -159q-1 -12 -1 -68q0 -19 11 -33q4 -5 11.5 -5t9.5 5q2 8 11 20.5t11 19.5q1 5 9 10t9 11q4 23 24.5 60t25.5 53q0 1 4.5 12t5.5 17q1 7 3 19.5t4 22.5t5 18q8 22 11 40q3 19 9.5 54.5
t9.5 51.5q4 20 19 22q15 3 28.5 10.5t32 22t23.5 18.5q7 5 7 12q0 8 10 18q9 7 16 32z" />
    <glyph glyph-name="G" unicode="G" horiz-adv-x="510" 
d="M-12 240q1 -7 2.5 -35t4.5 -44q11 -54 32 -111q14 -45 54 -69l39 -24q42 -24 88 -15q69 13 101 39q13 10 18 -7l2 -17q9 -45 22 -72q10 -20 20 -26q11 -8 17 0q9 9 25 42q11 18 9 44q-4 59 3 89v7v8.5v7.5q-1 12 -2.5 36.5t-2.5 36.5q-4 51 19 99q2 4 7 19q23 56 -24 95
q-25 21 -35 44q-6 13 -14 17q-4 2 -10.5 -1.5t-8.5 -3.5q-6 -1 -20 -1q-10 0 -15 -10q-2 -3 -4.5 -9t-4.5 -9q-20 -20 -2 -36q2 -1 2 -13q0 -7 -0.5 -20t-0.5 -19q1 -28 -12 -58q-8 -17 -40 -91q-3 -6 -20 -38q-16 -32 -65 -47q-28 -9 -38 19q-14 36 -25 79q-5 16 -3 42
q1 17 6 48t6 44q3 21 22 107q15 61 33 93q18 31 41 79q7 18 31 66q9 20 37 61.5t38 67.5q1 4 4 7.5t7 2.5q3 -1 4.5 -3t1.5 -4v-5v-5q2 -17 -8 -31q-12 -19 4 -40l11 -12q16 -16 24 -13.5t19 18.5q1 2 2.5 6t2.5 6q5 17 7 22q10 28 3 58q-7 35 -3 63q2 18 -9 38.5t-29 28.5
q-21 8 -61 14q-23 3 -37 -16q-78 -93 -117 -161q-33 -58 -59 -107q-31 -57 -46 -102q-5 -16 -9.5 -33.5t-9.5 -39t-8 -33.5q-21 -78 -26 -173zM441 265l-4 2l-2 1q-4 4 0 13q2 4 4 4q5 1 7 -6q3 -8 -5 -14z" />
    <glyph glyph-name="H" unicode="H" horiz-adv-x="510" 
d="M351 363l2 -10q-2 -23 -7.5 -74t-8.5 -78q-9 -92 -9 -123q0 -63 -2 -94q-2 -21 7 -73q2 -12 19 -29q10 -8 16 0q9 11 12 23q1 6 2.5 12t3.5 13.5t3 12.5q2 11 9 15q16 9 18 37q1 25 5.5 52.5t11.5 61t10 51.5q24 130 24 133q3 26 28 187q24 136 31 204q6 63 -6 94
q-10 27 -43 79q-6 9 -14 17q-16 19 -24 -3q-23 -53 -32 -111q-4 -27 -8 -57t-8.5 -66.5t-7.5 -56.5q-2 -14 -7 -41t-7 -41q-1 -14 -16 -17q-10 -2 -14 -2q-119 -11 -160 -18h-3q-13 0 -11 11q0 9 3 18q4 19 12.5 56.5t12.5 56.5q17 90 0 189q-7 39 -29 57q-14 11 -25 -3
q-14 -19 -17 -40q-2 -13 -10 -57t-13 -68q-23 -98 -36 -222q-1 -20 -21 -26q-43 -14 -86 -11q-16 0 -27 -7q-9 -5 -11 -13t5 -14q15 -11 30 -36q19 -26 53 -36q23 -6 25 -6q9 -1 14.5 -2t8.5 -4.5t4 -5.5t1.5 -9t1.5 -11t1 -25q7 -83 33 -133q2 -3 3 -11t3.5 -12.5
t10.5 -3.5q5 1 7 6.5t2.5 13.5t2.5 12q4 8 2 35q-3 45 10 86q1 4 4 25q0 3 1 9t1 9q3 24 25 28q7 1 20 4t19 4q71 17 88 23q43 14 57 15z" />
    <glyph glyph-name="I" unicode="I" horiz-adv-x="380" 
d="M467 787q3 -2 1 -8t-2 -8q0 -4 -0.5 -7l-1 -6t-2 -6l-2.5 -5t-3.5 -5.5t-3.5 -4.5t-4 -4.5t-4 -4.5l-4.5 -4.5l-4.5 -4.5q-23 -23 -63 -29q-27 -3 -76.5 -4t-65.5 -2q-17 0 -25 -1q-11 0 -11 -11q0 -6 0.5 -18t0.5 -18q-2 -133 -7 -182q-18 -148 -18 -224q0 -6 -2 -22
t-2 -22.5t3 -22.5q0 -1 2 -4t2 -5h15t13.5 5t13.5 6q40 15 57 10q-6 -12 6 -13q6 -1 17 -1h-1q-14 -8 -16 -11.5t2 -16.5q0 -1 3.5 -3.5t3.5 -4.5t-5 -5l-23 -9q-2 -1 -7.5 -3.5t-8 -3.5t-6.5 -4t-6 -6.5t-3 -8.5q0 -4 -10 -9q-59 -37 -101 -52q-6 -3 -7 -3q-41 -12 -59 -6
t-42 42q-15 23 12 31q32 10 43 25t11 47q0 17 -3 25q-14 48 -12 148q1 57 7 171q1 13 4 62.5t3 76.5v18q-1 10 -12 10q-17 -2 -27 -9l-32 -21q-14 -9 -30 -2q-20 11 -30 32t-4 44q7 33 18 53q11 19 27 21q7 1 37.5 7.5t46.5 6.5q1 0 4 0.5t4 0.5q6 0 17 6.5t19 3.5
q16 -5 39 -5h178q15 0 45 -1t44 -1q7 0 18.5 -4t16.5 -4q1 0 13 -12zM273 176l1 -1h-1v1zM173 153z" />
    <glyph glyph-name="J" unicode="J" horiz-adv-x="410" 
d="M41 209q-16 -16 -33.5 -48.5t-19.5 -49.5v-3q1 -5 2 -16.5t2 -18t3.5 -15.5t7.5 -16q2 -4 5 -12.5t4 -9.5q2 -5 8 -16t9.5 -19.5t4.5 -17.5q23 -24 35 -33t30 -8.5t45 14.5q56 29 80 74q8 14 18 27q12 16 23 37t17 34.5t17 41.5t15 37q9 23 23 104q10 59 10 160
q0 79 -14 189q-12 107 -29 153q-3 9 -13 27t-13 27q-4 12 -11 18.5t-19.5 11.5t-16.5 8q-2 1 -4.5 3.5l-3.5 3.5q-17 8 -38 5q-6 -3 -6 -8q5 -13 6 -38t2 -32q25 -129 32 -251q7 -109 -16 -266q-14 -96 -63 -223q-5 -14 -32 -67q-5 -9 -14 -6q-3 1 -7.5 2t-7.5 2t-5.5 4
t-3.5 9q0 6 -5 18.5t-6 19.5q-2 51 -13 68q-1 2 -1 7q0 9 -3.5 32t-0.5 37z" />
    <glyph glyph-name="K" unicode="K" 
d="M792 36q5 -5 1 -10q-2 -7 -12 -3l-30 18q-19 12 -41 12q-22 -1 -44 8q-39 17 -66 10q-24 -5 -45 6q-14 6 -28 -1v1q-10 -5 -19 -1q-22 10 -76 20q-12 2 -17 4q-172 64 -249 114q-14 10 -23 -4q-16 -32 -23 -49q-15 -40 -56 -85q-12 -14 -56 -38q-9 -5 -34 0q-14 3 -16 21
q-2 32 14 58q9 16 18 36t14 33t14 38.5t13 34.5q8 22 22 68q5 17 -1 31q-26 60 21 138q10 16 30 36q17 17 23 43q3 13 24.5 107t32.5 144q12 50 36 97q4 8 16 22.5t16 23.5q20 -6 29 -24q3 -7 8 -12q14 -11 20.5 -27t6 -31t-0.5 -33q0 -8 -7 -38q-7 -32 -21.5 -94.5
t-21.5 -93.5l-1 -10q0 -6 3.5 -9t7.5 -1q13 5 46 13t50 15q74 31 184 54q15 4 24 -2q25 -15 18 -33q9 -12 -9 -18q-6 -2 -10 -2q-17 -1 -84 -15q-44 -9 -131 -47q-2 -1 -11.5 -4.5t-14.5 -5.5q-23 -7 -43 -24q-7 -5 -36 -25q-33 -21 -38 -56q-9 -52 -22 -82
q-5 -12 -3.5 -17.5t11.5 -13.5q17 -13 37 -22q40 -21 191 -79q142 -54 193 -81q74 -37 119 -71z" />
    <glyph glyph-name="L" unicode="L" horiz-adv-x="510" 
d="M129 24q18 -3 52 0.5t44 3.5q2 0 17 5q59 15 131 62q46 32 66 53q8 10 16 13q15 5 34 23.5t25 22.5q4 2 2 7t-7 6q-16 6 -38 3q-7 -2 -23.5 -5.5t-25.5 -5.5q-71 -18 -183 -61l-83 -30q-19 -6 -42 2q-19 7 -19 27q-1 37 17 90t41 106q19 43 93 200q34 70 38 81
q3 8 15 38.5t20 46.5q9 20 2 44t-25 36q-2 2 -6 2q-9 -1 -30 0t-30 -1q-45 -4 -49 -46q-1 -16 -11 -34q-61 -124 -131 -292q-53 -125 -60 -197q-10 -101 53 -164q38 -36 75 -34q8 0 22 -2z" />
    <glyph glyph-name="M" unicode="M" horiz-adv-x="790" 
d="M-2 123v-20q-3 -35 17 -78q13 -31 46 -31q37 1 65 28q10 10 28 47q21 44 44 88q42 79 65 134q11 27 85 169q3 7 9 3q5 -3 5 -5q17 -81 16 -104q-2 -28 11 -50q34 -64 83 -35q44 25 60 44q13 16 61 48q6 4 10 4q8 0 8 -6q2 -22 2 -32q-2 -52 23 -126q10 -27 34 -51
q35 -35 76 -7q15 11 17 26.5t-11 29.5q-14 17 -16 43q-3 67 13 128q14 58 22 86q4 13 4 40q-1 22 -17 42.5t-34 20.5q-67 0 -97 -22q-6 -5 -56.5 -39.5t-74.5 -56.5q-5 -5 -15 -11q-5 -3 -9 -0.5t-4 7.5q0 65 -7 105q0 5 0.5 10.5t1.5 12t1 10.5q2 22 4 32q2 27 -10 63
q-9 28 -31 29q-2 1 -7 2t-7 2q-43 10 -66 -26q-5 -8 -41 -67q-76 -130 -114 -196l-18 -30q-2 -3 -6 -3q-6 0 -4 9q12 74 22 110q38 142 45 241q2 29 2 85q1 32 -28 53q-5 4 -10 4.5t-12 -0.5t-9 -1q-34 4 -44 -37q-2 -6 -4 -18l-3 -18q-5 -20 -21.5 -87.5t-24.5 -104.5
q-31 -136 -39 -189q-3 -19 -8.5 -56t-8.5 -56q-21 -136 -23 -193z" />
    <glyph glyph-name="N" unicode="N" horiz-adv-x="640" 
d="M896 1072q5 -2 8.5 -6t1.5 -6q-6 -7 -8 -21.5t-3 -18.5q-26 -70 -65 -112q-27 -31 -94 -126q-34 -49 -113 -189q-9 -18 -19 -43q-4 -8 -13 -35t-17 -40q-5 -25 -15.5 -51t-25 -56.5t-21.5 -47.5q-41 -103 -55 -144q-16 -44 -18 -68q0 -5 -3 -14t-3 -11q-3 -10 -16 -17
q-39 -16 -71 5q-35 23 -55 50q-32 42 -88 159q-22 50 -34 75q-8 16 -15 24q-2 4 -7 4t-6 -5q-16 -50 -21 -76q-16 -80 -17 -123q-1 -21 -10 -49l-2 -5q-2 -5 -2.5 -5.5t-2 -4t-3 -4t-4 -1.5t-5.5 -0.5t-7 1.5q-1 0 -17 -5q-35 -11 -49 15q-13 23 -30 60q-4 9 -2 28
q25 187 51 292q4 15 23 79q4 11 17 17q26 12 56 29q3 1 13 -1q18 -8 36 -30q14 -16 10 -33q-6 -29 25 -55q10 -8 40 -45q36 -43 66 -118q10 -25 23 -52q5 -12 11 -12q4 0 11 13q3 7 9.5 21t9.5 21q12 30 41.5 83.5t34.5 62.5q6 11 18 35q19 38 38 54l-1 1q5 0 3 5
q-2 10 8 28l1 1q3 2 7.5 6.5t7.5 6.5h-1q12 9 13 14t-6 16l1 -1l55 93q3 -9 -1 -17q7 -4 12 3q19 21 20 24q42 69 49 79q-11 -2 -18 -6q-3 3 2 13q27 45 74 100q4 6 13.5 18t15 19t14.5 16.5t18 16.5q6 4 9 11q2 8 7.5 15.5t9 10.5t14 11t12.5 9q22 14 55 9zM779 965l1 1
l-2 1zM757 947q6 2 13 9.5t9 8.5q-13 -1 -16 -3.5t-6 -14.5zM736 917q17 13 20 28q-22 -9 -20 -28zM732 917l1 -1q1 0 2 1h-3zM672 832q9 7 16 16.5t15.5 22.5t13.5 19q0 5 -1 6t-3 1t-3 -1q-4 -5 -12 -14.5t-14 -18t-10 -16.5q-4 -6 -2 -15zM588 722v-1q1 -1 1 -2t1 -1
l-1 2q-1 1 -1 2z" />
    <glyph glyph-name="O" unicode="O" horiz-adv-x="500" 
d="M-12 331l3 -74q14 -100 73 -189q31 -46 79 -65q13 -5 18 -3q6 2 20 5t24 6.5t19 8.5q54 32 98 79q63 65 110 158q63 121 45 256q-4 37 -17 56q-62 95 -150 104l-15 3q-10 2 -12 8q-1 6 8 10q18 10 27 11q19 2 40 20q8 7 6 12q-10 38 -31 49q-59 28 -96 17q-7 -2 -33 -2
q-13 0 -22 -4q-13 -4 -23 -13t-22.5 -22t-18.5 -19q-2 -2 -7 -10.5t-11 -11.5q-5 -3 -7 -12.5t-5 -13.5q-11 -13 -20.5 -31t-14 -28.5t-14 -36t-11.5 -31.5q-12 -30 -15 -46q-26 -136 -25 -191zM372 496q-2 -11 -3.5 -33.5t-4.5 -42t-9 -36.5q-45 -125 -104 -181l-11 -15
q-21 -28 -77 -68q-15 -11 -20 7q-39 138 -1 290q4 16 8 17t18 -10q9 -8 19 -5.5t13 12.5q1 6 9 20.5t8 24.5q0 14 11 22q12 7 23 37q6 17 26 45q14 18 34 19.5t37 -14.5q32 -30 24 -62v-27z" />
    <glyph glyph-name="P" unicode="P" horiz-adv-x="510" 
d="M169 331q5 -3 14 -24q10 -24 40.5 -32.5t53.5 6.5q42 28 82 79q25 34 36 43q44 36 67 78q19 39 43 60q9 7 17 27l30 65q24 53 28 99q3 28 -7 52q-11 27 -37 28q-36 2 -54 0q-57 -5 -95 -34q-51 -37 -94 -82q-5 -5 -18 -17.5t-21.5 -22.5t-15.5 -21q-4 -6 -10 -12
t-15.5 -14.5t-15.5 -14.5q9 56 10 59q1 5 3.5 14.5t3.5 12.5q13 39 25 71q18 43 -18 73q-11 9 -16 8q-6 -1 -21 0.5t-21 -0.5q-19 -4 -28 -20q-31 -63 -46 -123q-20 -73 -21 -79q-30 -132 -43 -198q-5 -28 -10.5 -59t-12 -68.5t-10.5 -58.5q-16 -93 -22 -145q-2 -15 -2 -71
q-1 -21 20 -36q9 -2 10.5 -2.5t10 3.5t9.5 5q11 5 15 14q7 17 19 25q3 2 4.5 4.5t2.5 5.5t2 5q5 8 18 60q3 10 18.5 61.5t19.5 79.5q0 9 4 14q6 8 31 60q9 17 17 22zM475 718q1 -14 -9 -34q-32 -84 -36 -101v-1l-1 -2q-11 -21 -38.5 -80t-46.5 -89q-25 -38 -74 -70
q-22 -15 -32 14q-2 4 -2 13v11q-1 9 -0.5 16.5t-1.5 16t-8 14.5q-4 4 1 16q33 66 70 120q54 82 127 139q23 17 39 24q12 5 12 -7z" />
    <glyph glyph-name="Q" unicode="Q" horiz-adv-x="480" 
d="M445 679l2 -3l-2 2q-8 8 -19 16q-13 8 -14 26q-3 42 -32 85q-18 29 -50 26q-13 -1 -36 -5t-34 -5q-27 -1 -51 -25q-27 -27 -75 -100q-9 -13 -22 -40t-16 -32q-2 -5 -9 -18t-10 -20t-6.5 -18.5t-4.5 -22.5q-9 -14 -19.5 -43t-17.5 -41q-12 -21 -27 -71q-20 -66 -12 -123
q13 -94 56 -167q20 -35 67 -56q38 -17 73 -3q13 7 19 -9q17 -39 31 -60q12 -18 23 -22q5 -2 13.5 2t9.5 4q2 1 7 1q11 1 23 15q18 21 9 57q-7 28 -11 66q-1 21 12 40q5 7 15.5 20t18 24.5t12.5 22.5q1 3 20 38q5 8 14 24t14.5 26t12 24t10.5 27q3 7 7 20.5t6 20.5
q25 72 30 135q6 79 -25 149q-1 2 -12 13zM313 714l-3 -1l1 3zM176 233l3 -79q0 -13 -3 -17q-7 -11 -17 -11.5t-17 9.5q-33 45 -34 88q-1 65 17 130q23 82 95 211q9 17 23 8q5 -4 17.5 0t17.5 2q4 -2 10 9q20 42 81 47q15 1 21.5 -3.5t10.5 -16.5q12 -36 8 -63
q-8 -62 -29 -106q-6 -12 -16.5 -34.5t-19 -40.5t-17.5 -34l-11 -14q-3 -3 -7 -2t-4 5q-1 13 -9 21t-14.5 11t-20.5 7q-24 7 -42 6q-11 -1 -29 -11q-7 -4 -9 -23q-3 -25 -3 -53v-46h-2z" />
    <glyph glyph-name="R" unicode="R" horiz-adv-x="460" 
d="M511 890q12 -36 7 -66q-12 -77 -38 -126q-6 -10 -15 -30.5t-14 -30.5q-48 -89 -124 -173q-8 -8 -12 -13q-19 -24 -21 -34t8 -40q20 -65 28 -121q6 -47 18 -98q8 -40 11 -74q1 -11 14 -88q4 -17 0 -27q-6 -13 2 -38q15 -49 13 -62q-2 -20 -12 -21q-11 -2 -21 0
q-33 9 -48 36q-3 7 -11 20.5t-13 24.5t-9 22q-41 119 -47 160q-1 7 -11 45l-48 212q-4 20 -12 25q-19 -12 -18 -34q0 -24 -2 -72q-1 -14 -4 -42t-4 -42q-9 -87 -31 -165q0 -1 -2.5 -7t-1.5 -9q4 -16 -11 -24q-17 -8 -34 2q-9 6 -11 22q-1 19 -5 57q-8 104 -8 117
q0 32 -2 90.5t-2 76.5q-4 132 5 314q3 43 11 96q1 9 3 39t6 46q2 10 3.5 14.5t7.5 8.5t15 3q12 12 50 5q21 -1 29 -22q8 -18 6 -28q-3 -12 -3.5 -26.5t0 -32t0.5 -26.5l-3 -129q0 -8 5 -8q2 0 6 2q2 1 3 1q9 5 18 26q30 57 48 96q10 21 46 80q29 45 64 76q16 16 31 17l1 1
l-2 -1q30 24 95 16q34 -5 46 -41zM401 831q2 6 -3 9q-1 1 -4.5 0t-4.5 -2q-20 -28 -29 -45l-69 -141q-10 -20 -25 -61t-25 -61q-5 -9 -7 -31q-1 -7 8 -15q10 -5 17 1q16 16 17 18q18 25 41 58q3 5 -3 16q3 2 10 7t11 8t2 10.5t0 12.5q1 2 2.5 6.5t2.5 6.5q0 1 1 1
q-1 0 -1 -0.5t-1 -0.5q25 38 33 74q4 19 8.5 40.5t10 48t8.5 40.5zM313 577v1l1 -1h-1z" />
    <glyph glyph-name="S" unicode="S" horiz-adv-x="410" 
d="M387 855q5 -7 0 -14.5t-14 -7.5q-59 -3 -67 -1q-37 8 -58 -9q-14 -10 -11 -24q1 -7 7 -23q6 -21 14 -42.5t19.5 -50t16.5 -40.5q28 -71 47 -172q3 -18 4 -39t0.5 -39t0.5 -39q2 -63 -10 -110q0 -2 -1 -6.5t-1.5 -8t-0.5 -6.5q-3 -69 -45 -138q-8 -12 -34 -63t-46 -75
q-3 -4 -11 -22l-5 -14q-9 -35 -37 -51t-58.5 -12t-54.5 22q-2 1 -9 11q-4 6 -12.5 19t-12.5 20q-10 14 -9 26q0 5 1 7q1 8 -7.5 25.5t-3.5 28.5q3 7 3 15t-1 12.5t-4 15t-4 12.5q-11 41 4 92q22 68 39 99q2 -6 4 -7q3 -2 8 3q5 7 3 19q8 4 14 18q28 58 97 148q8 10 26 27.5
t23 22.5q10 10 -4 16q27 15 30 22.5t-6 37.5q-5 15 -19 55.5t-21 62.5q-16 52 -22 78q-13 58 1 121q5 23 23 34q55 37 108 11q10 -5 29 -12t23 -9q23 -9 44 -46zM196 499v1h1zM244 376q-4 4 -12 -4q-19 -24 -67 -101q-2 -4 -2 -7q2 -10 -10 -33q-45 -96 -48 -196
q0 -15 2 -43q1 -7 7 -9t12 3q2 1 5 4q32 40 41 58q74 142 76 309v7v4q-2 7 -4 8zM40 268l1 1v-1h-1zM25 254l1 -1z" />
    <glyph glyph-name="T" unicode="T" horiz-adv-x="530" 
d="M716 856q-78 -7 -134 -25q-84 -26 -132 -44q-82 -31 -147 -65q-82 -42 -114 -66q-3 -3 -6 -4l-88 -45q-16 -8 -45 -24.5t-53.5 -28.5t-48.5 -19q-1 0 -3 -2q-11 -6 -6 -18q16 -46 60 -67q43 -21 79 -5q44 21 54 28q7 5 60 37q9 6 13 2q4 -5 2 -10q-3 -10 -4.5 -29
t-3.5 -27q-8 -34 -8 -64q-1 -22 -4 -63t-4 -57q-9 -121 -8 -156q4 -73 20 -116q2 -5 11 -26q8 -14 28 -12q15 2 18 19q6 44 6 46q0 36 15 57q7 10 6 24q-1 21 9 63q7 29 27 154q13 92 16 106q18 88 13 181l-1 7q-2 10 9 18q2 2 11 7t13 8t9 9.5t7 13.5q1 3 11 8q10 6 31 20
t37.5 23t33.5 14q16 5 24 15q10 16 45 26q3 1 11.5 3t12.5 4q19 12 93 35q11 3 29.5 14.5t20.5 12.5q3 3 1 10q0 7 -6 7q-6 1 -20 1z" />
    <glyph glyph-name="U" unicode="U" horiz-adv-x="540" 
d="M-1 343q-4 -49 10 -151q9 -60 21 -82q2 -5 36 -58q32 -56 112 -79q14 -4 30 2q63 20 104 57q84 78 138 193q14 31 27 68q4 13 9.5 42.5t10.5 44.5q7 19 11 43.5t5 38.5t2.5 46.5t1.5 40.5q3 48 -42 100q-20 22 -51 19q-13 0 -18 -8q-22 -31 -29 -89q-4 -31 21 -58
q17 -20 8 -48q-1 -2 -2.5 -6t-2.5 -6q-43 -130 -138 -259q-38 -51 -70 -75q-8 -6 -13.5 -7.5t-10 2t-9.5 12.5q-8 14 -9 24q-21 121 -15 195q13 184 30 293q2 15 -7 24q-18 19 -28 19q-5 0 -11 -2q-11 3 -15 2.5t-14.5 -4t-14.5 -4.5q-10 -2 -15 -8t-8.5 -16.5t-5.5 -14.5
q-1 -2 -2 -4.5t-2 -5.5t-2 -5q-49 -145 -42 -276z" />
    <glyph glyph-name="V" unicode="V" horiz-adv-x="410" 
d="M145 753q3 30 -19 43q-3 1 -6.5 6.5t-4.5 6.5q-2 3 -9 5q-19 2 -27 -6q-3 -4 -14 -11.5t-13 -15.5q-2 -10 -1 -14q3 -14 -1 -42q-1 -9 -4 -25t-4 -24q-4 -37 -10 -111q-10 -119 -11 -145l-6 -193q-2 -127 -16 -209q-2 -12 0 -17q12 -26 19 -38q5 -6 12 -8q51 -8 80 27
q17 21 27 54q39 131 46 153q3 10 9 37t12 42q72 178 131 284q34 63 67 114q8 13 63 86q2 2 7.5 10.5t8 12t4.5 10.5t2 14t9 16q30 30 33 32q18 13 35 60q4 10 -3.5 17t-18.5 4q-9 -2 -25 -14q-16 -11 -31 -23.5t-32.5 -29t-27 -26t-30.5 -31.5t-27 -28q-52 -56 -78 -97
q-14 -20 -51 -82q-60 -95 -104 -187q-6 -11 -16.5 -33.5t-15.5 -33.5q-3 -6 -8 -11q-1 -1 -3.5 0t-2.5 2v17q17 133 25 187l24 173z" />
    <glyph glyph-name="W" unicode="W" horiz-adv-x="740" 
d="M869 858q10 -3 10 -7q1 -2 0 -4q0 -2 -0.5 -7t-1.5 -7q-13 -23 -13 -73q0 -36 -21 -70q-19 -33 -14 -50q2 -5 -7 -16q-11 -18 -42.5 -66t-48.5 -75q-74 -118 -113 -190q-23 -44 -60 -100q-31 -47 -54 -61q-6 -4 -25 -25q-22 -28 -39 -35q-13 -6 -17 -22q-6 -22 -12 -26
t-30 -2q-4 0 -12 -2t-12 -2q-11 -3 -21 7l1 -1q-21 13 -30 47q-8 35 -2 96q5 40 25 118q8 34 22 104v14q-3 0 -5.5 -0.5t-4.5 -2t-2.5 -3t-1.5 -4t-2 -3.5q-41 -67 -76 -125q-16 -26 -28 -37q-13 -11 -6 -25q1 -2 -4 -12q-8 -20 -31 -53t-26 -38q-16 -25 -56 -36
q-20 -5 -28 -24q-10 -24 -6 -33q-1 -2 -3.5 -4t-3.5 -4l-2 -5q-3 -5 -4 -6t-4 -2.5t-7 -1.5q-23 0 -33 11q-62 80 -47 169q4 22 10.5 46.5t15.5 53.5t13 45q8 31 24 88.5t18 66.5q11 42 31 128q6 26 17 87q3 13 -2 35q-4 19 -0.5 24t20.5 7q33 7 41 11q7 4 26 -1t26 -12
q35 -34 29 -87q-6 -51 -52 -211q-12 -41 -38 -141q-2 -3 -4 -13q0 -2 -5.5 -14t1.5 -15q4 1 7.5 4.5t5 5.5t4 7.5t3.5 6.5q2 4 85 131q47 73 82 117q5 7 20 28.5t24 32.5q21 27 44 50q9 9 34 11q5 -17 5 -22t-5 -18q-10 -24 -4 -51q11 -46 4 -77q-2 -13 -3.5 -41t-4.5 -41
l-40 -199q-4 -16 -4 -25q0 -2 -2.5 -7t-2 -8.5t5.5 -5.5q8 -2 18 15q53 81 65 103q75 132 147 240q68 100 104 150q9 13 24 38t23 37q22 35 68 105q8 14 20 9zM75 7v-1v1z" />
    <glyph glyph-name="X" unicode="X" horiz-adv-x="530" 
d="M611 769q7 -48 -21 -72q-26 -22 -53.5 -50.5t-46.5 -50.5t-48.5 -58t-45.5 -54q-7 -8 -36.5 -45.5t-48.5 -54.5q-17 -15 -12 -39q24 -123 73 -203q1 -2 4 -7t3.5 -7t0.5 -6.5t-3 -8.5q-4 -8 7 -15q15 -8 15 -30l1 1q-8 -8 0 -19q5 -9 3 -13q-1 -5 -6.5 -7.5t-7.5 0.5
q-12 13 -38 33.5t-37 31.5q-5 5 -23 20.5t-25 26.5q-16 26 -36 70l-9 19q-7 14 -13.5 15.5t-17.5 -11.5q-18 -23 -59.5 -67t-60.5 -68q-8 -9 -27.5 -28.5t-28.5 -31.5q2 8 -5 8q-5 0 -11 -8q-18 -29 -53 -37q-1 0 -25 -9q-6 25 12 52q14 23 44 64.5t43 61.5q25 36 71 102
t63 91q17 24 9 50q-23 78 -62 115q-8 8 -9 11q-11 29 -35 60q-6 7 -2.5 12.5t12.5 6.5q14 2 42 4q18 1 46 -15q51 -32 86 -84q8 -11 12 -11t14 11q10 12 43.5 56t52.5 68q3 4 22.5 27t26.5 30.5t22.5 24.5t28 29.5t26.5 23.5l5 5q10 25 51 21q3 0 10 -2t10 -2t11 3q2 2 7 -1
q27 -23 29 -39zM-80 -7l-1 1h1v-1z" />
    <glyph glyph-name="Y" unicode="Y" horiz-adv-x="570" 
d="M38 417q2 -48 5 -73q1 -18 7 -49q13 -64 59 -79l3 -2q13 -13 47 -17q21 -3 41 6.5t29 29.5q5 16 7 17q12 10 27 32t21 28q5 6 9.5 12.5t10 15t9.5 13.5q35 50 67 94q5 5 10 3t5 -9q-6 -40 -11 -61q-38 -188 -56 -268q-19 -83 -30 -209v-27q1 -8 2.5 -23.5t2.5 -22.5
q9 -65 9 -68q2 -12 11.5 -16.5t21.5 -0.5q25 10 32 26q20 50 22 61l39 164q9 43 13 52q14 38 35 130q25 111 47 254q8 49 5 107q-1 42 -18 83q-16 35 -50 38q-45 6 -65 -30q-33 -60 -90 -125q-14 -16 -41 -48.5t-41 -48.5q-13 -16 -41 -46q-8 -10 -20 -18q-5 -4 -10.5 -1
t-5.5 10q0 4 0.5 11.5t0.5 11.5q1 21 5 43t10 51t8 43q15 89 13 141q0 35 -9 53q-13 28 -25.5 35.5t-43.5 3.5q-32 -5 -37 -37q-18 -98 -26 -148q-15 -89 -14 -142z" />
    <glyph glyph-name="Z" unicode="Z" horiz-adv-x="630" 
d="M799 146q2 -2 -2 -2q-6 -3 -13 -3q-5 -1 -15 -1t-17.5 -1t-13.5 -4q-9 -3 -25 -11t-25 -12q-2 -1 -21 -8.5t-29 -9.5q-6 -7 -14 -11.5t-14 -5.5t-17 -2t-16 -2q-83 -13 -235 -5q-72 4 -162 26q-31 8 -73 13q-25 5 -46 -1q-15 -3 -29 -3q-13 0 -24.5 8.5t-14.5 20.5
q-7 28 -3 38q6 24 2 34q-3 5 6 16q4 4 11.5 12.5t14 14.5t12.5 11q20 18 40 54q65 112 115 167l54 57q9 11 7 18h-1q-8 1 -40 -14q-30 -14 -92 -38q-16 -5 -63 -12q-20 -3 -36.5 8.5t-24.5 31.5q-2 4 -1 7q2 4 4 23t10 27q10 12 4 27q-3 4 1 13q11 25 30 12q17 -13 40 -4
q76 24 105 35q83 28 180 44q63 10 124 -21q8 -4 14.5 -9.5t16 -16t11.5 -12.5q16 -16 6 -43q-13 -31 -42 -52q-28 -21 -60 -39q-46 -26 -133 -101q-2 -2 -7.5 -7t-8.5 -7q-48 -28 -92 -92q-9 -13 -25 -37t-21 -31q-4 -5 -7 -13q-9 -18 9 -23q13 -3 39 -7l85 -9
q198 -22 387 -23q49 -1 124 -14q5 -2 10 -5q1 -1 1 -6z" />
    <glyph glyph-name="bracketleft" unicode="[" horiz-adv-x="574" 
d="M258 -20h-6q-3 -1 -37 2q-13 0 -13 14v4q1 16 12 68q1 6 5 17t5 15q7 28 7 36q0 3 3.5 9.5t2.5 10.5q-1 11 6 38q5 23 4 30q-2 8 1 12q2 4 5 25q0 7 1 9q9 16 11 58l3 45q2 17 6 53q2 20 5.5 43t8.5 50.5t7 43.5q2 12 5.5 36.5t5.5 37.5q3 15 6 42t5 39l15 72q7 32 25 65
q23 39 30 45q5 16 27 18q44 8 66 10q19 2 28 -1q8 -3 21 2q8 2 6 8l-1 9q-1 8 -5 12q-23 23 -38 27q-57 19 -92 10q-4 -1 -13 -1q-21 0 -61 -14q-19 -6 -25 -28q-2 -6 -5 -12t-7.5 -12.5t-6.5 -10.5q-2 -3 -6.5 -11t-6.5 -12q-21 -46 -32 -103q-1 -4 -2.5 -12.5t-2.5 -12.5
q-2 -14 -7 -42.5t-7 -43.5q-1 -13 -6.5 -47t-6.5 -53q0 -22 -7 -52q-5 -22 -9.5 -64t-7.5 -58q-2 -11 -5.5 -33.5t-5.5 -34.5q-1 -5 -4.5 -28.5t-4.5 -35.5q-6 -46 -11 -69q-2 -4 -4 -16q-1 -7 -3.5 -21t-4.5 -22q-1 -3 -5.5 -19t-6.5 -25q-10 -48 -13 -72q-4 -20 4 -34
q2 -4 14 -16q43 -43 105 -46q44 -2 85 18h2q3 2 3 17q-2 12 -11 15h-2q-11 -4 -27 -4h-27z" />
    <glyph glyph-name="backslash" unicode="\" horiz-adv-x="730" 
d="M671 -58q2 -15 9 -22q-3 -1 -11 -7.5t-15 -4.5q-5 -3 -26 -1q-14 1 -16 15q0 4 -1.5 8.5t-4 9.5t-3.5 8q-6 13 -23 26q-3 1 -5 5q1 0 4 0.5t5 0.5q4 -1 5 1t-1 5q-2 6 -2 8q-1 4 -6 2q-5 -6 -10 -1q-9 9 -8 17q2 7 -6 10q-6 1 -12 11q-4 2 1 5q1 1 3.5 2.5t3.5 2.5v-1h1
q-3 4 -10 7.5t-9 6.5q-4 5 3 5q7 2 1 6q-11 9 -12.5 13t2.5 18l-1 6q-6 0 -9 7t-5 8q-9 5 -15 25l4 3q4 3 -2 6q-18 14 -19 34q-3 23 -4 26q-2 3 2 5q6 5 -2 8q-15 6 -11 17q3 6 -2 9q-5 2 -6 5q-8 20 -11 30q0 2 2 4q3 1 4 2.5t0 3t-4 2.5q-13 5 -12 18q0 1 -2 3.5t-2 3.5
q-4 6 -7 16q-2 4 1 7l8 8q-1 0 -2.5 1.5t-2.5 1.5q-11 -1 -17 14t-6 16q0 4 -3.5 9t-3.5 6l-6 14q-1 1 -3 7t-5 8h-3l1 1q0 9 2 11q0 2 4 4q5 3 -1 6h-4q1 -4 1 -10q-6 5 -17 30q-8 21 -10 23q-5 3 -3 9q2 4 -2 8q-13 11 -16 29q-1 3 -6.5 10t-3.5 13q0 3 -4 5q-6 6 -8 18
q-2 7 -9 18t-9 17l-12 12q-5 23 -22 34q-8 7 -7 15v-1q4 4 0 6h1q0 3 -4.5 5t-5.5 4q-2 13 -4 14l-1 1h-1v1q-9 13 -22.5 38t-19.5 34q-3 5 -16.5 23.5t-18.5 30.5q-1 2 -9 7q-9 8 -4 18q8 17 34 39q8 7 25.5 10t21.5 5q4 0 6 -1q19 -10 24 -21q2 -6 8 -15t8 -13
q16 -26 23 -39q7 -11 6 -16q-1 -8 7 -20q11 -19 31 -57q6 -11 17 -32t15 -27q20 -38 30 -58q3 -6 2 -8q-1 -7 8 -24q14 -30 20 -45q6 -19 22 -44q-4 -8 2 -14q2 -2 3 -5t2.5 -6.5t2.5 -5.5l18 -46q2 -5 7 -14.5t7 -14.5q2 -4 9.5 -27.5t13.5 -35.5q7 -12 14 -36
q3 -9 8.5 -26t8.5 -25q8 -22 26 -66q22 -56 32 -84q2 -6 6.5 -15l6.5 -13q16 -40 23 -60q2 -7 7.5 -20t9 -23.5t4.5 -20.5zM242 713v1v-1zM349 568q3 0 2 3l-3 3q-1 -2 -1 -4q-1 -2 2 -2zM363 544q1 0 1.5 1t-0.5 2q0 3 -2 3l-3 -2q2 -4 4 -4zM393 478q2 0 2 3
q-1 2 -3.5 7.5t-3.5 8.5q-2 -13 1 -18q1 -1 4 -1zM402 459q1 1 1 6q-2 5 -4 4q-4 -1 -2 -6l2 -1zM410 440q3 0 1 2l-3 3q0 -1 -0.5 -2t-0.5 -2q2 -1 3 -1zM415 427l1 1v1l-1 1l-1 -1v-1zM436 384q3 0 1 2q-3 3 -7 13t-12 15l14 -29q0 -1 1.5 -1.5t2.5 0.5zM446 349q6 0 4 4
l-9 22h-2q2 -16 4 -24q0 -2 3 -2zM434 350v2l1 2q-3 -2 -1 -4zM462 314h2l-2 1v-1zM480 265l3 -2q-2 2 -2 3l-3 2v-2q0 -1 2 -1zM481 260l1 1zM560 56q1 1 1 4q-5 12 -14 23q-2 -12 9 -27q3 -1 4 0zM568 35q1 -1 2 -1v2h-1zM574 -21v1l1 -1h-1z" />
    <glyph glyph-name="bracketright" unicode="]" horiz-adv-x="504" 
d="M383 385h1v6h-1q0 2 3 9t3 9.5t-4 10.5q-1 1 1 8q10 24 10 53h1v5h-1q0 22 1 33q7 93 6 125q0 3 -1 11t0 13q2 11 2.5 32.5t1.5 29.5q4 76 0 125q0 24 -4 34q-18 43 -46 59q-4 2 -11.5 5.5t-11.5 6.5q-19 14 -50 12q-40 -4 -60 -7q-10 -1 -21.5 -3t-25 -5t-21.5 -4
q-2 -2 -2 -5.5t-1 -4.5q-4 -10 7 -21q9 -8 53 -28q7 -3 17 -1q7 2 17 4q7 1 19.5 4.5t23 5.5t19.5 2t10 -7q6 -29 3 -67q-1 -8 -1.5 -18t-1 -21t-0.5 -17q0 -51 -1 -61q-4 -28 -4 -82v-31q-11 -99 -19 -135q-6 -24 -19 -91l-9 -49q-11 -56 -16 -120q-8 -82 -8 -123
q0 -7 -1 -21.5t-1 -22.5q0 -27 -25 -37q-10 -3 -30 -11q-37 -16 -41 -19q-7 -5 -19.5 -15.5t-17.5 -14.5q-3 -2 -5 -7q-4 -13 1 -19q6 -6 18 -2q7 2 10 1q14 -7 34 4q26 13 44 13q13 1 36.5 4t32.5 4q1 0 3 0.5t3 1.5q8 7 28 11q11 3 14 17q8 44 9 66q0 38 4 67q2 26 1 39
q0 8 5 13q8 8 0 13q-5 3 -3 15q8 40 16 60q6 13 0 25q-5 9 1 14q5 4 6 9q3 13 10 49q-3 2 -1 9t2 10q-1 4 7 22z" />
    <glyph glyph-name="asciicircum" unicode="^" horiz-adv-x="793" 
d="M693 584q0 -8 -1 -9q-9 -15 -23 -23q-13 -8 -25 -8h-14q-10 -2 -11 7q0 1 -3 3q-2 0 -2 -3t-1 -4q-26 37 -30 54q-1 0 -1.5 -1.5t-1.5 -1.5q-3 1 -1 3.5t2 3.5q-6 1 -7 7q0 6 -3 5v1q0 4 -1 4h-1q-2 -2 0 -4q-5 5 -2 9q2 5 -3 7q-3 2 -1 5q1 1 -2 3q-2 1 -2.5 -1.5
t-1.5 -2.5q-2 2 -3.5 8t-3.5 8v4q3 1 1 5q-1 1 1 3q-1 2 1 2q-6 4 -7 -3q-2 2 0 7q2 4 0 6q-1 1 -2.5 0t-2.5 -1t-3 -1q0 1 -1.5 3.5t-1.5 4.5q0 1 1 2l2 -1l4 -4q2 0 3 1q0 2 -1 2q-6 2 -4 9v5q2 2 -2 2q-2 0 -2 -2v-1q-2 -5 -4 -5q-2 1 -1 3q1 1 1 1.5v1.5v2q-1 3 -4 1
q-3 -3 -3 2q0 2 -3 8q-2 6 -1 8q1 1 -3 5l-2 1q-1 0 -1 1q-1 5 -11 17q3 1 4.5 -1t2.5 -2l1 1v12q0 3 -3 3q-1 0 -1 -3q1 -2 -2 -4q-2 0 -3 2l1 3q2 4 0 5l1 1q1 0 2 1q-1 2 -0.5 9.5t-2.5 8.5q1 -5 0 -6t-6 -1q-1 0 -3 -1l-2 -1q-2 3 1 3l2 2q-1 1 -1 7t-3 8q-2 2 -5 15
l1 -1q3 -3 4 0q0 2 -1 3t-4 -2l-2 2q-2 9 -11 12q1 1 3 0t2 0q0 3 -3 5l-3 -2l-1 -1q-1 -3 -3 -2q-5 3 1 6q3 3 1 10q0 3 -3 3q-2 0 -2 1q0 3 -5 19q0 1 -2 2h-1.5t-1.5 1q1 1 4 1.5t4 1.5q-4 3 -6 13q0 1 -2 3l-3 3q-2 -1 -2 -3v-3l-1 1q-1 2 -4 11q0 3 -3 6q-2 2 -1 6h-1
q3 1 3 6q0 1 -2 3q-2 0 -2 -1q-2 -2 -2 -3q-5 -2 -5 3q0 3 -3 6q2 1 0.5 4t-1.5 4q0 2 -1 2q-5 5 -2 11v3q-1 1 -3.5 10t-5.5 13l-1 1q-5 -5 -8 -6q-5 -1 -5 -8q0 -3 -5 -15q-13 -35 -15 -38q-10 -25 -13 -29q-2 -2 -4 -7t-2 -6q-2 -5 -9 -16.5t-10 -18.5t-8 -13
q-3 -4 -9 -13t-9 -13q-8 -12 -13 -17q0 -1 -1.5 -2.5t-2.5 -3.5q-3 -5 -10.5 -14t-10.5 -15l-9 -9q-9 -11 -30 -29q-3 -2 -7 -8q-5 -8 -10 -8q-3 -1 -5 -5q-3 -4 -10 -8.5t-9 -5.5q-5 -5 -15 -11q-33 -19 -36 -20q-4 -1 -11 -4t-11 -4q-2 -1 -7 -1.5t-7 -2.5
q-1 -1 -1.5 -0.5t-0.5 2.5q0 3 -2 2l-1 -1q-5 -2 -5 3l1 1l-2 2q-5 0 -2 4v6q-1 2 2 4q5 0 5 4q2 6 6 6t12 4l35 15q4 1 4 7q0 8 7 4q0 -1 1 0l2 2q2 1 5 3t4.5 3.5t3 4t1.5 5.5q0 1 10 11q2 2 2 -1t1 -3q1 2 5 7.5t5 9.5q2 7 6 10q4 2 4 6q0 2 2 4q2 0 4 4q2 0 2 -2
q2 -4 5 -4q1 0 3 5h-2l-1 1q0 6 2 7l3 3q2 8 9 6q-3 11 6 18q2 3 6 7q4 7 9 5v1q0 1 -1 2.5t0 2.5h1q2 -1 2 -5v-3q7 3 4 9v-1h-2q0 9 1 10q2 3 5.5 10t6.5 10q-1 3 2 6t3 5t2 2q2 2 2 3t8 9v5t4 6v-2q1 -2 2 -2l1 1q0 1 1 6t0 8q-1 4 5 8q3 1 2 4q-2 2 0 9q5 13 5 14v2
q10 14 11 29q0 3 2 7t2 6q0 1 0.5 1t0.5 1q6 4 6 12q0 2 1 3q2 2 3 8t4 8q0 5 5.5 14.5t4.5 16.5q0 3 4 3q6 -3 7 3q0 3 3 2q8 -2 10 4q0 2 3 2t4 2q1 6 8 6q8 1 22 7q7 3 11 -1q14 -9 17 -14q10 -12 15 -28v-1q5 -6 10.5 -20t9.5 -20q8 -11 10 -21q1 -7 7 -17
q1 -2 2.5 -4.5t2.5 -5.5t2 -4l6.5 -13l6.5 -13q22 -44 38 -80l15 -27q5 -11 15 -31q1 -1 2 -3.5t2 -4.5l2 -4h1q-1 -6 5 -14t6 -13q0 -2 3 -5.5t3 -5.5q3 -5 8 -15.5t8 -15.5q16 -24 20 -27q1 0 1 -2t1 -2q6 -13 13 -22q2 -2 2 -4q5 -14 17 -18q5 0 6 -2zM413 963q2 0 2 4
q-2 4 -3 4q-4 0 -1 -3q0 -4 2 -5zM428 952l2 1l-2 2q-1 0 -1 -2q0 -1 1 -1zM441 925q1 -7 5 -9q-1 1 -2 4t-3 5zM452 914q1 -1 3 -4t4 -4q0 2 -0.5 6.5t-1.5 6.5q-6 -4 -5 -5zM335 899q4 4 2 7q-2 -4 -2 -7zM439 906l-1 -1v1h1zM330 882q3 3 1 14q0 1 -1 1.5t-2 -0.5
q-2 -2 -1 -3q5 -3 -2 -5q-1 0 -1 -3t-2 -11q-1 -2 1 -3q3 0 3 2q1 4 4 8zM468 869q-1 4 0 8q0 2 -2 2l-2 -1v-3.5t1 -4t3 -1.5zM321 858q1 0 1.5 1t-0.5 2t-4 1q-1 0 -3 -3.5t-1 -5.5h3q2 4 4 5zM469 848l3 -10q0 7 -3 10zM482 839q3 4 -3 8q-3 -6 3 -8zM304 834q2 -2 3 0
q0 6 -3 8v-8h-3q0 -9 1 -11q1 1 1 2q1 2 1 4.5v4.5zM294 807q2 8 4 18q-9 -4 -4 -18zM276 794q4 -2 4 1q0 2 -1 2q-2 0 -2 -3h-1zM505 791q3 3 -1 6q-3 -3 0 -6h1zM267 777l1 1q2 0 2 1l-1 2q0 1 -1 1q-2 0 -2 -3q-2 -2 1 -2zM256 764q4 2 6 6q0 1 -1 1h-2q-2 -4 -3 -7z
M238 741q3 0 2 4zM524 734q-2 -5 -2.5 -6.5t0.5 -2t5 -1.5q-3 4 -3 10zM214 710q2 4 2 8q-4 -4 -2 -8zM526 712l6 -6q0 6 -6 6zM557 646q2 6 -1 10q0 -8 1 -10zM570 617l-1 1z" />
    <glyph glyph-name="underscore" unicode="_" horiz-adv-x="822" 
d="M294 69h-59q-19 -1 -58 -2t-58 -2q-7 0 -10 -3q-11 -10 -8 -23q3 -23 21 -34l10 -7q13 -9 27 -8h39q104 0 134 2q12 1 69 1l48 -3q15 1 44 0t38 -1q24 0 36 -3q8 -4 23 0q10 3 20 3h52q9 0 26 2.5t23 2.5q7 0 6 7q0 1 2 5q12 20 -9 25q-2 0 -4 0.5t-4 0.5t-43 6
q-5 1 -103 15q-2 0 -7.5 0.5t-8.5 0.5t-7.5 1.5t-7.5 4.5q-1 1 -8 1q-58 4 -87 5z" />
    <glyph glyph-name="a" unicode="a" horiz-adv-x="697" 
d="M597 658q0 9 -1 24.5t-3.5 38t-3.5 36.5q-4 61 -48 121q-4 6 -8.5 10.5t-10.5 7.5t-10.5 5.5t-12 4.5t-11 3t-13 3t-11.5 2q-2 1 -7 -2q-10 -13 -40 -20q-21 -5 -23 -28q0 -7 -10 -37q-12 -31 -38 -86t-35 -77l-66 -150q-7 -16 -20.5 -47.5t-20.5 -46.5q-1 -2 -4 -8.5
t-4.5 -9.5t-5 -7.5t-8.5 -6.5q-11 -3 -7 -17t1 -18q-5 -6 -9.5 -14t-6.5 -13.5t-5.5 -16t-4.5 -14.5q-10 -25 -27 -73t-25 -67q-2 -6 -13.5 -44t-23.5 -56q-1 -2 -1 -7q6 -25 34 -55q6 -8 16 -6q43 5 58 36q10 16 13 25q7 18 58 149q6 15 17.5 45t17.5 45q4 11 7.5 12.5
t16.5 -0.5q4 -1 13.5 -2.5t14.5 -2.5q61 -12 92 -3q4 1 7.5 -2t3.5 -8q0 -18 -4.5 -63t-3.5 -69q0 -38 -3 -57q-5 -29 3 -85q5 -44 45 -74q11 -8 18 1q5 5 7 8q35 36 30 72q-2 25 6 33q10 10 12 36q2 19 5 28q8 26 10 67q0 8 1 17t2.5 19.5t2.5 16.5q22 164 24 220
q0 4 1 12.5t1 12.5q10 108 11 182zM324 405q-1 15 6 29l30 72q14 37 17 54q2 14 17 47q6 14 42 94q2 7 8 3q4 -2 4 -5v-78q-7 -117 -6 -196q0 -10 -2 -32q-3 -16 -20 -17q-18 -4 -28 1q-9 6 -20.5 10.5t-26 9.5t-21.5 8z" />
    <glyph glyph-name="b" unicode="b" horiz-adv-x="560" 
d="M511 308q8 -11 3 -26q-5 -11 -20 -75q-7 -27 -17 -44q-26 -50 -48 -109q-6 -16 -26 -29q-37 -23 -91 -31q-21 -4 -49 10q-61 31 -86 71q-15 24 -6 43q3 5 5 15q15 -2 18 -8q2 -5 6 -10t9.5 -11t8.5 -9q34 -45 93 -27q58 19 86 68q26 43 39 89q5 16 5 58q-1 26 -27 34
q-30 10 -82 23q-13 3 -20 -8q-8 -10 -10 -12q-27 -27 -53 0q-6 5 -16 17l-1 -1q-4 22 6 33q2 2 5 7.5t5 8.5q77 107 99 256q1 7 3.5 24t3.5 26q1 7 -2 15q0 1 -2.5 2t-3.5 0q-1 -2 -4 -4.5t-5 -5t-3 -5.5q-47 -77 -101 -180q-38 -71 -44 -91q-13 -51 -38 -114
q-21 -52 -21 -118v-12t-2 -15q-10 -22 -12 -88q0 -10 -3 -19q0 -2 -3 -2t-3 2q-2 2 -2 3q-2 2 -2 6v7.5t-2 5.5t-7 2q-4 0 -6 -3.5t-3 -10.5t-2 -9q-2 -7 -4 -19q5 -2 9 -6q6 -6 0 -13q-9 -9 -20.5 -7.5t-14.5 12.5q-16 60 -19 79q-4 27 -9 112q-12 151 -4 308q8 179 20 268
q3 24 10 144q1 17 11 49q2 10 12 7q33 -9 67 -38q4 -3 6 -9q31 -78 26 -133q-1 -11 0 -23q4 -51 -7 -136q0 -3 -0.5 -9.5t-0.5 -9.5q0 -16 4 -17q9 -3 14 11q1 2 1 3q14 39 34 50q4 2 8 13q11 22 39 64t39 66q16 32 59 26q18 -3 28 -19q28 -52 22 -89q-2 -12 -4 -26.5
t-4.5 -31.5t-3.5 -27q-12 -75 -50 -200q-8 -25 -2 -46q5 -17 20 -21q24 -6 38 -7q58 -6 104 -74z" />
    <glyph glyph-name="c" unicode="c" horiz-adv-x="410" 
d="M316 236q-5 -2 -7.5 -9t-3.5 -8l-15 -21q-39 -60 -110 -144q-8 -10 -35 -30q-14 -10 -23 6q-11 19 -16 51q-4 33 -4.5 45t2.5 44.5t4 44.5l12 99q7 82 33 175q5 17 14.5 53t14.5 53q2 7 4.5 21t4.5 21q3 12 56 150q8 21 28 41q4 4 10 2q5 -2 5 -8q4 -40 4 -60
q0 -14 -1 -29.5t-2.5 -34.5t-2.5 -29q-1 -19 -3.5 -56t-3.5 -54q-2 -15 -6 -21q-11 -18 1 -51q9 -23 45 -32q7 -2 10 1q2 1 10.5 8t11.5 10t7 10.5t4 15.5q0 17 4 52.5t5 53.5q0 18 3.5 56t2.5 58q-1 6 1 18q6 30 4 114q-1 29 -20 50.5t-49 28.5q-25 2 -32 2t-31 -6.5
t-31 -7.5q-8 -1 -19 -16q-6 -9 -12 -17q-49 -49 -89 -149q-28 -70 -55 -199q-13 -58 -15 -80q0 -20 -3 -39q-1 -13 -4 -36t-5 -42t-3 -36q-2 -24 -4 -71.5t-4 -70.5q-4 -77 47 -162q2 -3 5 -5q7 -3 28 -20.5t39 -15.5q5 0 7 -7q5 -6 15 -8q18 -3 42.5 12.5t31.5 17.5
q12 3 17 11t8 16q7 17 9 20q3 5 10.5 18t11.5 20t8.5 18.5t5.5 22.5q0 5 5 10q5 6 5.5 18t1.5 16q2 5 7.5 17t7.5 19q2 8 0 28q0 4 -2 13t-2 14z" />
    <glyph glyph-name="d" unicode="d" horiz-adv-x="630" 
d="M223 743v46q1 27 -22.5 47.5t-52.5 14.5q-16 -3 -21.5 -8t-8.5 -20q-2 -12 -21 -86q-24 -90 -42 -185q-13 -66 -35 -200q-12 -65 -15 -95q-10 -98 -29 -150q0 -1 -0.5 -3.5t-1.5 -3.5q0 -3 -1.5 -10.5t-2 -10.5t-1.5 -10t-1 -11t0.5 -10t1.5 -10.5t3.5 -10t5.5 -10.5
q2 -3 2 -17q-2 -22 17 -36.5t40 -8.5q24 8 34 9t12 11q3 9 8 27t8 27q11 37 14 70q7 78 34 127q1 2 2.5 6.5t2.5 6.5q8 30 32 67q56 87 72 123q14 30 38 51q21 21 43 61q2 4 6.5 12.5t7.5 12.5q60 95 143 134q20 9 26 5.5t5 -24.5q-7 -93 -40 -203q-36 -115 -43 -147
q-17 -72 -54 -162q-28 -64 -92 -68q-8 0 -33 -2t-38 -2q-34 2 -40 23q-1 6 -6.5 7.5t-9.5 -2.5q-27 -22 -4 -48q5 -5 11 -8q12 -5 13 -15q2 -10 8 -12q3 -1 16.5 -8.5t22.5 -8.5q19 -2 34 -9q22 -12 55 -7q1 0 29 3q15 0 37 11q38 18 59 59q56 109 73 134q3 4 8 16
q23 71 27 92q6 32 21 79q17 49 33 121q12 59 17 134q2 28 -22 58q-3 4 -9.5 11t-9.5 11q-11 15 -44 27q-5 2 -13.5 3t-11.5 2q-9 4 -20 -1q-48 -22 -59 -26q-34 -15 -65 -49q-37 -44 -88 -125q-38 -62 -54 -84q-29 -41 -39 -76q-10 -40 -33 -67q-2 -2 -6 -2q-7 0 -5 7
l18 105q5 21 14.5 63t13.5 63q2 9 7.5 31.5t8 34.5t5.5 31t4.5 35.5t0.5 32.5z" />
    <glyph glyph-name="e" unicode="e" horiz-adv-x="420" 
d="M-37 176v-19q0 -59 42 -103q33 -33 77 -36q13 0 16 1q47 15 64 27l138 93q9 7 10 8q5 12 29 34q18 18 19 28q0 2 4.5 23t-0.5 23q-3 10 -6.5 13.5t-12.5 2.5q-18 -1 -52 -15q-95 -40 -177 -102q-8 -6 -24 -16q-4 -2 -8 -0.5t-4 5.5q0 17 1 20q3 13 7 37t8 44t9 37
q3 14 6 16t14 -2q18 -5 41 0q30 6 64 27q12 8 14 13q2 16 21 23q10 4 19.5 18t14.5 18q2 2 0 6q-1 3 1 19q1 12 -10 13q-37 0 -61 -6l-77 -21q-5 -1 -8 2t-2 7l17 59q3 8 14.5 43t16.5 54q4 12 7 18.5t10.5 12t19.5 5.5q6 1 18 7q31 11 156 74q39 21 54 27q36 13 53 34
q11 14 28 20q18 6 20 15q2 5 5 10t7 10t6 8q3 5 5.5 16.5t6.5 16.5q3 4 -1.5 10t-9.5 6q-17 -2 -25 -5q-16 -4 -46 -14q-76 -24 -82 -27q-23 -10 -96 -38.5t-111 -47.5q-2 -1 -6 -2.5t-6 -2.5q-11 -6 -18 1q-19 18 -59 6q-2 0 -5 -1t-5.5 -1.5t-4.5 -0.5q-13 -1 -17 -12
q-3 -7 -8 -20.5t-9 -24.5t-7 -21q-4 -17 -14 -49q-33 -109 -47 -170l-3 -22q3 -23 -12 -58q-4 -9 -8 -25l-9 -53q-11 -58 -12 -96z" />
    <glyph glyph-name="f" unicode="f" horiz-adv-x="490" 
d="M426 515q-6 5 -17 3q-43 -4 -89 -24q-75 -34 -92 -41q-12 -6 -20 -7q-9 -2 -9 7q6 52 12 70q5 14 13 16q19 6 47 32q13 11 44.5 37t47.5 41q5 5 17 13l151 118q28 22 38 27q13 7 38.5 22.5t38.5 22.5q25 12 51 53q5 8 5.5 15.5t-4.5 22.5l-4 15q-1 2 -4.5 3.5t-4.5 0.5
q-32 -6 -45 -12q-84 -35 -119 -56q-177 -106 -272 -190q-8 -7 -26 -19q-3 -2 -6.5 -0.5t-4.5 5.5q-1 5 -2 15.5t-2 16.5q-3 21 -12 31t-30 14q-35 6 -44 -25q-4 -11 -16 -66q-4 -19 -12.5 -74t-16.5 -84q-14 -47 -19 -83q-20 -114 -29 -151q-18 -69 -7 -167q2 -25 14 -77
q8 -34 45 -28q29 5 33 40q9 57 16 77q13 39 14 65q0 10 3 17q5 15 8.5 32t7 38t5.5 32q3 14 7.5 16.5t20.5 -0.5q10 -2 30 -5.5t22 -3.5q10 0 14 1q54 16 86 54q8 8 59 84q1 2 3.5 7.5t5.5 9.5t7 6q5 2 3 12v21z" />
    <glyph glyph-name="g" unicode="g" horiz-adv-x="490" 
d="M317 852v-2q-39 0 -46 1q-17 0 -26 -9q-37 -30 -60 -61q-61 -85 -74 -108q-87 -149 -113 -276q-24 -110 8 -219q3 -11 9 -23.5t10.5 -20t14 -21t12.5 -19.5q11 -6 30 -21.5t31 -21.5q89 -43 188 5q28 14 38 26q20 22 58 68q11 14 18 34q4 18 8 24q9 13 20 57q4 16 11 95
q0 12 -2 13q-9 5 -18 30q-7 16 -24 20q-37 8 -67 7q-12 0 -17 -4q-51 -40 -44 -84q3 -11 5 -12q4 -3 13 4q7 6 21 19t21 19q13 11 21 11q3 1 6 -0.5t2 -4.5q-2 -7 -2 -25t-4 -27q-46 -110 -129 -178q-13 -10 -47 -25q-16 -5 -28 1q-26 17 -35 35l-18 42q-6 16 -6 39
q-1 70 30 160q15 43 45 101q57 111 112 185q5 7 47 54q6 7 12 5t9 -12q8 -25 2 -56q-2 -14 8 -30q11 -15 30 -15.5t31 15.5q23 30 13 75q0 1 -5.5 17t-4.5 24q2 18 -18 53q-23 39 -57 34q-4 -1 -39 2z" />
    <glyph glyph-name="h" unicode="h" horiz-adv-x="570" 
d="M554 488q2 -1 3 -3.5t-1 -4.5q-12 -6 -22.5 -25.5t-18.5 -25.5q-4 -3 -6 -20q-18 -102 -22 -116q-3 -11 -8.5 -32t-8.5 -30q-7 -23 -16 -42q-15 -31 -27 -78q-4 -17 -38 -75q-7 -14 -5 -23q1 -8 -3 -10t-13 -3q-1 2 -2 5l-2 4q-22 7 -24 39q-3 35 3 71q19 132 38 224
q0 3 1 4q3 22 -1.5 25t-26.5 -5l-34 -9q-85 -18 -98 -20q-20 -4 -25 -26q-8 -32 -10 -49q-20 -108 -28 -132q-10 -26 -9 -41q1 -8 -1.5 -15t-7 -15.5t-6.5 -13.5q-4 -13 -18 -5q-25 13 -36 42q-20 56 -20 130q0 11 1 32t1 32q0 5 -3.5 8t-7.5 2q-24 -4 -35 -9q-17 -7 -59 -5
q-37 3 -56 34l-21 33q-10 15 6 24q7 4 13 5q87 33 146 48q11 3 14 4q27 7 31 36q1 6 39 232q4 24 9.5 72t5.5 52q1 9 -4 57q-2 18 1.5 23.5t21.5 13.5q33 14 66 -12q32 -27 36 -67q7 -61 1 -103q-22 -160 -37 -239q0 -7 -1 -11q0 -8 2.5 -11t9.5 -2q41 0 60 3q32 5 61 6
q12 0 24 3q15 3 18 20q3 27 14 95q3 22 8.5 63.5t8.5 60.5q5 33 -2 56q-5 15 5.5 25.5t26.5 8.5q51 -9 75.5 -43.5t15.5 -78.5q-14 -84 -22 -126l-9 -53q-1 -8 8 -10q3 -1 10 -2t11 -2zM368 -1l-1 1h1v-1z" />
    <glyph glyph-name="i" unicode="i" horiz-adv-x="210" 
d="M44 -127q22 52 21 77q0 16 13 26q4 4 9 16t10 16q2 1 3 5t1.5 9.5t1.5 7.5q4 11 5.5 32.5t3.5 30.5q7 34 18 137q5 57 7 67q16 120 25 180q4 27 13 79t13 77q14 80 8 158q-3 56 -46 78q-7 4 -15 5.5t-14 2t-15.5 -1t-14 -2.5t-15.5 -3.5t-14 -3.5t-9 -5q-10 -10 -10 -23
q0 -56 1 -84q1 -18 0 -35q-11 -98 -16 -139q-5 -42 -15 -258q-1 -31 -1 -84v-84v-89t-4 -90q-1 -3 0 -8t1 -7q5 -45 35 -87z" />
    <glyph glyph-name="j" unicode="j" horiz-adv-x="480" 
d="M391 744q1 -43 1 -128t1 -128q0 -2 -9 -146q-2 -41 -15 -98q-12 -54 -47 -209q-11 -47 -49 -75q-4 -2 -12 -8.5t-12.5 -9.5t-12 -6t-15.5 -3l-38 2q-7 6 -21.5 9.5t-19.5 6.5q-15 4 -20 5q-23 3 -31 18q-5 10 -16 -3q-13 17 -37 14q-8 -2 -25 0l9 8q11 11 -1 14
q-20 4 -27 33q-16 61 8 115q2 5 6.5 22t10.5 24q7 10 14 1q21 -21 12 -51q-14 -46 21 -107q10 -15 20 -18q6 -2 17 -6.5t17 -6.5q15 -6 23 11q3 8 14 37t15.5 42.5t11 36.5t10.5 43q4 23 12.5 69.5t12.5 70.5q22 141 25 172q10 162 3 242q-1 0 -1 19l1 20l-3 143q0 12 1 17
q3 18 21 13q8 -2 18 -9.5t13 -9.5q31 -17 55 -48q19 -25 32 -70q7 -26 7 -68zM205 -13l2 2h-3zM11 -16l-1 2q2 0 3 -1q-1 0 -1 -0.5t-1 -0.5zM76 -30h-1v1zM150 -46q6 4 2 8q-4 -1 -5 -3q-4 -4 -5 -7q4 0 8 2z" />
    <glyph glyph-name="k" unicode="k" horiz-adv-x="460" 
d="M163 417q7 9 23 20.5t22 18.5q5 6 18 22.5t21 24.5q21 22 129 127l54 53q19 18 19 55q0 6 -3 11.5t-5 8t-10 8.5t-9 7q-1 0 -3 2q-11 9 -22 1q-2 -2 -7 -5t-7 -5q-23 -23 -68 -68.5t-68 -68.5q-8 -9 -66 -59q-12 -12 -18 -9q-8 4 -3 19q4 14 6 53q1 7 2 28t3 32
q9 79 -31 140q-13 19 -46 38q-6 3 -12 -6q-2 -4 -2 -13q4 -26 -7 -96q-37 -210 -44 -270q-12 -95 -11 -121q1 -27 -2.5 -78t-3.5 -75q0 -14 -2 -75t0 -75q0 -1 12 -4.5t12 -5.5q0 -4 5 -4t5 4q19 0 19 36q3 2 1 7q-1 9 1 18.5t7.5 22t6.5 16.5q4 13 10.5 36t9.5 32
q8 21 9 42q0 7 6 7q8 -3 14 -9.5t12 -16t10 -13.5q45 -49 89 -106q11 -14 29 -43t24 -37l47 -68q24 -33 75 -52q9 -4 13 -3q5 2 20.5 7t22.5 11q11 9 11.5 21t-10.5 21q-32 25 -51 68q-11 23 -26 50q-40 76 -67 110q-14 17 -43 47.5t-36 38.5q-6 6 -15.5 18t-18 21t-17.5 15
q-14 10 -22.5 34t-12.5 30v1q1 2 1 3z" />
    <glyph glyph-name="l" unicode="l" horiz-adv-x="350" 
d="M322 52q-1 0 -2.5 0.5t-2.5 0.5q-1 -1 -5 -1t-5 -1q-85 -18 -169 9q-15 5 -19 10t-3 20t7 50q5 31 15.5 92t15.5 91l18 94q4 21 11.5 63t11.5 63q16 66 17 76q1 6 6.5 41.5t6.5 54.5q0 38 -24.5 67.5t-56.5 36.5q-30 8 -45 11q-23 7 -23 -16q0 -30 -6 -60
q-13 -65 -31 -172q-5 -30 -18.5 -106t-19.5 -118q-18 -111 -33 -222q-2 -21 7 -38q28 -55 46 -76q40 -50 114 -48q30 2 55 10q36 12 54 17q8 3 16.5 7t18 9t15.5 8q19 10 28 27z" />
    <glyph glyph-name="m" unicode="m" horiz-adv-x="790" 
d="M384 313q0 2 -1.5 5.5t-1.5 4.5q2 11 6 32t7 38t5 32q15 96 16 113q1 28 12 102q2 16 -9 48q-1 3 -3.5 5.5t-3.5 1.5q-6 -1 -17 4t-17 3q-1 0 -7.5 -2.5t-8.5 -3.5l-7 -3.5t-7 -4.5t-5.5 -5t-5.5 -7q-6 -10 -18 -28t-20.5 -33.5t-12.5 -31.5q-3 -5 -4 -6q-9 -9 -16.5 -20
t-15.5 -26.5t-12 -22.5l-39 -60q-3 -3 -5 -4q-1 -1 -3.5 0t-2.5 2q-1 3 -1 10q1 13 7.5 35.5t7.5 30.5t4 34t6 40t8 85q0 36 -4 64q-6 54 -56 66q-36 10 -65 -6q-11 -7 -13 -8.5t-5 -7.5t1 -13q5 -21 3 -35q-9 -69 -16 -109q-3 -18 -12 -74.5t-13 -87.5q-1 -8 -24 -170
q-15 -111 -12 -160q1 -12 -3 -24q-2 -9 -2 -20.5t1 -16t4.5 -20.5t3.5 -17q1 -5 9 -15q14 -14 32 -23q32 -18 50 3q3 3 10 5q15 5 15 25q0 10 2 28q13 106 14 121q3 38 30 70q13 16 26 35.5t27.5 43.5t22.5 37q4 6 14 33t32 79q1 2 2.5 4.5t3.5 5.5t3 5q3 3 6 3q5 -2 5 -4
q2 -12 1 -18q-4 -26 -11 -67l-21 -141q-2 -12 3 -17q14 -16 -3 -30q-3 -2 -3 -13q2 -37 27 -60q35 -32 68 7q15 19 38 37q31 21 51 44q10 10 65 55q3 2 7 0.5t4 -4.5q2 -17 1 -25q-3 -25 -3.5 -70.5t-1.5 -61.5q-1 -18 8.5 -50.5t10.5 -35.5q2 -11 13 -16q15 -8 31 -24
q13 -11 26 -10q7 1 16 -4q12 -9 23 4q28 32 44 46q6 5 8 14t-1 11q-3 3 -6.5 3t-8 -1t-6.5 -1q-3 -1 -7 0q-12 0 -11 13q3 54 11 160q1 8 6.5 48t6.5 62q1 19 12 73q3 14 19 58q13 28 -4 54q-16 23 -17 42q-1 9 -14 14l-48 6q-30 3 -48 -23q-25 -36 -49 -67
q-86 -116 -135 -170q-16 -20 -29 -27z" />
    <glyph glyph-name="n" unicode="n" horiz-adv-x="530" 
d="M629 748q-22 8 -29 -6q-19 -43 -50 -72q-4 -4 -6 -9q-12 -24 -39 -72t-46.5 -86.5t-32.5 -75.5q-6 -14 -10 -20q-6 -9 -30.5 -41.5t-34.5 -52.5q-10 8 -12 36q-1 41 -17 80q-27 74 -68 169q-17 42 -35 55q-14 10 -26 35q-9 22 -40 34q-4 4 -30 2.5t-30 -1.5
q-28 0 -35 -31q-14 -66 -16 -99q-5 -55 -7 -67l-7 -40q-18 -167 -22 -201q-11 -74 -7 -205q1 -21 14 -78q3 -11 25 -35q3 -5 9 -1q11 9 13 13q3 8 8.5 27.5t9.5 28.5q5 10 12 29t14 33.5t16 26.5q1 1 4 14q0 2 3.5 16t5.5 21q16 49 23 113q3 23 20 121q0 4 4 4t6 -4
q1 -6 6 -22t7 -25q10 -55 28 -165q11 -68 29 -112q12 -27 38 -36q3 -1 9.5 -3t11.5 -4t9 -5q16 -11 37 -5q23 5 35 17q10 10 7 27q-2 8 -6 14q-12 16 -6 38q4 12 6 25q4 28 19.5 79t17.5 58q4 14 15.5 40.5t15.5 38.5q2 7 7 21t8 25t2 23q-1 4 3 14q6 12 23 52.5t29 61.5
q6 11 26.5 49t32.5 58q16 28 15 45q0 21 18 30z" />
    <glyph glyph-name="o" unicode="o" horiz-adv-x="440" 
d="M404 459v12q5 110 -47 167q-6 8 -8 13q-14 31 -47 40q-19 6 -18 28t-16.5 39.5t-35.5 13.5q-15 -3 -31 3q-16 5 -27 -1q-12 -5 -21 -5q-20 1 -40 -23q-29 -32 -58 -91q-65 -121 -102 -236q-28 -90 -25 -171q3 -60 20 -122q12 -42 59 -95q1 -2 9 -7q45 -30 84 -17
q70 20 97 48q14 14 40.5 39.5t37.5 36.5q3 3 10.5 8.5t13 11t9.5 11.5q41 57 50 73q34 60 37 96q1 14 6 44t6 42.5t-3 41.5zM169 401q-2 13 0.5 23.5t10 22.5t9.5 17q8 20 26 55.5t23 47.5q11 23 50 56q12 9 22 -6q8 -14 13 -33q7 -46 5 -76q-6 -99 -51 -183
q-53 -102 -152 -191q-10 -9 -30 -21q-16 -10 -29 6q-12 12 -15 27q-7 43 -6 56q2 84 28 149q5 13 13.5 38t13.5 37q8 21 21 7q19 -20 48 -32z" />
    <glyph glyph-name="p" unicode="p" horiz-adv-x="550" 
d="M396 417h4q-2 -1 -3 -1q-18 -35 -61 -76q-20 -19 -36 -21.5t-41 10.5q-6 3 -18.5 11.5t-19.5 12.5q-3 3 -7 0q-3 -1 -3 -7q0 -4 2 -12q3 -16 19 -41t20 -34q0 -1 10 -7q20 -10 28 -16q27 -19 58 -1q35 19 49 17q5 0 14 7q55 44 76 90q3 7 41 80q37 72 34 112q0 11 2 16
q15 61 -32 116q-43 52 -107 33q-48 -15 -84 -49q-42 -37 -55 -54q-19 -23 -36 -27q2 22 12 63q15 65 -10 111q-1 2 -5 11.5t-7 14.5q-26 51 -79 64q-17 5 -29.5 -5t-8.5 -26q7 -30 -3 -65q-5 -20 -20 -85.5t-26 -100.5q-21 -66 -31 -122q-3 -19 -18 -88.5t-20 -108.5
q-12 -85 -5 -154q5 -63 58 -120q12 13 17 18q23 18 21 50q-1 15 3 28q3 12 9.5 40t10.5 43q2 14 5 20q16 39 36 113t26 94q2 6 5.5 18t5.5 19.5t6.5 17.5t9.5 17q24 32 55 65q32 34 98 98q37 38 81 55q22 8 22 -14q2 -74 -21 -115q-33 -62 -52 -115z" />
    <glyph glyph-name="q" unicode="q" horiz-adv-x="490" 
d="M0 460q-5 -27 8 -120q15 -110 68 -186q8 -10 26 -30q5 -5 15.5 -16t16.5 -17q26 -30 53 -32q5 -1 17 -7q19 -10 40 1l13 6q23 7 32 -14q16 -40 22 -60q9 -35 30 -95l12 -30q8 -17 31 -22q6 -1 32 11q0 7 7 22t4 25q-2 8 0 25q3 16 -3 46q-5 17 -5 20q-11 79 -45 150
q-13 25 -1 50q33 62 57 119q21 50 21 111q0 105 -28 193q-7 23 -19 34q-16 20 -22 36q-36 97 -150 130q-15 5 -46 5q-17 0 -51 -10t-53 -9h-1q-1 -1 -2 -1q-23 -11 -22 -29q0 -8 -13 -44q-9 -29 -11 -38q-15 -62 -23 -104q-10 -45 -10 -120zM302 273q-12 7 -13 8
q-20 24 -60 54q-14 9 -19 7q-7 -3 -11.5 -11t-3.5 -15q1 -5 2 -14.5t2.5 -17t4.5 -13.5q5 -12 10 -26t11 -31.5t9 -26.5q5 -14 -5.5 -28.5t-24.5 -15.5q-7 -1 -11 7q-29 41 -36 80q-24 138 -13 209q19 114 28 146q0 1 1 3q6 20 21 22q5 0 8.5 3.5t6.5 10.5t4 9q14 20 27 26
q16 10 21 8.5t11 -17.5q7 -18 6 -31q-1 -8 0.5 -16t4 -18t3.5 -15q3 -15 29 -23q2 0 7 -0.5t7 -1.5q2 0 10.5 2t10.5 -1q7 -7 7 -27q-2 -99 -18 -159l-18 -57q-2 -6 -8 -16q-1 -1 -11 -14z" />
    <glyph glyph-name="r" unicode="r" horiz-adv-x="470" 
d="M54 905v-14q8 -19 1 -74q-1 -14 -5 -41t-4 -30q-23 -212 -24 -220q-19 -199 -20 -221q-7 -122 -3 -214q0 -11 0.5 -32t1.5 -32q0 -12 10 -19q25 -17 40 -3q3 3 7 3q9 -7 15 -1.5t7.5 9t3.5 12.5q13 38 16 73q1 6 2 26t2 29.5t4.5 24.5t8.5 27q1 3 1.5 10t0.5 9l15 146v6
t0.5 7t1.5 6t2.5 5t4.5 2q4 1 7 -1.5t4 -5t2 -8t2 -7.5q1 -4 6 -18t7 -21q19 -90 49 -165q41 -104 77 -180q18 -37 62 -107q44 -66 118 -125q18 -15 60 -43t62 -45q3 -2 17 -7q9 -2 17 4t6 14q-5 28 -13 34q-31 26 -38 29q-14 7 -34 23q-62 49 -113 157q-2 5 -4 15
q-2 16 -14 46q-32 79 -57 151q-10 28 -32 100q-4 15 -11 45t-14 53t-15 43q-10 23 7 38q8 8 16.5 18t18.5 22.5t16 19.5q16 16 24 42q15 55 24 110q10 62 -17 120q-8 19 -24 22q-62 13 -88 1q-34 -16 -37 -18q-11 -8 -26 -15q-3 -1 -11 -7.5t-14 -6.5q-5 4 -5 18
q0 16 1 47.5t1 47.5q1 50 -46 63q-12 3 -23 3h-57zM150 451q-4 21 2 39q2 5 6 17t7 18q37 78 69 128q8 12 18.5 22t26 21t21.5 17q4 3 9 1t6 -7q2 -8 2 -11q5 -111 -36 -194q-1 -3 -3 -7.5t-3.5 -8.5t-2.5 -8q-4 -23 -28 -34q-16 -7 -19 7q-1 9 -15 9q-36 0 -60 -9z" />
    <glyph glyph-name="s" unicode="s" horiz-adv-x="400" 
d="M395 848q19 -26 10 -53q-17 -52 -36 -76q-3 -5 -12 -22q-14 -28 -43 -14l-1 1h-2q-31 15 -18 43q8 16 14 59q4 19 5 31q2 16 -6 26.5t-23 9.5q-40 -2 -59 -31q-11 -16 -20.5 -49.5t-12.5 -40.5q-2 -5 0 -11q4 -76 28 -116q8 -12 17 -36t13 -32q4 -9 17.5 -29t18.5 -33
q16 -44 20 -68q3 -22 14 -44q32 -65 28 -134q-1 -10 -1 -30t-1 -30q-5 -68 -51 -151q-2 -2 -2 -3q-9 -25 -27 -40t-49 -30q-10 -6 -29.5 -15.5t-27.5 -13.5q-26 -15 -39 -14q-12 0 -43 11q-1 0 -6 2.5t-7 2.5q-27 -2 -53 28h-1l-15 9q-5 5 2 8q8 3 8 4q0 5 -7 5
q-16 3 -20 18q-3 13 -15 32q-20 32 -14 71q7 43 25 65q42 50 49 85q5 6 13 21.5t15 22.5q22 22 47 17h-1q-6 -7 -17 -31q-3 -7 -14 -30t-19.5 -38t-18.5 -29q-7 -10 -32 -67q-7 -14 1 -24q3 -3 5.5 -8t3.5 -9t2 -10t2 -9q10 -37 27 -48q25 -17 40 4q5 7 11.5 14t15 15
t12.5 13q20 20 27 37q3 7 14 32t15.5 36.5t11 31.5t10.5 37q19 90 -17 167q-5 9 -10 8q-4 0 -8 -6q-1 -2 -14 -25q-8 24 -8 60q0 4 2 7.5t5.5 8t4.5 6.5q10 18 2 34q-1 1 -2 6t-3 7q-15 32 -39 122q-16 63 -2 130q2 7 5.5 22.5t5.5 23.5q14 59 61 93q10 8 15 9q53 15 84 8
q10 -2 29.5 -4.5t29.5 -5.5q37 -9 49 -31q1 -3 5.5 -7.5zM20 -54q6 0 4 6h-5q-7 -5 -8 -5q3 -1 9 -1z" />
    <glyph glyph-name="t" unicode="t" horiz-adv-x="460" 
d="M750 804q-6 4 -7 5q-12 9 -1 14q15 8 45 22q6 4 8 7q2 1 2 6t-4 5q-12 0 -18 -1q-98 -23 -101 -24q-166 -50 -247 -81q-194 -73 -329 -144l-51 -27q-9 -5 -28.5 -17.5t-31.5 -19t-30 -14t-34 -11.5q-4 -1 -5 -5t1 -6q25 -31 26 -44q0 -2 3 -2q43 -24 74 -21q54 4 117 38
q11 6 23 13.5t26.5 17t22.5 14.5q17 11 27 10q3 -16 -8 -53q-8 -29 -25 -87t-25 -87q-28 -102 -34 -142q-2 -12 -4.5 -32.5t-5 -38t-5.5 -32.5q-6 -34 -6 -70q0 -17 3 -25q3 -13 14 -17t21 3q12 9 18 17q6 9 12 20t12 24.5t10 20.5q18 34 22 53q31 123 37 144q25 79 29 128
q0 4 2 11.5t2 9.5q26 113 24 183q0 23 23 32l71 33q15 8 43 19.5t50.5 22.5t40.5 24q2 1 23 9q55 27 74 49q10 11 32 21q12 5 34 14t28 11z" />
    <glyph glyph-name="u" unicode="u" 
d="M531 91q-1 -3 0 -11.5t-1 -12.5q-43 -8 -65 40q-4 7 -5 14q-4 18 -13.5 50.5t-15.5 59.5t-7 52q0 5 -2 15q-3 10 -15 7q-18 -4 -33 -24q-5 -7 -27 -38t-34 -47q-18 -25 -80 -98q-10 -12 -13 -19q-19 -28 -42 -29q-6 -4 -13 -6t-17 -3t-14 -2q-30 -5 -41 20q-4 9 -9 11
q-12 2 -12 8q-2 7 -11 17.5t-11 16.5q-30 73 -32 165q-1 73 15 179q18 119 55 216q9 23 31 96q27 -4 87 -26q29 -11 41.5 -39t-0.5 -56q-8 -19 -47 -146q-18 -60 -40 -184q-10 -56 -8 -138q0 -6 2 -16q2 -13 13 -7q4 2 19.5 11.5t23.5 15.5q16 11 20 17q79 96 116 177
q1 2 5 11t5 14q3 10 19.5 62.5t21.5 81.5q2 17 13 44q6 16 5 30q-4 20 18 40q12 11 32 5q4 -1 8 0t8 0.5t6 -4.5t8.5 -12.5t9.5 -15.5t3 -16q-1 -13 -2.5 -38.5t-3.5 -38.5q-2 -29 4 -46q5 -14 9 -28.5t6.5 -31t4 -28t3 -32t2 -28.5t1.5 -31.5t1 -29.5q0 -33 3 -65
q5 -76 -5 -129zM176 50h2h-1h-1z" />
    <glyph glyph-name="v" unicode="v" horiz-adv-x="390" 
d="M461 835q12 13 27 24q-3 -5 -7 -14.5t-8.5 -16t-11.5 -11.5q-25 -20 -16 -45q3 -7 -4 -14q-2 -2 -11 -2q-4 0 -6.5 -1.5t-1.5 -5.5q1 -9 -3.5 -22.5t-5.5 -18.5q-7 -5 1 -13h-1q-1 -1 -4 -8t-5 -11q-26 -40 -45 -86q-8 -20 -25.5 -59t-25.5 -59q-13 -35 -68 -173
q-10 -25 -21 -54t-24.5 -65t-20.5 -55q-4 -13 -14 -37q-17 -37 -21 -54q-8 -30 -34 -44q-20 -12 -36 1q-26 20 -36 32q-23 27 -12 54q4 10 7 22t4.5 20.5t2.5 23t1 20v23v21.5q0 18 -3.5 75.5t-2.5 88.5q0 16 0.5 46t1 54.5t1.5 46.5l3 162q0 45 1 67q0 5 5 30q2 14 6 16
t17 -4q3 -1 11.5 -4.5t13.5 -6.5q48 -30 60 -84q7 -31 6 -64q-2 -120 -10 -161q-2 -7 -0.5 -24.5t0.5 -26.5q27 16 34 30q9 19 28 54.5t23 43.5q18 35 37 63q7 9 17 29q8 16 26.5 43.5t23.5 36.5q5 11 24 15q4 13 17 13q-2 -1 -2 -2.5t2 -1.5q4 0 9 7q15 21 76 86zM376 747
v-1v1zM357 714q15 7 3 19q-6 -10 -8 -15q-1 -1 2 -4h3zM414 709l-1 -1z" />
    <glyph glyph-name="w" unicode="w" horiz-adv-x="700" 
d="M976 880q5 -5 3 -15q-1 -6 -5 -11q-14 -14 -40.5 -48t-44.5 -49q-53 -49 -161 -174q-4 -5 -11 -16t-9 -13q-5 -7 -23.5 -35t-29.5 -43q-5 -6 -61 -105q-80 -137 -127 -232q-23 -51 -31 -64q-12 -20 -49 -44q-13 -7 -22 5q-2 3 -11.5 16t-13 19t-8 17.5t-5.5 22.5
q-1 12 -17 125l-9 74q-24 -15 -32 -40q-7 -18 -15 -27q-17 -22 -42.5 -65t-35.5 -58q-15 -21 -23 -42q-5 -13 -19.5 -35t-16.5 -26q-8 -16 -41 -16q-27 0 -35 26q-9 37 -16 84t-7 182q1 65 13 197q3 32 8.5 67t14 80.5t12.5 66.5q2 10 4 15q7 28 35 20q2 0 7 -3t7 -2
q14 1 18 -16q14 -55 14 -129q-1 -64 -14 -165q-9 -85 -9 -141q0 -3 1 -4q3 -5 4 -6q4 -2 7 1q5 5 13 15q18 23 52 67t40 52q26 34 84 98q11 12 42 22q6 2 16 -2.5t13 -4.5q6 -1 11 -15q15 -34 8 -65q-12 -55 -23 -136q-3 -20 -3 -59q0 -4 4 -6t7 1q10 13 17 26q16 30 56 86
q49 69 84 125q13 21 42.5 58.5t41.5 55.5q5 9 16 9q9 0 7 8q-1 20 18 27q6 2 8 7q7 17 19 31.5t29 30.5t25 26v1h8v9l1 -1l15 15l-1 1q5 -5 10 0v-1q7 1 13.5 5t10 7t10.5 10.5t9 9.5q50 49 119 92q9 6 14 1z" />
    <glyph glyph-name="x" unicode="x" horiz-adv-x="510" 
d="M571 838q9 -28 -9 -58q-4 -7 -41 -62l-44 -69q-34 -52 -102 -154q-48 -69 -53 -76q-12 -16 -6 -34q20 -74 17 -140q0 -2 3 -17q8 -30 -4 -56q-4 -11 -20 -45q-3 -8 -11 -8q-5 0 -9 10q-14 50 -23 75q-4 13 -14 39.5t-15 39.5q-9 -1 -15 -11q-30 -48 -46 -72
q-6 -9 -29 -46t-35 -57q-7 -12 -53 -71q-1 -1 -5 -2t-5 -2h1q-19 -21 -22 -28q-1 -4 -7 -12q-10 -10 -22 -3q-1 0 -4 4t-7 3q-9 -2 -14.5 3t-9.5 13t-8 11q-3 3 2 14l48 87q89 154 98 169q8 13 29 47.5t32 53.5q23 40 23.5 46t-14.5 46q-22 60 -42 98q-13 25 -28 31
q-5 1 -9 5q-11 13 -7 23q4 13 19 13q5 0 19.5 2t22.5 1t21.5 -10.5t22.5 -10.5q1 0 13 -12q11 -12 41 -63q11 -17 22 -1l48 75q52 81 59 93q32 59 73 105q13 35 59 37q5 0 7 1q16 10 42 -8q8 -5 11 -17z" />
    <glyph glyph-name="y" unicode="y" horiz-adv-x="500" 
d="M341 437q-1 -17 -2 -47t-2 -45q-3 -43 -11 -140q-17 -226 -35 -313q-5 -28 -2 -64q1 -26 24 -49q6 -6 13 -2q4 3 23.5 16t29.5 21q18 15 22 37q9 41 16 93q1 6 21 142q12 83 18 276q2 32 4 189q0 36 -1 54q-5 55 -52 74q-30 11 -47 -5q-29 -26 -44 -49q-13 -21 -30 -43
t-38.5 -47.5t-33.5 -40.5q-13 -16 -29 -33t-36 -37.5t-31 -31.5q-1 -1 -4 -5.5t-5.5 -5.5t-6.5 0q-5 2 -5.5 5t1.5 7.5t2 6.5q3 50 15 98q5 17 0 79q-2 10 -21.5 29t-28.5 19q-7 0 -21.5 -0.5t-21.5 -0.5q-10 -2 -12 -12q-6 -48 -10 -71q-22 -120 -4 -265q4 -26 8 -37
q10 -31 46 -47t67 2q43 30 65 53q43 49 51 58q5 6 23.5 27.5t29 36t18.5 31.5q9 16 37 37z" />
    <glyph glyph-name="z" unicode="z" horiz-adv-x="630" 
d="M255 264q-2 9 7 20q20 24 62 72q198 224 206 233q25 28 49 77q12 22 -3 51t-41 31q-65 7 -83 6q-74 -6 -148 -27q-10 -3 -91 -41q-67 -31 -203 -91q-14 -8 -14 -18q2 -62 39 -91q28 -23 55 -9q5 3 17 9t18 10q58 40 205 107q1 1 7.5 4.5t9.5 4.5t8.5 1t10.5 -4
q0 -6 -3 -10.5t-9 -10t-8 -7.5q-8 -10 -27 -31.5t-31 -38.5t-19 -36q-2 -3 -8 -9q-18 -23 -55.5 -70t-56.5 -70l-57 -72q-51 -58 -95 -132q-20 -36 8 -64q14 -11 22 -3q12 14 51 18q51 3 95 25l63 33q90 44 177 61q36 7 102.5 13.5t82.5 8.5q5 0 24.5 4t30.5 3q22 -1 63 4.5
t60 5.5q9 0 12 3q4 7 9.5 10t15 4.5t13.5 2.5q20 6 17 22q-20 6 -57 11t-49 7q-92 18 -154 18q-12 0 -37.5 -0.5t-38.5 0.5q-89 1 -192 -28q-10 -3 -30 -8.5t-30 -8.5z" />
    <glyph glyph-name="braceleft" unicode="{" horiz-adv-x="566" 
d="M498 941q21 -38 18 -88q-2 -13 -12 -16q-29 -9 -46 1q-7 5 -8 5q-19 8 -16 27q1 9 1 26q-1 23 -17 51q-2 5 -9 7t-14 0q-13 -5 -17 -12q-24 -36 -27 -47q-1 -4 -7 -17.5t-7 -21.5q-15 -90 -15 -126q-1 -37 19 -73q12 -21 17 -28q20 -28 27 -81q3 -25 -14 -38
q-36 -32 -45 -38l-20 -15q4 -6 9 -8q14 -4 28 -26q8 -13 1 -31q-4 -13 -16 -31q-15 -20 -32 -41q-7 -8 -17.5 -24t-13.5 -20l-5 -9q-19 -31 -44 -90q-3 -9 -3 -10q-2 -10 -7 -31.5t-8.5 -38t-4.5 -32.5q-3 -57 -3 -58q0 -30 14 -70q2 -4 14 -24q12 -19 32 -8q26 13 39 24
q18 14 28 21q3 1 26 25h-1q3 2 5 5v-1l11 15q10 10 11 17v1q6 -3 13 4l-1 -1q0 -3 0.5 -7t0.5 -6q2 -2 4 -2h1v-13q3 -6 -2 -31q-1 -8 -14 -28q-2 -3 -10.5 -13t-11.5 -16q-1 -3 -17 -16q-46 -37 -94 -29q-43 8 -61 25q-13 11 -21 11q-4 0 -9 8q-36 44 -42 98q-5 40 -5 47
q0 24 5 52q4 16 3 25q-1 25 18 76q16 47 44 92q16 24 20 38q5 18 34 51q14 14 29 40q5 9 -5 9q-9 1 -28 1q-19 2 -22 10l-6 3q-9 0 -21 12q-8 8 0 16q7 8 23 14q3 2 8.5 4t8.5 3q12 6 17 12q10 10 26 19q10 6 26 20q10 10 23 41q2 6 -5 27l-21 45q-1 2 -2 4.5t-2 3.5
q-26 30 -26 82q-3 59 14 129q5 25 31 83q1 4 5 10q5 6 8 10.5t5.5 7.5t6 5.5t5 4t6.5 2.5t6.5 1.5t8.5 1.5t10 2q44 8 84 -13q11 -7 25 -12q21 -9 36 -34zM382 1q-3 1 -3 -2t2 -1q1 0 1 1v2z" />
    <glyph glyph-name="bar" unicode="|" horiz-adv-x="373" 
d="M273 954l1 -26q0 -27 -1 -27q0 -16 -2 -20q-4 -6 -4 -25q1 -25 1 -76q0 -13 -1 -39.5t-1 -39.5q0 -51 -1 -76q0 -7 -2 -10q-3 -5 -5 -29q-2 -48 -4 -58q-4 -27 -1 -58q-8 -5 -6 -15q1 -5 -1 -23q-1 -6 -2.5 -18t-2.5 -21.5t-1 -17.5q0 -4 -0.5 -17.5t-1.5 -20.5
q-1 -6 -5.5 -34t-4.5 -43q0 -8 -5 -46q-1 -9 -4.5 -30t-5.5 -32q-6 -40 -9 -83q-3 -35 -13 -105q0 -4 -0.5 -16.5t-1.5 -18.5q-1 -12 -3.5 -37.5t-4.5 -38.5q-11 -71 -13 -77q-5 -16 -3 -28q-3 1 -14.5 -1.5t-13.5 3.5q-7 -2 -23 14q-12 10 -7 24q1 3 4 32q2 17 -8 40l-2 8
q7 -2 9 -4q7 -6 7 4q0 6 2 9q1 3 -1 5t-4 0q-6 -3 -9 5q-4 14 1 22q5 7 0 14q-4 4 -6 18q0 3 4 5h7q1 1 2 0q-1 5 -5 12.5t-5 12.5q0 4 5 4q3 -1 4 0.5t0 4.5q-6 15 -5 20.5t11 16.5q2 4 2 7q-4 3 -4 11.5t-2 11.5q-5 13 0 35q1 1 3.5 0.5t3 0.5t-0.5 6q-8 26 0 47
q8 18 9 28q0 3 4 5q9 2 2 9q-10 15 -2 23q7 7 3 11q-3 6 -2 9q2 24 4 37q0 3 4 3q5 -1 6 1.5t-2 6.5q-9 12 -2 25q1 1 0 5t-1 5q2 14 2 20q0 5 5 7l10 3l-1 -1q-1 0 -1.5 -0.5t-0.5 -1.5l3 3q0 1 -1 4l-1 3q-11 5 -9 24q3 19 3 20q1 2 1 20q1 5 1 17l2 10q1 10 -2 10v1l-1 1
q4 9 7 10q-2 8 0 40q3 28 2 30q-2 7 2 11t2 10q-5 17 0 39q1 4 -0.5 15t2.5 14v8q-3 9 1 22q2 6 1 23t0 24q0 1 -5 19h1q5 27 -3 48q-5 9 0 18v1q4 0 3 4q2 4 -0.5 8.5t-2.5 6.5q3 15 2 17v2h-1l1 1q-2 18 -1.5 49t-0.5 49q0 8 -3 34.5t-2 41.5q0 2 -2 6.5t-2 5.5
q-4 12 5 21q15 13 49 21q10 2 27 -4.5t21 -7.5q3 0 5 -4q12 -22 11 -35q-1 -8 1 -38zM166 780v1v-1zM187 607q-2 -4 1 -5q3 0 3 3q0 1 -1 3v1q-3 0 -3 -2zM191 573v4h-4q0 -5 2 -7q2 2 2 3zM186 487q1 7 1 21q-7 -12 -7 -19l3 -4zM185 467q2 5 -2 6q-3 0 -3 -5q0 -3 2 -7
q3 1 3 6zM161 455q1 1 5 1q6 2 2 7q-1 2 -3 2q-2 -5 -5 -10h1zM179 436q3 -2 3 2q0 2 -2 4l-2 -2zM179 421v2l-1 -1v-2zM177 366q-1 4 0.5 18t-3.5 21q0 -7 -0.5 -19.5t-1.5 -18.5q0 -3 3 -3q1 -1 2 -0.5t0 2.5zM172 324q0 2 3 28l-2 2q-2 -10 -8 -28q0 -2 2 -4q5 -2 5 2z
M164 277l2 -1l-1 2zM156 216q2 -2 2 -3q0 3 -1 4q0 2 -1 3q-1 -1 -1 -2q1 -1 1 -2zM128 -41q3 16 -1 32q-7 -11 -5 -33q2 -2 4 -2t2 3zM124 -73q0 2 1 3q-2 0 -2 -1t1 -2zM101 -132v1v-1z" />
    <glyph glyph-name="braceright" unicode="}" horiz-adv-x="570" 
d="M494 989q28 -19 25 -54q-2 -35 -18 -61l-10.5 -17.5t-12.5 -19.5q-26 -35 -52 -63q-39 -42 -64 -84q-23 -38 -33 -63q-12 -25 -13 -47q-1 -10 8 -13q5 -2 15 -7.5t16 -7.5q4 -1 8 -4t6 -5.5t5.5 -7.5t4.5 -7q9 -12 -6 -20q-33 -16 -62 -49q-2 -2 -5.5 -5t-4.5 -4
q-16 -19 -2 -35q1 -1 14 -17q34 -36 43 -56q7 -14 11 -26q2 -9 6.5 -25t5.5 -19q11 -45 14 -85l3 -15q0 -2 1 -7t0 -8q-3 -13 -3.5 -38t-2.5 -37q0 -1 -3 -61q-3 -27 -10 -48q-2 -5 -5.5 -13.5t-6 -15.5t-3.5 -13q0 -4 -1 -4q-5 -4 -9 -10t-8 -14.5t-6 -11.5
q-2 -4 -5.5 -7.5t-8.5 -7.5t-7 -6q-15 -15 -32 -22q-29 -11 -50 -11q-19 1 -59 -1q-9 -2 -18 3t-21 7q-8 1 -34 18q-2 1 -2 4l-1 3q-3 7 4 7q4 0 6 1q-2 0 -4 2q-3 3 -3 4q0 4 4 2l32 -6q13 -2 39 4q59 10 91 69q8 16 4 23q-1 1 2 9q18 41 27 106q6 53 4 158q-1 7 -5 26
q-8 38 -15 56q-11 32 -33 56q-24 24 -42 62q-2 4 -2 6q4 32 14 43q3 4 9.5 12t12.5 14t12 10q2 1 5 4q7 7 1 15q-2 1 -4 3.5t-4 3.5q-12 9 -15 23q-11 30 -1 53q6 16 20 48q7 16 22.5 44.5t20.5 37.5q14 28 25 40q13 16 41 48l53 69q12 16 13 29q0 16 -15 12
q-56 -14 -92 -40q-6 -4 -14 -14q-13 -14 -31 -13q-16 0 -24 1q-17 4 -33 20q-3 3 -1 12q3 12 12 23q23 27 63 44q16 6 24 10q34 14 72 15q37 2 65 -13q17 -9 33 -21z" />
    <glyph glyph-name="asciitilde" unicode="~" horiz-adv-x="837" 
d="M735 951q-2 -3 -4.5 -12t-5.5 -13v-6q1 -5 -3 -11q-13 -16 -14 -24q0 -4 -4 -8q-2 -3 -6 -8t-7 -8.5t-7 -6.5q-8 -4 -5 -14h-1l-2 -1q-9 -14 -19 -25q-4 0 -7.5 -3t-7.5 -8.5t-5 -7.5q-1 0 -3 -2t-3 -2q-6 -2 -20 -16q-2 -1 -5.5 -4.5t-6 -5t-6.5 -1.5q-1 0 -2 -2l-1 -2
q-14 -12 -18 -14q-5 -3 -13.5 -9t-11.5 -8t-18 -13t-24 -13q-26 -8 -40 -7q-47 7 -72 32q-38 36 -54 63l-27 46q-9 14 -25 34l-4 4q-25 23 -53 1q-7 -5 -22 -27q-3 -5 -11.5 -19t-14.5 -21l-6 -12l-18 -42q-4 -10 -9 -13q-7 -4 -11 -1q-3 4 -12 6q-4 1 -18 13q-2 3 -7 17
q-1 2 4 15q2 5 5.5 13.5t4.5 11.5q5 14 11 21q2 2 4 5t4 6.5t3 5.5q3 5 13 22t15 27q8 13 25 28q15 12 31 16q13 2 19 0q40 -12 62 -37q35 -40 63 -85q24 -37 31 -45q15 -22 42 -19q24 2 44 13q16 10 46 31.5t33 23.5l24 15q6 2 13 11q4 6 10 11.5t13.5 12t11.5 9.5l36 31
q15 14 45 40q12 10 20 6q4 -11 1 -15z" />
    <glyph glyph-name="exclamdown" unicode="&#xa1;" horiz-adv-x="575" 
d="M467 877q9 -5 8 -15q-2 -16 -4 -23q-1 -6 -5.5 -17.5t-6.5 -18.5q-4 -16 -20 -24q-12 -5 -33 3q-14 6 -26 19q-11 16 -7 28q4 18 9 27q5 11 5 13q0 6 7 13q14 14 29 8q11 1 44 -13zM351 640q6 -1 16 -13q7 -8 1 -17q-3 -4 -8 -20q-1 -3 -1.5 -13t0.5 -14q1 -2 1 -5
q-6 3 -7 4q-3 4 -5 -1l-3 -6q-4 -4 2 -4q5 1 7 -5q0 -10 -5 -13q-5 -5 -2 -9q2 -3 2 -13q0 -4 -4 -2q-4 0 -5 1h-1q-1 -3 1 -9t2 -9q-1 -3 -4 -1q-2 1 -3.5 0t-0.5 -3q2 -10 0 -14t-11 -9q-1 0 -2 -1.5t0 -2.5q3 -1 1.5 -7.5t-1.5 -8.5q2 -9 -5 -22h-2q-4 1 -4 -1v-3
q3 -15 -7 -30q-11 -14 -12 -16q0 -2 -3 -2q-7 0 -4 -6q6 -11 -2 -15q-5 -4 -4 -6q2 -4 1 -7q-4 -12 -10 -23q-2 -1 -3 -1q-5 2 -5 -1q0 -1 1 -3q4 -11 -2 -17q-1 -1 -1.5 -3t-0.5 -3q0 -2 -1.5 -6t-2.5 -7q-2 -3 -5 -3h-6l1 1l-1 -1h-2q0 -4 1 -5q7 -6 2 -17q-1 -2 -2.5 -6
t-2.5 -6q-1 -1 -4 -13q-2 -3 -4 -11l-3 -13l1 -1h-1q-6 -6 -7 -6q1 -6 -6 -25q-6 -18 -6 -19q0 -5 -3 -7q-3 -1 -3 -5q1 -13 -7 -26q-1 -2 -1.5 -8.5t-4.5 -9.5q-1 -1 -1 -5q1 -7 -4 -14q-3 -5 -4.5 -15.5t-3.5 -14.5v-13q-9 -15 -6 -31q2 -8 -3 -12q-3 0 -3 -3v1
q-2 -2 -0.5 -5.5t0.5 -5.5q-5 -7 -4 -10v-1l-1 -1q-1 -13 -7 -34.5t-7 -28.5q-1 -4 -3 -22.5t-5 -27.5q-1 -1 0 -4t1 -4q1 -9 -7 -13q-15 -6 -40 -4q-8 0 -20.5 7.5t-14.5 8.5l-3 4q-5 18 -2 24q2 5 3 13.5t2 11.5q3 14 8 34q3 11 5 13q3 2 7 15q4 23 12 49q2 6 6.5 23
t6.5 27l13 49l3 6q5 4 9 18q1 4 3.5 11.5l4.5 13.5t4 11q9 21 10 37q7 1 7 9q0 1 5 14q2 6 6.5 18t6.5 18q1 3 3.5 11.5t4.5 12.5q2 6 9.5 21.5t10.5 25.5q1 6 11 28q7 17 17 38q12 28 20 52q10 29 26 65q2 4 4 11.5t3 10.5q3 7 9 23t10 24q19 44 22 48q7 9 6 17
q2 -1 10 -1.5t11 -5.5zM360 558v-1v1zM332 523q1 -1 2 -1q-1 1 -1 3zM321 484q6 5 8 20q0 2 -2 2t-2 -2q-5 -10 -4 -20zM263 348h1h-1zM263 343v2q-1 0 -1 1q-1 -1 -1 -2l1 -1v-1zM246 306l1 1l-2 1zM238 276q2 0 -1 3q-2 2 -4 -1q-6 -15 -7 -17l1 -1h1q1 1 4.5 6.5t5.5 9.5
zM243 270h-2h2zM226 251q0 1 -1 2q-1 -1 -2 -1q0 -2 -3 -10t-1 -15zM213 217l-1 -1q1 0 2 1v1q-1 0 -1 -1zM208 204h1q1 1 2 1q0 2 -1 3q-2 2 -2 -1v-3zM214 188l2 -2q2 2 4 6l-3 1q-4 0 -3 -5zM201 185q2 -1 4 3l-1 4q-3 0 -3 -3q-3 -3 0 -4zM192 163q8 8 9 11q0 3 -2 3
t-2 -1q-1 -2 -2.5 -6.5t-2.5 -6.5zM182 119v4q-1 1 -3 -1v-3h3zM177 100q1 2 0 3q-2 0 -3 -2q1 -2 1 -3z" />
    <glyph glyph-name="periodcentered" unicode="&#xb7;" horiz-adv-x="304" 
d="M152 539q15 -6 29 8q7 7 7 13q0 2 5 13q2 5 10 27q2 12 -8 28q-12 13 -26 19q-21 8 -33 3q-14 -7 -20 -24l-12 -36q-2 -7 -4 -23q0 -11 8 -15q33 -14 44 -13z" />
    <glyph glyph-name="questiondown" unicode="&#xbf;" horiz-adv-x="641" 
d="M588 884q-1 -3 1.5 -7.5t1.5 -6.5q-2 -4 -5.5 -19t-9.5 -22q-10 -13 -26 -9q-28 7 -39 22q-5 5 -8 7q-10 8 -7 19q1 4 2 16.5t4 19.5q8 12 9 14q8 9 22 9q19 -3 39 -20q9 -9 11 -10q10 -3 5 -13zM506 149q16 -3 31 -22q11 -14 1 -35q-23 -44 -57 -86q-75 -92 -172 -152
q-53 -33 -106 -40q-36 -6 -74 11q-26 12 -44 25q-19 13 -25 33q-1 5 -5 13q-6 18 -5.5 27t8.5 30q2 5 1 6q-5 8 3 31q3 12 25 60q5 9 12 18q9 11 24.5 34t23.5 34q9 11 23.5 33.5t17.5 26.5q13 20 20 25l9 12q9 15 18 16q4 1 7 4.5t2 6.5q-2 8 9 14q1 1 3 2t3 2l-2 3
q-4 4 -3 4q0 1 3 6t6 6.5t8 -0.5q1 1 4.5 4t4.5 5t0 6q0 2 9 8q8 5 -2 12q0 6 4 7q19 1 24 20q4 2 7 10.5t8 10.5h-1v5h1l3 3t3.5 4t0.5 5q4 3 9 12t10 12q2 1 1.5 5t2.5 6l9 7h1l1 -1q-6 8 3 26q4 1 5 6t3 5q4 1 5 3t0.5 5t-0.5 4q1 2 3 4q14 9 23 33q3 7 11 19.5t11 19.5
q17 36 21 65q2 9 9 13q9 6 21 4q16 -3 29.5 -19t12.5 -31q0 -4 -1 -12.5t-1.5 -13.5t-3 -11.5t-6.5 -11.5q-4 -6 -5 -10q-16 -36 -58 -104q-16 -26 -46 -78q-26 -44 -40 -65q-10 -14 -20.5 -29.5t-23 -34.5t-19.5 -29q-6 -8 -32.5 -46.5t-40.5 -59.5q-3 -5 -17.5 -24
t-20.5 -31q-10 -23 -10 -28q0 -3 -7 -15q-18 -28 -26 -46q-5 -12 -4 -22l-3 -24q-1 -4 -1 -13q1 -18 20 -14q28 7 53 22q3 2 17 8t19 11q1 1 13.5 10.5t18.5 15.5q10 8 32 28q19 17 37 34q5 3 8 8q7 9 21.5 24.5t19.5 21.5l5 5q6 12 23 36t24 39q8 15 30 15q7 0 23 -2z
M186 176q0 -1 -1 -1h1v1z" />
    <glyph glyph-name="multiply" unicode="&#xd7;" horiz-adv-x="606" 
d="M334 427q5 16 19 30q7 7 12 15q7 9 19.5 25t17.5 23l45 53q12 16 20 23q12 9 22 26q1 2 4.5 7t4.5 9t0 8q-2 9 -14 23q-6 10 -13 11q-9 3 -20 2.5t-18 -9.5q-2 -2 -4.5 -4t-5.5 -4.5t-5 -3.5q-15 -13 -16 -14q-4 -6 -8.5 -11.5t-10.5 -12t-9 -10.5q-73 -92 -89 -114
q-7 -9 -13 -2q-13 11 -21 22q-35 48 -38 53q-11 15 -26 26l-9 6q-8 5 -12 9q-10 8 -17 8h-29q-5 -1 -8 -5.5t-2 -8.5q8 -20 16 -26q15 -11 23 -22q17 -21 50 -58.5t41 -46.5q6 -6 1 -13q-18 -26 -28 -39q-49 -59 -95 -139q-10 -18 -16 -40q-3 -8 2 -34q1 -4 3 -6t7 -3.5
t6 -2.5l1 -1q1 -6 8 -6q5 0 10 3q1 1 3 4t5 3q5 -1 8 4q3 8 11.5 21.5t10.5 17.5q4 8 12 21t10 16q21 36 50 65l14.5 14.5t17 18t11.5 15.5l4 3q9 11 19 2q4 -3 15 -12.5t17 -14.5q55 -42 108 -90q14 -12 21 -17l22 6h4t4 2v2v2l-1 2q1 15 -19 35q-40 38 -85 73
q-50 40 -67 61z" />
    <glyph glyph-name="divide" unicode="&#xf7;" horiz-adv-x="884" 
d="M415 587v-13q1 -1 8.5 -11t15.5 -12q25 -4 36 3q35 27 39 31q3 3 13 29q3 6 4 7q8 9 2 24q-7 13 -19 24q-11 9 -37 17q-13 5 -22 -4q-28 -30 -34 -55q-4 -20 -6 -40zM231 455q-36 0 -63 -3q-6 -1 -17.5 -2.5t-21 -2.5t-17.5 -1q-7 1 -10 -2.5t-2 -10.5q3 -15 20 -34
q19 -20 48 -20q8 1 22 1q22 0 64 0.5t64 0.5q11 0 33.5 2t33.5 2t32 0.5t38.5 1t32.5 1.5q11 1 69 1q31 2 37 5q9 3 21 1q9 -1 36 -1t35 -3q5 -1 15 -1q13 2 39 0q15 -2 29 3q9 4 15 20q1 4 -3 8q-13 11 -27 14q-11 3 -42 10q-27 7 -83 11q-47 5 -85 5q-15 0 -41.5 -0.5
t-48.5 -1t-42 -1.5h-30q-26 0 -39 -1q-30 -2 -46 -1q-13 2 -25 0q-9 -1 -23 -1h-18zM385 297q-11 0 -15 -6q-21 -32 -24 -37q-8 -16 0 -45q0 -1 1 -2t2.5 -2t2.5 -2q13 -13 40 -20q14 -3 31 4q6 3 16 9.5t12 7.5q10 7 15 24q2 7 -1 12q-5 13 -15 14q-13 0 -20 16
q-6 13 -11 16q-17 9 -34 11z" />
    <glyph glyph-name="endash" unicode="&#x2013;" horiz-adv-x="767" 
d="M168 402v1h-22l-10 -1q-11 0 -11 1q-12 0 -20 -11q-11 -18 3 -36q2 -3 21 -19q12 -12 29 -12q111 2 134 5q5 0 19 2t22 2q32 0 60 7q3 1 10 1q12 1 101 2.5t96 1.5q4 0 10.5 3.5t9.5 3.5q5 0 18 4t20 3q6 0 4 6t1 8q4 4 2 18q-3 14 -18 14q-8 0 -22.5 1t-21.5 1
q-59 7 -269 2q-58 -2 -166 -8z" />
    <glyph glyph-name="emdash" unicode="&#x2014;" horiz-adv-x="952" 
d="M168 396v1h-22l-10 -1q-11 0 -11 1q-14 0 -20 -11q-11 -18 3 -36q4 -5 11.5 -11.5t8.5 -7.5q14 -12 30 -12q14 0 63 0.5t92.5 1t62.5 2.5q35 5 41 5q243 0 271 7q3 1 11 1l87 4q4 0 10 3.5t9 3.5q6 0 18.5 4t19.5 3q7 0 5 6t0 8q6 5 2 18q-3 14 -18 14q-7 0 -21.5 1
t-21.5 1q-43 3 -185 3t-185 -2q-182 -3 -251 -7z" />
    <glyph glyph-name="minus" unicode="&#x2212;" 
d="M111 304v1h-21h-22q-12 0 -20 -11q-10 -18 3 -36q2 -3 21 -19q12 -12 29 -12q119 3 134 4q35 5 41 5q32 0 60 7q3 1 11 1q20 2 62 4q4 0 10.5 3.5t8.5 3.5q6 0 18.5 4t19.5 3q7 0 5 6t0 8q6 5 2 18q-3 14 -18 14q-7 0 -21.5 1t-21.5 1q-45 4 -134 2q-53 -2 -167 -8z" />
    <glyph glyph-name="g.ss01" 
d="M363 -53q1 -26 2.5 -56t3.5 -66.5t3 -56.5q1 -25 10 -58q3 -3 5 -3q4 2 4 3q1 9 8.5 25t6.5 26q0 6 6 14q17 20 34 72q15 44 19 50q6 10 6 26q-3 76 7 167q2 14 4.5 42t3.5 41q2 25 8 83q6 106 6 107v36q0 8 -6 13q-28 25 -29 26q-29 21 -62 9q-13 -5 -14 -18
q-7 -40 -5 -56q1 -25 -13 -45q-27 -35 -57 -94q-7 -15 -34 -56q-14 -21 -47 -35q-7 -3 -16 2q-7 4 -17 16q-9 12 -28 59q-31 76 -20 162q6 42 8 68q0 21 8 43q23 82 36 117q32 86 47 110q16 25 21 45q2 11 8 16q46 32 64 39q34 12 55 -5q9 -6 9 -14q0 -4 5.5 -15.5
t3.5 -18.5q-4 -9 -3 -36t0 -36q0 -12 9 -13q10 -3 16 4q6 8 8 13q16 36 12 65q-2 9 -3 25.5t-2 21.5q-5 31 -28 38q-2 1 -4 2.5t-4.5 3.5t-3.5 3q-23 18 -54 10q-7 -2 -19 -3t-16 -2q-5 -1 -17 -2.5t-21 -4t-16 -7.5q-18 -12 -42 -22q-18 -6 -21 -15t-12 -22.5t-12 -18.5
q-46 -94 -68 -149q-4 -10 -20 -46t-21 -57q-12 -48 -19 -72q-14 -45 -13 -85q0 -64 17 -121q2 -5 7.5 -22t9.5 -26q23 -54 37 -71q3 -4 10.5 -12t10.5 -12q32 -42 110 -67q3 -1 21 -1q3 0 11 2t13 2q21 0 42 19l14 12q14 11 16 -7q1 -7 1 -21v-90z" />
    <glyph glyph-name="h.ss01" 
d="M-102 454q5 -7 18 -21t19 -22q21 -27 53 -33q16 -2 38 -8q10 -3 10 -14l-1 -10l-24 -162q-7 -46 -9 -161q0 -19 10 -41q1 -4 6.5 -4.5t8.5 2.5q6 5 8 15q0 4 2 7t5 2t5 -1t4 1t3 2t2.5 3t2.5 3q5 4 11 15.5t12 15.5q23 16 39 66q13 42 16 51q7 13 10 34q3 15 8.5 44
t8.5 43q3 15 17 70q5 19 23 23l11 2q5 1 61.5 10t84.5 19q3 1 6 1.5t6.5 1t5.5 0.5q4 1 6 -2t2 -7q1 -8 -3 -24t-4 -18q-16 -100 -25 -151q-6 -42 -11 -63q-18 -79 -13 -163q0 -12 4 -21q7 -15 25.5 -19t30.5 7q22 22 26 34q3 9 16 40.5t17 49.5q14 70 25 92q6 10 10 35
q3 23 17 69q2 9 9 30.5t10 33.5q2 9 5.5 27t5.5 26q3 16 11 51t12 53q11 59 28 154q9 56 6 77q-2 9 -6 17.5t-11.5 18.5l-10.5 14q-2 4 -6.5 4t-10.5 -1t-9 -1q-4 0 -7 3q-5 3 -10.5 4.5t-9.5 1t-11 -1.5t-10 -1q-17 -2 -21 -16q-6 -14 -6 -21q0 -8 -10 -48q-3 -13 -9 -37.5
t-8 -35.5l-21 -94q-1 -8 -5 -17q-4 -12 -19 -14h-11q-24 0 -71.5 1t-70.5 1q-20 0 -14 18q44 165 65 224q5 14 20 91q3 15 -2.5 30.5t-11 23t-20.5 24.5q-1 0 -18.5 8t-28.5 6q-7 -2 -28 2q-22 2 -30 -3q-6 -1 -4.5 -11t1.5 -12q-7 -21 -16 -60t-13 -54q-34 -116 -43 -158
q-4 -21 -14 -62.5t-15 -62.5q-4 -26 -29 -30q-8 -2 -11 -2q-22 -1 -64.5 -6.5t-60.5 -7.5z" />
    <glyph glyph-name="n.ss01" 
d="M550 557l1 1q-17 -22 -19 -24q-8 -6 -16 -15t-12.5 -14.5t-13.5 -17.5l-12 -16q-12 -17 -19 -19l1 -1l-6 -13q-10 -26 -26 -40v1q-3 -3 -8.5 -8t-10 -10t-6.5 -10q-1 -6 -7 -12q-2 -2 -5 -1.5t-4 3.5q-2 7 -4 21q-6 84 -13 124q-15 94 -53 141q-4 5 -1 13q5 13 7 16
q9 26 0 53q-7 23 -32 34q-3 1 -9 7q-6 4 -9 1q-2 -6 -20.5 -5t-21.5 1q-17 -3 -25 -5.5t-16.5 -11.5t-9.5 -24q-1 -4 -5 -10q-45 -100 -81 -213q-48 -145 -78 -297q-17 -86 -18 -123q-2 -39 15 -65q11 -20 31 -17q14 1 48 21q10 6 12 21q0 26 16 76q2 6 8.5 22t8.5 25
q13 62 40 140q8 23 22.5 70.5t22.5 72.5q1 2 2 7.5t2 8.5t3.5 5.5t7.5 2.5q4 0 5.5 -4t2.5 -11t2 -9q1 -4 1.5 -8t1 -9t0.5 -8l3 -43q11 -94 34 -225q9 -51 56 -98q24 -24 52 -6q2 1 7.5 3t9 3.5t4.5 4.5q17 29 16 38q-1 29 13 70q12 37 48 123q22 53 22 74q0 13 9 27l7 14
t8 18q6 23 24 52q38 61 39 64q16 37 43 68q48 53 127 103q15 10 38 32.5t28 26.5q7 7 9 30q-1 0 -3 1h-1q-61 -20 -130 -72q-3 -3 -10.5 -10t-13.5 -11.5t-13 -7.5q-9 -4 -9 -14q0 -17 -19 -28q-13 -12 -25 -25q-71 -77 -73 -79z" />
    <glyph glyph-name="r.ss01" 
d="M707 28q19 -6 61 -33q-29 -5 -59 2q-40 10 -59 3q-5 -3 -14 -1q-127 8 -182 28q-110 38 -162 66q-67 36 -93 57q-29 25 -40 41q-16 18 -23 21q-7 -3 -9 -15q-7 -54 -4 -75q1 -7 1.5 -19.5t0.5 -16.5q1 -6 -4 -13.5t-6 -10.5q-2 -5 -5 -8t-4.5 -3.5t-7 0t-6.5 0.5h-3
q-3 -1 -9 -3.5t-9 -2.5t-9 2q-8 3 -20 28q-19 39 -22 86q-10 112 31 268q31 111 41 140q7 19 17 56t16 53l36 109l3 6q2 3 3 9t3 10.5t6 4.5q2 1 12 4t12.5 3t13.5 -2q3 -2 10.5 -2.5t10.5 -1.5q41 -10 46 -53q3 -19 -4 -42q-18 -64 -32 -94q-5 -12 -5 -13v-10q5 -3 11 5
q10 12 30.5 36.5t31.5 36.5q12 15 34 31q37 30 102 26q10 0 15 -7q1 -2 3.5 -5.5t4 -5.5t4 -6t4 -6t3 -5.5t2.5 -6.5t2 -6.5t1.5 -6.5t0.5 -6.5t-1 -7.5q-2 -22 -5 -31q-27 -99 -55 -166q-34 -81 -88 -162q-8 -11 -15 -15q-12 -7 -30 -25.5t-23 -22.5q-9 -9 3 -17
q10 -7 30 -19q85 -50 143 -72q11 -4 34 -14t35 -15q76 -28 114 -41q33 -13 42 -25q9 -11 34 -19zM217 306q12 12 24 31q34 50 79 166q4 10 9.5 27.5t7.5 23.5q5 10 -1 12q-7 2 -13 -4q-17 -15 -27 -29q-15 -19 -41.5 -54.5t-35.5 -47.5q-1 -1 -14 -25q-2 -7 -1 -10
q7 -7 7.5 -10.5t-1 -4.5t-8 -2t-8.5 -2q-8 -2 -11 -8q-2 -4 -9 -15t-9.5 -19t-0.5 -17q9 2 20 -11q11 -10 17 -10.5t16 9.5zM163 320l1 -3v1z" />
    <glyph glyph-name="s.ss01" horiz-adv-x="490" 
d="M98 400l1 2v-3q4 25 -3 35t-28 11q-73 1 -147 -39q-27 -17 -31 -23q-5 -7 2.5 -19.5t7.5 -16.5q1 -17 23 -59q41 -75 52 -101q13 -31 28 -54q26 -38 70 -127q39 -76 57 -95q19 -19 41 -16q26 2 39 0q25 -4 44 18q24 29 28 57q16 86 17 131q1 65 -12 145q-4 29 -20 90
q-13 53 -25 122q-22 121 -35 167q-18 65 -3 131q6 27 30 41q23 14 35 -1q5 -5 10 -3q12 2 46 -3q8 -1 13.5 4.5t5.5 12.5q0 40 -29 56q-52 26 -128 23q-8 0 -20 -6q-32 -16 -41.5 -27.5t-19.5 -48.5q-2 -6 -4 -14q-19 -79 -3 -152q26 -111 41 -191q3 -16 11 -65t14 -76
q9 -34 15 -69q12 -62 5 -153q-2 -17 -8 -49q-1 -6 -7 -7.5t-10 3.5q-45 38 -84 110q-18 35 -38 60q-21 26 -38 80q-12 32 20 54q18 12 27 17q32 16 51 48zM78 -72v-3l-3 2z" />
    </font>
</defs>
</svg>
